<svg width="19" height="22" viewBox="0 0 19 22" fill="none" xmlns="http://www.w3.org/2000/svg">
<path fill-rule="evenodd" clip-rule="evenodd" d="M1.05556 0C0.472593 0 0 0.439338 0 0.981279V20.6069C0 21.1488 0.472593 21.5881 1.05556 21.5881C1.63852 21.5881 2.11111 21.1488 2.11111 20.6069V12.3624C2.60302 12.1348 3.38066 11.8174 4.21432 11.6237C5.70962 11.2763 6.90965 11.4045 7.56622 12.32C8.79172 14.0288 11.1321 14.1793 12.9333 14.0125C14.834 13.8364 16.7145 13.2578 17.6651 12.9309C18.5004 12.6438 19 11.9064 19 11.1285V4.63494C19 3.11259 17.2666 2.22381 15.885 2.80627C14.7646 3.27863 13.2761 3.80614 11.9311 3.98036C10.5238 4.16265 9.70647 3.91599 9.32267 3.38094C7.93788 1.44997 5.56867 1.22136 3.87066 1.3529C3.21881 1.40341 2.61312 1.50936 2.11111 1.62155V0.981279C2.11111 0.439338 1.63852 0 1.05556 0ZM2.11111 3.65141V10.2099C2.57643 10.0333 3.12039 9.85499 3.70233 9.71976C5.3737 9.33138 7.86811 9.20312 9.32267 11.2312C9.82786 11.9357 10.992 12.22 12.724 12.0596C14.33 11.9109 15.9834 11.4143 16.8889 11.1053V4.63494C16.8889 4.59036 16.7919 4.57887 16.7569 4.59362C15.5774 5.09091 13.8696 5.71077 12.2224 5.92414C10.6375 6.12945 8.66653 6.00396 7.56622 4.46961C6.83988 3.45689 5.51465 3.19491 4.04599 3.30868C3.29761 3.36666 2.60117 3.51912 2.11111 3.65141Z" fill="#2A1E17"/>
</svg>
