<svg width="46" height="46" viewBox="0 0 46 46" fill="none" xmlns="http://www.w3.org/2000/svg">
<path d="M23 0C26.0424 3.91797 27.3284 8.7517 26.8594 13.4443C29.828 9.64659 34.2194 7.01898 39.2354 6.40332C38.6211 11.4904 35.9725 15.9749 32.124 18.9814C36.946 18.3474 41.9632 19.6229 46 22.8096C41.9945 25.9716 37.0238 27.2521 32.2363 26.6523C36.0047 29.6385 38.5832 34.0511 39.1748 39.0869L39.2354 39.5967C34.2037 38.9619 29.8123 36.3448 26.8584 32.5498C27.3291 37.2443 26.0437 42.0804 23 46C19.8731 41.9733 18.6004 36.9791 19.1826 32.165C16.1305 36.1729 11.5539 38.9535 6.31348 39.5967C6.94477 34.3686 9.66613 29.759 13.6211 26.6689C8.8775 27.2259 3.9658 25.9403 0 22.8096C3.8567 19.7651 8.60825 18.4652 13.2295 18.9082C9.75233 15.9367 7.38745 11.7073 6.82422 6.91309L6.76465 6.40332C11.7958 7.038 16.1868 9.65479 19.1406 13.4492C18.6703 8.75507 19.9565 3.91932 23 0Z" fill="#A43939"/>
</svg>
