<svg width="45" height="45" viewBox="0 0 45 45" fill="none" xmlns="http://www.w3.org/2000/svg">
<path d="M38.4128 38.4062C37.0668 39.7521 34.8818 39.7521 33.5358 38.4062C32.9039 37.7743 32.4754 36.8925 31.9827 36.1499C30.5011 33.9187 28.9444 31.7267 27.3878 29.5419C26.0132 27.5569 24.635 25.5756 23.2605 23.5906C23.007 23.2265 22.7535 22.8624 22.5 22.4982C23.6818 23.3157 24.8636 24.1369 26.0453 24.958C28.3232 26.5395 30.601 28.1174 32.8824 29.6989C33.8036 30.338 36.8776 32.355 37.4667 32.7656C37.8023 32.9976 38.1236 33.2475 38.4093 33.5331C39.7553 34.879 39.7553 37.0603 38.4093 38.4062H38.4128ZM21.7431 23.5906C20.3685 25.5756 18.9904 27.5569 17.6159 29.5419C16.0628 31.7267 14.5026 33.9151 13.0209 36.1499C12.5282 36.8925 12.0997 37.7743 11.4678 38.4062C10.1218 39.7521 7.93679 39.7521 6.59079 38.4062C5.24479 37.0603 5.24479 34.879 6.59079 33.5331C6.87642 33.2475 7.19418 32.9976 7.53336 32.7656C8.12245 32.355 11.1965 30.3415 12.1176 29.6989C14.3954 28.1174 16.6769 26.5395 18.9547 24.958C20.1365 24.1404 21.3182 23.3193 22.5 22.4982C22.2465 22.8624 21.9966 23.2265 21.7431 23.5906ZM22.5 44.9964C20.597 44.9964 19.0547 43.4542 19.0547 41.5514C19.0547 41.148 19.1047 40.7446 19.1761 40.3411C19.3046 39.6343 20.0508 36.0357 20.2507 34.9326C20.747 32.2051 21.2397 29.474 21.7324 26.7465C21.9894 25.3328 22.2465 23.9155 22.5 22.5018C22.5785 22.9373 22.6571 23.3764 22.7392 23.812C23.1677 26.186 23.5997 28.5637 24.0281 30.9377C24.4744 33.5795 24.9207 36.232 25.4526 38.8596C25.6276 39.7342 25.9489 40.6589 25.9489 41.5549C25.9489 43.4578 24.4065 45 22.5 45V44.9964ZM18.9547 20.0385C16.6769 18.457 14.3954 16.879 12.1176 15.2975C11.1965 14.6585 8.12245 12.645 7.53336 12.2344C7.19775 12.0024 6.87642 11.7489 6.59079 11.4669C5.24479 10.121 5.24479 7.93971 6.59079 6.59381C7.93679 5.24792 10.1182 5.24792 11.4678 6.59381C12.0997 7.2257 12.5282 8.1075 13.0209 8.85006C14.5026 11.0813 16.0592 13.2733 17.6159 15.4582C18.9904 17.4431 20.3685 19.4244 21.7431 21.4094C21.9966 21.7735 22.2501 22.1376 22.5 22.5054C21.3182 21.6842 20.1365 20.8667 18.9547 20.0456V20.0385ZM18.2549 23.2658C15.5272 23.7584 12.796 24.2547 10.0683 24.7473C8.96503 24.9472 5.36617 25.6934 4.65925 25.8219C4.25581 25.8933 3.85236 25.9433 3.44892 25.9433C1.54595 25.9433 0 24.401 0 22.4982C0 20.5954 1.54238 19.0496 3.44892 19.0496C4.34506 19.0496 5.26978 19.3709 6.14451 19.5458C8.77224 20.0777 11.4214 20.524 14.0634 20.9703C16.4376 21.3987 18.8155 21.8306 21.1897 22.259C21.6289 22.3376 22.0644 22.4161 22.5 22.4982C21.0862 22.7553 19.6688 23.0123 18.2549 23.2658ZM38.4128 11.4633C38.1272 11.7489 37.8094 11.9988 37.4703 12.2309C36.8812 12.6414 33.8072 14.6549 32.886 15.2939C30.6046 16.8755 28.3267 18.4534 26.0489 20.0349C24.8671 20.8524 23.6853 21.6735 22.5036 22.4946C22.7571 22.1305 23.0106 21.7664 23.264 21.3987C24.6386 19.4137 26.0168 17.4324 27.3913 15.4474C28.9444 13.2662 30.5046 11.0742 31.9863 8.83935C32.479 8.09679 32.9074 7.21499 33.5394 6.5831C34.8854 5.23721 37.0704 5.23721 38.4164 6.5831C39.7624 7.929 39.7624 10.1103 38.4164 11.4562L38.4128 11.4633ZM41.5547 25.9433C41.1512 25.9433 40.7478 25.8969 40.3443 25.8219C39.6374 25.6934 36.0386 24.9472 34.9354 24.7473C32.2077 24.2547 29.4764 23.7584 26.7487 23.2658C25.3348 23.0087 23.9174 22.7517 22.5036 22.4982C22.9427 22.4197 23.3783 22.3411 23.8139 22.259C26.1881 21.8306 28.5659 21.3987 30.9402 20.9703C33.5822 20.524 36.2349 20.0777 38.8591 19.5458C39.7338 19.3709 40.6585 19.0496 41.5547 19.0496C43.4576 19.0496 45 20.5918 45 22.4982C45 24.4046 43.4576 25.9433 41.5547 25.9433ZM25.8275 4.6553C25.699 5.36216 24.9528 8.96073 24.7529 10.0639C24.2602 12.7914 23.7675 15.5224 23.2712 18.2499C23.0141 19.6636 22.7606 21.0809 22.5036 22.4946C22.425 22.0591 22.3465 21.62 22.2679 21.1845C21.8395 18.8104 21.4075 16.4328 20.9791 14.0587C20.5363 11.4169 20.0865 8.76438 19.5545 6.14042C19.376 5.26577 19.0582 4.34114 19.0582 3.44506C19.0582 1.54225 20.6006 0 22.5036 0C24.4065 0 25.9525 1.54225 25.9525 3.44506C25.9525 3.84848 25.9025 4.25189 25.8311 4.6553H25.8275Z" fill="#3C5A9A"/>
</svg>
