<svg width="20" height="20" viewBox="0 0 20 20" fill="none" xmlns="http://www.w3.org/2000/svg">
<path d="M9.99966 -0.000155576C9.83605 0.00686599 9.67666 0.0539612 9.53551 0.136992C9.39436 0.220023 9.27576 0.336449 9.19013 0.476041L4.85674 7.14279C4.78504 7.29129 4.7478 7.45407 4.7478 7.61898C4.7478 7.78389 4.78504 7.94667 4.85674 8.09518C4.93517 8.24104 5.05213 8.36258 5.19488 8.44655C5.33763 8.53052 5.50068 8.57369 5.66627 8.57138H14.2854C14.449 8.56435 14.6084 8.51726 14.7496 8.43423C14.8907 8.3512 15.0093 8.23477 15.095 8.09518C15.1891 7.95422 15.2394 7.78851 15.2394 7.61898C15.2394 7.44946 15.1891 7.28374 15.095 7.14279L10.8092 0.476041C10.7308 0.330179 10.6138 0.208642 10.4711 0.124674C10.3283 0.0407059 10.1653 -0.00247239 9.99966 -0.000155576Z" fill="#2A1E17"/>
<path d="M19.0476 19.5243H12.3809C12.1283 19.5243 11.886 19.424 11.7074 19.2453C11.5288 19.0667 11.4285 18.8245 11.4285 18.5719V11.9052C11.4285 11.6526 11.5288 11.4103 11.7074 11.2317C11.886 11.0531 12.1283 10.9528 12.3809 10.9528H19.0476C19.3002 10.9528 19.5424 11.0531 19.7211 11.2317C19.8997 11.4103 20 11.6526 20 11.9052V18.5719C20 18.8245 19.8997 19.0667 19.7211 19.2453C19.5424 19.424 19.3002 19.5243 19.0476 19.5243Z" fill="#2A1E17"/>
<path d="M4.76196 10.4763C3.82014 10.4763 2.89946 10.7556 2.11636 11.2789C1.33326 11.8021 0.722906 12.5458 0.362485 13.416C0.00206328 14.2861 -0.0922394 15.2436 0.0915019 16.1673C0.275243 17.091 0.728776 17.9395 1.39475 18.6055C2.06072 19.2715 2.90922 19.725 3.83295 19.9087C4.75668 20.0925 5.71415 19.9982 6.58429 19.6378C7.45442 19.2773 8.19814 18.667 8.72139 17.8839C9.24464 17.1008 9.52392 16.1801 9.52392 15.2383C9.52392 14.6129 9.40075 13.9937 9.16144 13.416C8.92213 12.8382 8.57137 12.3133 8.12918 11.8711C7.68699 11.4289 7.16203 11.0781 6.58429 10.8388C6.00654 10.5995 5.38731 10.4763 4.76196 10.4763Z" fill="#2A1E17"/>
</svg>
