<svg width="17" height="17" viewBox="0 0 17 17" fill="none" xmlns="http://www.w3.org/2000/svg">
<path d="M11.5188 3.08104L13.8989 5.43852M1 16L1.03993 15.7231C1.18123 14.7435 1.25188 14.2537 1.41259 13.7963C1.55519 13.3905 1.74999 13.0046 1.9922 12.6482C2.26515 12.2464 2.6184 11.8965 3.32489 11.1968L13.1268 1.48825C13.7842 0.83725 14.8498 0.83725 15.5071 1.48825C16.1643 2.13925 16.1643 3.19473 15.5071 3.84573L5.52521 13.7324C4.88427 14.3673 4.5638 14.6847 4.19877 14.937C3.87477 15.1611 3.52533 15.3467 3.15763 15.4901C2.74338 15.6516 2.29909 15.7404 1.4106 15.9179L1 16Z" stroke="#2A1E17" stroke-width="2" stroke-linecap="round" stroke-linejoin="round"/>
</svg>
