<svg width="15" height="15" viewBox="0 0 15 15" fill="none" xmlns="http://www.w3.org/2000/svg">
<path d="M7.5 7.14735C8.41165 7.14735 9.28596 6.77084 9.9306 6.10064C10.5752 5.43045 10.9374 4.52147 10.9374 3.57367C10.9374 2.62588 10.5752 1.7169 9.9306 1.0467C9.28596 0.376511 8.41165 0 7.5 0C6.58835 0 5.71404 0.376511 5.0694 1.0467C4.42477 1.7169 4.06261 2.62588 4.06261 3.57367C4.06261 4.52147 4.42477 5.43045 5.0694 6.10064C5.71404 6.77084 6.58835 7.14735 7.5 7.14735ZM7.5 8.71745C2.92977 8.71745 0 11.3395 0 12.6161V15H15V12.6161C15 11.0723 12.2264 8.71745 7.5 8.71745Z" fill="#2A1E17"/>
</svg>
