<svg width="25" height="25" viewBox="0 0 25 25" fill="none" xmlns="http://www.w3.org/2000/svg">
<path fill-rule="evenodd" clip-rule="evenodd" d="M21.7949 10.2564H15.0641V3.125C15.0641 1.39844 14.2258 0 12.5 0C10.7742 0 9.375 1.39844 9.375 3.125V10.2564H3.125C1.39922 10.2564 0 11.094 0 12.8205C0 14.5471 1.39922 15.625 3.125 15.625H9.375V21.875C9.375 23.6016 10.7742 25 12.5 25C14.2258 25 15.0641 23.6016 15.0641 21.875V15.3846L21.875 15.625C23.6008 15.625 25 14.5471 25 12.8205C25 11.094 23.5207 10.2564 21.7949 10.2564Z" fill="#FFF3DF"/>
</svg>
