<svg width="27" height="27" viewBox="0 0 27 27" fill="none" xmlns="http://www.w3.org/2000/svg">
<path d="M18.5625 10.125C21.3585 10.125 23.625 7.85843 23.625 5.0625C23.625 2.26657 21.3585 0 18.5625 0C15.7666 0 13.5 2.26657 13.5 5.0625C13.5 5.44001 13.5413 5.80785 13.6197 6.16179L8.21578 9.53922C7.35073 8.84964 6.25475 8.4375 5.0625 8.4375C2.26657 8.4375 0 10.7041 0 13.5C0 16.2959 2.26657 18.5625 5.0625 18.5625C6.25475 18.5625 7.35073 18.1504 8.21578 17.4607L13.6197 20.8383C13.5413 21.1921 13.5 21.56 13.5 21.9375C13.5 24.7335 15.7666 27 18.5625 27C21.3585 27 23.625 24.7335 23.625 21.9375C23.625 19.1415 21.3585 16.875 18.5625 16.875C17.3703 16.875 16.2743 17.2871 15.4092 17.9768L10.0053 14.5993C10.0837 14.2454 10.125 13.8775 10.125 13.5C10.125 13.1225 10.0837 12.7546 10.0053 12.4007L15.4092 9.02328C16.2743 9.71286 17.3703 10.125 18.5625 10.125Z" fill="#2A1E17"/>
</svg>
