<svg width="22" height="18" viewBox="0 0 22 18" fill="none" xmlns="http://www.w3.org/2000/svg">
<path d="M19 0H3C2.20435 0 1.44129 0.316071 0.87868 0.87868C0.31607 1.44129 0 2.20435 0 3V15C0 15.7956 0.31607 16.5587 0.87868 17.1213C1.44129 17.6839 2.20435 18 3 18H19C19.7956 18 20.5587 17.6839 21.1213 17.1213C21.6839 16.5587 22 15.7956 22 15V3C22 2.20435 21.6839 1.44129 21.1213 0.87868C20.5587 0.316071 19.7956 0 19 0ZM20 15C20 15.2652 19.8946 15.5196 19.7071 15.7071C19.5196 15.8946 19.2652 16 19 16H3C2.73478 16 2.48043 15.8946 2.29289 15.7071C2.10536 15.5196 2 15.2652 2 15V3C2 2.73478 2.10536 2.48043 2.29289 2.29289C2.48043 2.10536 2.73478 2 3 2H19C19.2652 2 19.5196 2.10536 19.7071 2.29289C19.8946 2.48043 20 2.73478 20 3V15ZM8 9V13C8 13.2652 7.89464 13.5196 7.70711 13.7071C7.51957 13.8946 7.26522 14 7 14C6.73478 14 6.48043 13.8946 6.29289 13.7071C6.10536 13.5196 6 13.2652 6 13V9C6 8.73478 6.10536 8.48043 6.29289 8.29289C6.48043 8.10536 6.73478 8 7 8C7.26522 8 7.51957 8.10536 7.70711 8.29289C7.89464 8.48043 8 8.73478 8 9ZM12 7V13C12 13.2652 11.8946 13.5196 11.7071 13.7071C11.5196 13.8946 11.2652 14 11 14C10.7348 14 10.4804 13.8946 10.2929 13.7071C10.1054 13.5196 10 13.2652 10 13V7C10 6.73478 10.1054 6.48043 10.2929 6.29289C10.4804 6.10536 10.7348 6 11 6C11.2652 6 11.5196 6.10536 11.7071 6.29289C11.8946 6.48043 12 6.73478 12 7ZM16 5V13C16 13.2652 15.8946 13.5196 15.7071 13.7071C15.5196 13.8946 15.2652 14 15 14C14.7348 14 14.4804 13.8946 14.2929 13.7071C14.1054 13.5196 14 13.2652 14 13V5C14 4.73478 14.1054 4.48043 14.2929 4.29289C14.4804 4.10536 14.7348 4 15 4C15.2652 4 15.5196 4.10536 15.7071 4.29289C15.8946 4.48043 16 4.73478 16 5Z" fill="#2A1E17"/>
</svg>
