<svg width="24" height="24" viewBox="0 0 24 24" fill="none" xmlns="http://www.w3.org/2000/svg">
<path d="M14.2837 17.7429L12.0612 15.5389C11.0398 14.526 10.529 14.0195 9.94093 13.8295C9.42367 13.6623 8.86694 13.6623 8.34958 13.8295C7.76157 14.0195 7.25081 14.526 6.2293 15.5389L1.05426 20.7511M14.2837 17.7429L14.7254 17.3047C15.7685 16.2705 16.2899 15.7533 16.8883 15.5646C17.4145 15.3986 17.9799 15.4051 18.5022 15.5832C19.0959 15.7857 19.6054 16.3146 20.6243 17.3725L21.7059 18.4707M14.2837 17.7429L19.4024 22.9519M1.05426 20.7511C1.094 21.0881 1.16284 21.3527 1.2821 21.5868C1.53024 22.0738 1.9262 22.4698 2.4132 22.7179C2.96685 23 3.69162 23 5.14118 23H17.5647C18.3687 23 18.9498 23 19.4024 22.9519M1.05426 20.7511C1 20.2909 1 19.6956 1 18.8588V6.43529C1 4.98575 1 4.26097 1.2821 3.70732C1.53024 3.2203 1.9262 2.82436 2.4132 2.57622C2.96685 2.29412 3.69162 2.29412 5.14118 2.29412H10.0588M19.4024 22.9519C19.7656 22.9132 20.0462 22.8435 20.2927 22.7179C20.7797 22.4698 21.1757 22.0738 21.4238 21.5868C21.7059 21.0332 21.7059 20.3084 21.7059 18.8588V13.9412M19.1176 8.76471V4.88235M19.1176 4.88235V1M19.1176 4.88235H23M19.1176 4.88235H15.2353" stroke="#352D24" stroke-width="1.52" stroke-linecap="round" stroke-linejoin="round"/>
</svg>
