<svg width="1440" height="1028" viewBox="0 0 1440 1028" fill="none" xmlns="http://www.w3.org/2000/svg">
<g filter="url(#filter0_d_672_158)">
<path d="M173.5 895C277.053 895 361 963.724 361 1048.5C361 1133.28 277.053 1202 173.5 1202C69.9466 1202 -14 1133.28 -14 1048.5C-14 963.724 69.9466 895 173.5 895Z" fill="url(#paint0_linear_672_158)"/>
</g>
<g filter="url(#filter1_d_672_158)">
<path d="M329 62C329 176.875 221.772 270 89.5 270C-42.7722 270 -150 176.875 -150 62C-150 -52.8752 -42.7722 -146 89.5 -146C221.772 -146 329 -52.8752 329 62Z" fill="url(#paint1_linear_672_158)"/>
</g>
<g filter="url(#filter2_d_672_158)">
<path d="M295.115 877.476C310.021 898.173 305.064 927.225 284.043 942.364C263.021 957.504 233.896 952.998 218.99 932.301C204.084 911.604 209.041 882.552 230.063 867.413C251.084 852.273 280.209 856.778 295.115 877.476Z" fill="url(#paint2_linear_672_158)"/>
</g>
<g filter="url(#filter3_d_672_158)">
<path d="M44.5003 491.193C69.2381 525.542 63.6137 571.88 31.9377 594.693C0.261833 617.506 -45.4705 608.155 -70.2083 573.807C-94.9461 539.458 -89.3216 493.12 -57.6457 470.307C-25.9698 447.494 19.7626 456.845 44.5003 491.193Z" fill="url(#paint3_linear_672_158)"/>
</g>
<g filter="url(#filter4_d_672_158)">
<path d="M1597.56 872.272C1627.15 962.445 1541.67 1071.46 1406.64 1115.77C1271.62 1160.08 1138.17 1122.9 1108.58 1032.73C1078.99 942.555 1164.46 833.536 1299.49 789.228C1434.52 744.919 1567.97 782.099 1597.56 872.272Z" fill="url(#paint4_linear_672_158)"/>
</g>
<g filter="url(#filter5_d_672_158)">
<path d="M1644.66 176.269C1658.16 258.708 1601.23 336.654 1517.5 350.368C1433.77 364.081 1354.95 308.368 1341.45 225.929C1327.95 143.49 1384.88 65.5431 1468.61 51.8299C1552.34 38.1167 1631.16 93.8299 1644.66 176.269Z" fill="url(#paint5_linear_672_158)"/>
</g>
<g filter="url(#filter6_d_672_158)">
<path d="M1364.55 61.6701C1386.39 59.6432 1405.65 74.7251 1407.57 95.3566C1409.48 115.988 1393.33 134.356 1371.48 136.383C1349.64 138.41 1330.38 123.328 1328.47 102.697C1326.55 82.0654 1342.71 63.6971 1364.55 61.6701Z" fill="url(#paint6_linear_672_158)"/>
</g>
<defs>
<filter id="filter0_d_672_158" x="-17" y="890" width="383" height="315" filterUnits="userSpaceOnUse" color-interpolation-filters="sRGB">
<feFlood flood-opacity="0" result="BackgroundImageFix"/>
<feColorMatrix in="SourceAlpha" type="matrix" values="0 0 0 0 0 0 0 0 0 0 0 0 0 0 0 0 0 0 127 0" result="hardAlpha"/>
<feOffset dx="1" dy="-1"/>
<feGaussianBlur stdDeviation="2"/>
<feComposite in2="hardAlpha" operator="out"/>
<feColorMatrix type="matrix" values="0 0 0 0 0 0 0 0 0 0 0 0 0 0 0 0 0 0 0.1 0"/>
<feBlend mode="normal" in2="BackgroundImageFix" result="effect1_dropShadow_672_158"/>
<feBlend mode="normal" in="SourceGraphic" in2="effect1_dropShadow_672_158" result="shape"/>
</filter>
<filter id="filter1_d_672_158" x="-153" y="-146" width="489" height="426" filterUnits="userSpaceOnUse" color-interpolation-filters="sRGB">
<feFlood flood-opacity="0" result="BackgroundImageFix"/>
<feColorMatrix in="SourceAlpha" type="matrix" values="0 0 0 0 0 0 0 0 0 0 0 0 0 0 0 0 0 0 127 0" result="hardAlpha"/>
<feOffset dx="2" dy="5"/>
<feGaussianBlur stdDeviation="2.5"/>
<feComposite in2="hardAlpha" operator="out"/>
<feColorMatrix type="matrix" values="0 0 0 0 0 0 0 0 0 0 0 0 0 0 0 0 0 0 0.1 0"/>
<feBlend mode="normal" in2="BackgroundImageFix" result="effect1_dropShadow_672_158"/>
<feBlend mode="normal" in="SourceGraphic" in2="effect1_dropShadow_672_158" result="shape"/>
</filter>
<filter id="filter2_d_672_158" x="206.388" y="858.454" width="101.329" height="100.869" filterUnits="userSpaceOnUse" color-interpolation-filters="sRGB">
<feFlood flood-opacity="0" result="BackgroundImageFix"/>
<feColorMatrix in="SourceAlpha" type="matrix" values="0 0 0 0 0 0 0 0 0 0 0 0 0 0 0 0 0 0 127 0" result="hardAlpha"/>
<feOffset dy="4"/>
<feGaussianBlur stdDeviation="2"/>
<feComposite in2="hardAlpha" operator="out"/>
<feColorMatrix type="matrix" values="0 0 0 0 0 0 0 0 0 0 0 0 0 0 0 0 0 0 0.05 0"/>
<feBlend mode="normal" in2="BackgroundImageFix" result="effect1_dropShadow_672_158"/>
<feBlend mode="normal" in="SourceGraphic" in2="effect1_dropShadow_672_158" result="shape"/>
</filter>
<filter id="filter3_d_672_158" x="-89.6294" y="457.831" width="153.551" height="157.338" filterUnits="userSpaceOnUse" color-interpolation-filters="sRGB">
<feFlood flood-opacity="0" result="BackgroundImageFix"/>
<feColorMatrix in="SourceAlpha" type="matrix" values="0 0 0 0 0 0 0 0 0 0 0 0 0 0 0 0 0 0 127 0" result="hardAlpha"/>
<feOffset dy="4"/>
<feGaussianBlur stdDeviation="2"/>
<feComposite in2="hardAlpha" operator="out"/>
<feColorMatrix type="matrix" values="0 0 0 0 0 0 0 0 0 0 0 0 0 0 0 0 0 0 0.05 0"/>
<feBlend mode="normal" in2="BackgroundImageFix" result="effect1_dropShadow_672_158"/>
<feBlend mode="normal" in="SourceGraphic" in2="effect1_dropShadow_672_158" result="shape"/>
</filter>
<filter id="filter4_d_672_158" x="1098.72" y="770.541" width="508.689" height="371.919" filterUnits="userSpaceOnUse" color-interpolation-filters="sRGB">
<feFlood flood-opacity="0" result="BackgroundImageFix"/>
<feColorMatrix in="SourceAlpha" type="matrix" values="0 0 0 0 0 0 0 0 0 0 0 0 0 0 0 0 0 0 127 0" result="hardAlpha"/>
<feOffset dy="4"/>
<feGaussianBlur stdDeviation="2"/>
<feComposite in2="hardAlpha" operator="out"/>
<feColorMatrix type="matrix" values="0 0 0 0 0 0 0 0 0 0 0 0 0 0 0 0 0 0 0.05 0"/>
<feBlend mode="normal" in2="BackgroundImageFix" result="effect1_dropShadow_672_158"/>
<feBlend mode="normal" in="SourceGraphic" in2="effect1_dropShadow_672_158" result="shape"/>
</filter>
<filter id="filter5_d_672_158" x="1336.47" y="44.7553" width="315.175" height="310.687" filterUnits="userSpaceOnUse" color-interpolation-filters="sRGB">
<feFlood flood-opacity="0" result="BackgroundImageFix"/>
<feColorMatrix in="SourceAlpha" type="matrix" values="0 0 0 0 0 0 0 0 0 0 0 0 0 0 0 0 0 0 127 0" result="hardAlpha"/>
<feOffset dx="1" dy="-1"/>
<feGaussianBlur stdDeviation="2"/>
<feComposite in2="hardAlpha" operator="out"/>
<feColorMatrix type="matrix" values="0 0 0 0 0 0 0 0 0 0 0 0 0 0 0 0 0 0 0.1 0"/>
<feBlend mode="normal" in2="BackgroundImageFix" result="effect1_dropShadow_672_158"/>
<feBlend mode="normal" in="SourceGraphic" in2="effect1_dropShadow_672_158" result="shape"/>
</filter>
<filter id="filter6_d_672_158" x="1324.31" y="61.4875" width="87.4102" height="83.0784" filterUnits="userSpaceOnUse" color-interpolation-filters="sRGB">
<feFlood flood-opacity="0" result="BackgroundImageFix"/>
<feColorMatrix in="SourceAlpha" type="matrix" values="0 0 0 0 0 0 0 0 0 0 0 0 0 0 0 0 0 0 127 0" result="hardAlpha"/>
<feOffset dy="4"/>
<feGaussianBlur stdDeviation="2"/>
<feComposite in2="hardAlpha" operator="out"/>
<feColorMatrix type="matrix" values="0 0 0 0 0 0 0 0 0 0 0 0 0 0 0 0 0 0 0.08 0"/>
<feBlend mode="normal" in2="BackgroundImageFix" result="effect1_dropShadow_672_158"/>
<feBlend mode="normal" in="SourceGraphic" in2="effect1_dropShadow_672_158" result="shape"/>
</filter>
<linearGradient id="paint0_linear_672_158" x1="-37.4974" y1="1066.93" x2="337.503" y2="1066.93" gradientUnits="userSpaceOnUse">
<stop offset="0.357392" stop-color="#FFF6E3"/>
<stop offset="1" stop-color="#FCB3B4"/>
</linearGradient>
<linearGradient id="paint1_linear_672_158" x1="60.7436" y1="-172.066" x2="60.7436" y2="243.934" gradientUnits="userSpaceOnUse">
<stop offset="0.357392" stop-color="#FFF6E3"/>
<stop offset="1" stop-color="#FCB3CB"/>
</linearGradient>
<linearGradient id="paint2_linear_672_158" x1="222.11" y1="866.008" x2="276.09" y2="940.959" gradientUnits="userSpaceOnUse">
<stop offset="0.197115" stop-color="#FFF6E3"/>
<stop offset="1" stop-color="#FEA757"/>
</linearGradient>
<linearGradient id="paint3_linear_672_158" x1="-70.1454" y1="467.472" x2="19.438" y2="591.859" gradientUnits="userSpaceOnUse">
<stop offset="0.197115" stop-color="#FFF6E3"/>
<stop offset="1" stop-color="#FABAB0"/>
</linearGradient>
<linearGradient id="paint4_linear_672_158" x1="1263.42" y1="778.399" x2="1370.57" y2="1104.94" gradientUnits="userSpaceOnUse">
<stop offset="0.197115" stop-color="#FFF6E3"/>
<stop offset="1" stop-color="#FBC0D3"/>
</linearGradient>
<linearGradient id="paint5_linear_672_158" x1="1447.34" y1="36.1049" x2="1496.23" y2="334.642" gradientUnits="userSpaceOnUse">
<stop offset="0.357392" stop-color="#FFF6E3"/>
<stop offset="1" stop-color="#FAD8B0"/>
</linearGradient>
<linearGradient id="paint6_linear_672_158" x1="1323.93" y1="107.642" x2="1403.03" y2="100.302" gradientUnits="userSpaceOnUse">
<stop offset="0.197115" stop-color="#FFF6E3"/>
<stop offset="1" stop-color="#FFD5E3"/>
</linearGradient>
</defs>
</svg>
