<svg width="1342" height="784" viewBox="0 0 1342 784" fill="none" xmlns="http://www.w3.org/2000/svg">
<mask id="mask0_458_539" style="mask-type:luminance" maskUnits="userSpaceOnUse" x="-290" y="0" width="1405" height="784">
<path d="M1114.88 -3.05176e-05H-290V783.539H1114.88V-3.05176e-05Z" fill="white"/>
</mask>
<g mask="url(#mask0_458_539)">
<path d="M836.919 331.995C786.343 284.401 727.096 272.125 711.432 269.616C721.978 241.052 738.279 198.582 742.339 192.291C743.646 192.114 746.313 191.838 750.255 191.838C761.761 191.838 786.384 194.241 822.007 210.335C873.447 233.574 887.218 259.72 889.924 266.113L836.919 331.995Z" fill="white"/>
<path d="M750.255 194.974C761.511 194.974 785.634 197.34 820.725 213.193C867.266 234.218 882.304 257.721 886.265 265.671L836.585 327.42C806.687 300.094 774.462 285 752.178 277.055C736.371 271.419 723.432 268.534 715.679 267.133C727.333 235.69 740.018 203.32 744.275 195.226C745.658 195.098 747.66 194.974 750.255 194.974ZM750.255 188.706C743.995 188.706 740.78 189.369 740.78 189.369C737.124 190.593 707.159 272.178 707.159 272.178C707.159 272.178 778.284 279.462 837.219 336.61L893.475 266.687C893.475 266.687 884.087 234.944 823.287 207.478C787.659 191.381 762.825 188.706 750.255 188.706Z" fill="#A0C6F4"/>
<path d="M717.602 278.514C717.602 278.514 787.537 285.606 830.63 325.319" stroke="#2A1E17" stroke-miterlimit="10" stroke-linecap="round" stroke-linejoin="round"/>
<path d="M777.992 275.089L804.082 224.161L830.897 277.272L777.992 275.089Z" fill="#A0C6F4"/>
<path d="M783.065 274.362L809.155 223.434L835.97 276.545L783.065 274.362Z" stroke="#2A1E17" stroke-miterlimit="10" stroke-linecap="round" stroke-linejoin="round"/>
<path d="M758.573 185.611C758.573 185.611 836.986 192.702 885.729 250.856" stroke="#2A1E17" stroke-miterlimit="10" stroke-linecap="round" stroke-linejoin="round"/>
</g>
<mask id="mask1_458_539" style="mask-type:luminance" maskUnits="userSpaceOnUse" x="-290" y="0" width="1405" height="784">
<path d="M1114.88 -3.05176e-05H-290V783.539H1114.88V-3.05176e-05Z" fill="white"/>
</mask>
<g mask="url(#mask1_458_539)">
<path d="M798.638 411.298C794.332 408.12 791.505 405.988 791.505 405.988C792.7 404.391 811.57 384.208 822.494 367.947C822.494 367.947 800.4 412.599 798.638 411.298Z" fill="#2A1E17"/>
</g>
<mask id="mask2_458_539" style="mask-type:luminance" maskUnits="userSpaceOnUse" x="-290" y="0" width="1405" height="784">
<path d="M1114.88 -3.05176e-05H-290V783.539H1114.88V-3.05176e-05Z" fill="white"/>
</mask>
<g mask="url(#mask2_458_539)">
<path d="M531.263 264.197C533.364 267.713 534.299 266.306 540.37 265.838C546.441 265.369 555.081 269.823 558.115 277.324C561.15 284.826 560.216 285.998 558.582 286.935C556.948 287.872 545.273 289.279 544.806 291.624" stroke="#2A1E17" stroke-miterlimit="10" stroke-linecap="round" stroke-linejoin="round"/>
</g>
<mask id="mask3_458_539" style="mask-type:luminance" maskUnits="userSpaceOnUse" x="-290" y="0" width="1405" height="784">
<path d="M1114.88 -3.05176e-05H-290V783.539H1114.88V-3.05176e-05Z" fill="white"/>
</mask>
<g mask="url(#mask3_458_539)">
<path d="M688.566 645.719L683.126 636.489L663.828 668.782L668.893 672.693L688.566 645.719Z" fill="#F9865F"/>
<path d="M560.419 565.642C560.419 565.642 550.42 549.319 554.709 541.321L586.612 544.746L560.419 565.642Z" fill="#F9865F"/>
<path d="M560.419 565.642L562.33 570.05L556.437 593.123C555.696 596.029 556.656 599.105 558.917 601.065L588.094 557.767C590.866 553.653 590.235 548.126 586.612 544.748L580.092 538.669L560.419 565.642Z" fill="black"/>
<path d="M544.806 291.622C553.943 291.404 565.52 290.823 563.206 283.849C560.891 276.876 552.207 259.441 532.524 264.672C532.524 264.672 525.578 270.484 534.262 280.944C542.944 291.404 544.806 291.622 544.806 291.622Z" fill="#2A1E33"/>
<path d="M591.05 545.133C591.05 545.133 575.454 498.906 588.651 478.611C599.543 461.86 635.126 489.105 640.003 492.777L665.462 446.616C665.462 446.616 659.585 438.343 645.154 430.243C630.724 422.143 571.112 397.887 543.097 442.259C532.743 458.659 532.585 529.033 552.441 556.002L591.05 545.133Z" fill="#7595EC"/>
<path d="M591.05 545.133C591.05 545.133 575.454 498.906 588.651 478.611C599.543 461.86 635.126 489.105 640.003 492.777" stroke="#2A1E17" stroke-miterlimit="10" stroke-linecap="round" stroke-linejoin="round"/>
<path d="M665.462 446.616C653.883 458.851 619.552 518.463 611.831 546.954C601.505 585.064 605.388 616.67 662.145 678.559L689.579 638.443C689.579 638.443 670.29 609.037 673.891 581.319C679.102 541.219 707.527 502.336 721.91 477.674L665.462 446.616Z" fill="#7595EC"/>
<path d="M669.82 451.796L715.457 487.753L729.095 466.936L669.82 451.796Z" fill="#2A1E17"/>
<path d="M931.939 413.991C939.055 415.522 944.478 418.244 948.206 422.155C951.934 426.067 950.24 428.108 948.883 429.299C947.528 430.49 942.276 429.129 937.701 425.046C933.125 420.964 931.939 413.991 931.939 413.991Z" fill="#FF8A66"/>
<path d="M791.505 405.989C792.699 404.392 811.57 384.21 822.494 367.948C822.494 367.948 855.515 405.093 859.095 406.292C860.427 406.737 868.522 406.63 878.576 406.527C895.566 406.35 918.15 406.18 923.15 408.689C931.107 412.684 935.882 414.68 937.87 420.271C939.859 425.863 940.643 429.516 935.882 429.857C930.312 430.257 926.731 423.067 926.731 423.067C926.731 423.067 922.181 425.827 910.419 430.257C910.419 430.257 868.104 446.749 839.819 438.772C832.097 436.593 791.505 405.989 791.505 405.989Z" fill="#F9865F"/>
<path d="M535 257.634C531.369 259.022 529.162 260.682 531.265 264.197C533.366 267.713 534.301 266.306 540.372 265.837C546.442 265.369 555.082 269.823 558.117 277.324C561.151 284.826 560.218 285.998 558.583 286.935C556.949 287.872 545.275 289.279 544.808 291.624C544.341 293.968 549.539 300.887 560.279 300.418L562.847 299.95C562.847 299.95 585.436 322.097 588.704 325.379C591.973 328.66 615.998 345 629.23 348.321C639.289 350.845 659.666 347.589 671.914 345.19C677.861 344.025 681.89 343.063 681.89 343.063C681.89 343.063 672.701 326.444 670.832 300.895C670.832 300.895 648.847 304.441 634.236 307.658C634.236 307.658 600.143 288.577 583.565 280.139C583.565 280.139 569.089 262.324 562.317 259.98C555.547 257.634 539.903 255.758 535 257.634Z" fill="#F9865F"/>
<path d="M671.914 345.19C677.861 344.025 681.89 343.063 681.89 343.063C681.89 343.063 670.774 328.995 668.906 303.446C668.906 303.446 663.881 308.884 665.443 323.354C667.409 341.54 671.914 345.19 671.914 345.19Z" fill="#2A1E17"/>
<path d="M668.369 300.584C668.369 300.584 668.676 331.808 677.009 344.832L679.998 343.632C679.998 343.632 640.73 389.75 628.031 419.881C625.954 424.813 709.558 478.426 721.91 477.674C721.91 477.674 762.644 415.26 776.577 396.758L791.55 408.406C791.55 408.406 820.919 378.548 822.497 367.945C822.497 367.945 794.13 333.292 770.923 323.147C747.716 313.002 726.98 295.62 702.051 296.092C680.469 296.502 668.369 300.584 668.369 300.584Z" fill="#FFF7C9"/>
<path d="M791.549 408.407L776.576 396.759L778.961 390.234L791.549 408.407Z" fill="#2A1E17"/>
<path d="M814.325 284.945C811.704 293.13 804.134 316.81 795.689 319.734C787.244 322.658 778.452 318.986 778.452 318.986L769.456 323.608C768.453 326.631 761.353 329.234 752.186 329.588C745.397 329.849 741.263 321.099 743.272 314.763C744.195 311.855 747.64 297.516 747.64 297.516C747.64 297.516 754.92 270.62 761.617 265.066C768.315 259.513 774.609 254.011 792.484 261.266C819.857 272.375 814.325 284.945 814.325 284.945Z" fill="#F9865F"/>
<path d="M760.059 286.111C758.857 291.138 753.65 301.191 750.246 299.381C746.841 297.571 745.639 292.946 748.043 284.1C750.447 275.254 752.45 255.148 759.259 251.528C766.068 247.91 769.072 252.132 769.072 252.132C769.072 252.132 766.069 237.455 774.881 235.444C774.881 235.444 777.884 234.037 776.684 244.09C776.684 244.09 780.088 234.841 791.104 236.047C802.12 237.254 805.924 252.735 805.924 252.735C805.924 252.735 806.725 248.513 811.732 248.513C816.739 248.513 824.35 255.952 822.547 264.195C822.547 264.195 835.361 260.169 842.173 270.427C848.982 280.681 848.181 291.94 831.758 296.364C814.588 300.989 814.734 280.883 812.132 278.269C809.528 275.655 806.725 272.64 797.111 276.259C787.498 279.877 777.485 269.221 777.485 269.221C777.485 269.221 775.883 282.088 774.28 283.295C772.678 284.501 769.474 286.109 770.274 280.078C771.075 274.046 772.077 274.649 771.476 273.04C770.875 271.43 768.165 266.356 762.465 270.829C756.054 275.857 760.059 286.111 760.059 286.111Z" fill="#2A1E33"/>
<path d="M762.785 288.363C758.965 285.141 756.316 279.465 759.678 273.789C763.041 268.113 768.542 267.347 770.221 269.493C771.901 271.64 772.552 275.262 770.972 279.556" stroke="#2A1E33" stroke-miterlimit="10" stroke-linecap="round" stroke-linejoin="round"/>
<path d="M668.893 672.693L670.804 677.101L664.911 700.175C664.17 703.08 665.13 706.157 667.392 708.117L696.568 664.819C699.34 660.705 698.71 655.178 695.086 651.799L688.566 645.721L668.893 672.693Z" fill="black"/>
<path d="M769.071 252.132C769.071 252.132 766.837 244.836 760.14 242.916" stroke="#2A1E33" stroke-miterlimit="10" stroke-linecap="round" stroke-linejoin="round"/>
<path d="M627.115 417.68L707.946 304.328" stroke="#2A1E17" stroke-miterlimit="10" stroke-linecap="round" stroke-linejoin="round"/>
<path d="M741.262 312.257C738.351 316.059 737.024 332.416 750.422 333.479C763.819 334.541 772.385 328.632 772.385 328.632" stroke="#2A1E17" stroke-miterlimit="10" stroke-linecap="round" stroke-linejoin="round"/>
<path d="M562.319 259.977C562.319 259.977 571.558 272.253 573.01 276.627" stroke="#2A1E17" stroke-miterlimit="10" stroke-linecap="round" stroke-linejoin="round"/>
<path d="M908.265 424.565C908.265 424.565 914.438 429.668 926.731 423.066C931.189 420.671 928.014 415.006 922.371 416.423C916.728 417.839 910.027 415.714 910.027 415.714" stroke="#2A1E17" stroke-miterlimit="10" stroke-linecap="round" stroke-linejoin="round"/>
<path d="M934.056 414.699C934.056 414.699 939.98 421.635 939.817 425.756" stroke="#2A1E17" stroke-miterlimit="10" stroke-linecap="round" stroke-linejoin="round"/>
<path d="M846.898 413.944C846.898 413.944 852.252 406.781 859.097 406.29" stroke="#2A1E17" stroke-miterlimit="10" stroke-linecap="round" stroke-linejoin="round"/>
<path d="M621.094 319.229C621.094 319.229 624.221 309.452 634.238 307.657" stroke="#2A1E17" stroke-miterlimit="10" stroke-linecap="round" stroke-linejoin="round"/>
<path d="M648.237 467.593L636.288 490.541C636.288 490.541 596.887 557.479 610.255 600.724" stroke="#2A1E17" stroke-miterlimit="10" stroke-linecap="round" stroke-linejoin="round"/>
<path d="M683.144 544.389L721.91 477.675C721.91 477.675 772.72 403.693 777.92 393.255L795.851 359.953" stroke="#2A1E17" stroke-miterlimit="10" stroke-linecap="round" stroke-linejoin="round"/>
<path d="M632.529 424.785C632.529 424.785 701.468 475.243 721.911 477.674" stroke="#2A1E17" stroke-miterlimit="10" stroke-linecap="round" stroke-linejoin="round"/>
<path d="M668.369 300.584C668.369 300.584 668.306 332.25 676.81 345.232" stroke="#2A1E17" stroke-miterlimit="10" stroke-linecap="round" stroke-linejoin="round"/>
<path d="M820.282 362.929C818.117 375.981 789.335 403.389 789.335 403.389" stroke="#2A1E17" stroke-miterlimit="10" stroke-linecap="round" stroke-linejoin="round"/>
</g>
<mask id="mask4_458_539" style="mask-type:luminance" maskUnits="userSpaceOnUse" x="-290" y="0" width="1405" height="784">
<path d="M1114.88 -3.05176e-05H-290V783.539H1114.88V-3.05176e-05Z" fill="white"/>
</mask>
<g mask="url(#mask4_458_539)">
<path d="M605.553 525.478C607.815 525.478 609.648 523.637 609.648 521.367C609.648 519.097 607.815 517.257 605.553 517.257C603.292 517.257 601.459 519.097 601.459 521.367C601.459 523.637 603.292 525.478 605.553 525.478Z" fill="#2A1E17"/>
</g>
<mask id="mask5_458_539" style="mask-type:luminance" maskUnits="userSpaceOnUse" x="-290" y="0" width="1405" height="784">
<path d="M1114.88 -3.05176e-05H-290V783.539H1114.88V-3.05176e-05Z" fill="white"/>
</mask>
<g mask="url(#mask5_458_539)">
<path d="M989.619 609.675L987.357 593.956L1000.71 602.869L993.723 604.399L989.619 609.675Z" stroke="#2A1E17" stroke-miterlimit="10" stroke-linecap="round" stroke-linejoin="round"/>
<path d="M546.704 341.336C521.398 318.919 479.579 374.818 632.605 552.741C720.88 655.379 790.239 664.582 799.635 628.875C816.49 564.813 755.615 548.618 778.267 573.71C811.203 610.197 904.892 617.905 974.703 583.857C1043.59 550.262 1001.25 498.09 996.971 495.046" stroke="#2A1E17" stroke-miterlimit="10" stroke-linecap="round" stroke-linejoin="round"/>
<path d="M975.805 587.647C978.067 587.647 979.9 585.806 979.9 583.536C979.9 581.266 978.067 579.426 975.805 579.426C973.544 579.426 971.711 581.266 971.711 583.536C971.711 585.806 973.544 587.647 975.805 587.647Z" fill="#2A1E17"/>
<path d="M916.238 617.078L1037.58 548.419" stroke="#2A1E17" stroke-miterlimit="10" stroke-linecap="round" stroke-linejoin="round"/>
<path d="M549.228 348.769C551.49 348.769 553.323 346.929 553.323 344.658C553.323 342.388 551.49 340.548 549.228 340.548C546.967 340.548 545.134 342.388 545.134 344.658C545.134 346.929 546.967 348.769 549.228 348.769Z" fill="#2A1E17"/>
</g>
<mask id="mask6_458_539" style="mask-type:luminance" maskUnits="userSpaceOnUse" x="-290" y="0" width="1405" height="784">
<path d="M1114.88 -3.05176e-05H-290V783.539H1114.88V-3.05176e-05Z" fill="white"/>
</mask>
<g mask="url(#mask6_458_539)">
<path d="M653.607 268.63C658.457 268.63 662.389 264.683 662.389 259.814C662.389 254.945 658.457 250.997 653.607 250.997C648.757 250.997 644.825 254.945 644.825 259.814C644.825 264.683 648.757 268.63 653.607 268.63Z" fill="#FF6D66"/>
</g>
<mask id="mask7_458_539" style="mask-type:luminance" maskUnits="userSpaceOnUse" x="-290" y="0" width="1405" height="784">
<path d="M1114.88 -3.05176e-05H-290V783.539H1114.88V-3.05176e-05Z" fill="white"/>
</mask>
<g mask="url(#mask7_458_539)">
<path d="M494.245 192.569C492.112 192.569 490.384 194.304 490.384 196.444C490.384 198.585 492.112 200.32 494.245 200.32C496.377 200.32 498.105 198.585 498.105 196.444C498.105 194.304 496.377 192.569 494.245 192.569Z" fill="#A0C6F4"/>
</g>
<mask id="mask8_458_539" style="mask-type:luminance" maskUnits="userSpaceOnUse" x="-290" y="0" width="1405" height="784">
<path d="M1114.88 -3.05176e-05H-290V783.539H1114.88V-3.05176e-05Z" fill="white"/>
</mask>
<g mask="url(#mask8_458_539)">
<path d="M1011.55 673.942C1013.68 673.942 1015.41 672.207 1015.41 670.067C1015.41 667.927 1013.68 666.192 1011.55 666.192C1009.42 666.192 1007.69 667.927 1007.69 670.067C1007.69 672.207 1009.42 673.942 1011.55 673.942Z" fill="#FAD8B0"/>
</g>
<mask id="mask9_458_539" style="mask-type:luminance" maskUnits="userSpaceOnUse" x="-290" y="0" width="1405" height="784">
<path d="M1114.88 -3.05176e-05H-290V783.539H1114.88V-3.05176e-05Z" fill="white"/>
</mask>
<g mask="url(#mask9_458_539)">
<path d="M942.571 495.027L901.067 475.475C897.719 473.897 897.777 469.095 901.163 467.6L978.377 433.495C979.469 433.012 980.713 433.006 981.811 433.479L1034.85 456.333L942.571 495.027Z" fill="#2A1E33"/>
<path d="M940 430.768C940.106 448.009 942.571 495.027 942.571 495.027L1034.85 456.332L1032.78 390.901C1032.65 386.886 1028.49 384.294 1024.85 385.96L945.401 422.307C942.096 423.819 939.976 427.123 940 430.768Z" fill="#C6CBCB"/>
<path d="M942.57 495.027L1034.85 456.332L1032.78 390.901C1032.78 390.901 1032.16 383.757 1024.85 385.96" stroke="#2A1E17" stroke-miterlimit="10" stroke-linecap="round" stroke-linejoin="round"/>
<path d="M987.233 448.001L993.463 433.219" stroke="#2A1E17" stroke-miterlimit="10" stroke-linecap="round" stroke-linejoin="round"/>
<path d="M993.463 448.001L999.693 433.219" stroke="#2A1E17" stroke-miterlimit="10" stroke-linecap="round" stroke-linejoin="round"/>
</g>
<mask id="mask10_458_539" style="mask-type:luminance" maskUnits="userSpaceOnUse" x="-290" y="0" width="1405" height="784">
<path d="M1114.88 -3.05176e-05H-290V783.539H1114.88V-3.05176e-05Z" fill="white"/>
</mask>
<g mask="url(#mask10_458_539)">
<path d="M510.89 609.26C513.022 609.26 514.75 607.525 514.75 605.384C514.75 603.244 513.022 601.509 510.89 601.509C508.758 601.509 507.029 603.244 507.029 605.384C507.029 607.525 508.758 609.26 510.89 609.26Z" fill="#FF6D66"/>
</g>
<mask id="mask11_458_539" style="mask-type:luminance" maskUnits="userSpaceOnUse" x="-290" y="0" width="1405" height="784">
<path d="M1114.88 -3.05176e-05H-290V783.539H1114.88V-3.05176e-05Z" fill="white"/>
</mask>
<g mask="url(#mask11_458_539)">
<path d="M836.401 629.97C839.363 629.97 841.764 627.559 841.764 624.586C841.764 621.612 839.363 619.201 836.401 619.201C833.438 619.201 831.037 621.612 831.037 624.586C831.037 627.559 833.438 629.97 836.401 629.97Z" fill="#FF6D66"/>
</g>
<mask id="mask12_458_539" style="mask-type:luminance" maskUnits="userSpaceOnUse" x="-290" y="0" width="1405" height="784">
<path d="M1114.88 -3.05176e-05H-290V783.539H1114.88V-3.05176e-05Z" fill="white"/>
</mask>
<g mask="url(#mask12_458_539)">
<path d="M550.899 662.851C557.182 665.875 575.458 673.504 599.649 673.344C600.972 673.335 601.995 674.511 601.829 675.829L598.461 702.667C598.34 703.623 597.622 704.386 596.679 704.563C589.847 705.851 562.305 709.645 541.705 692.107C541.062 691.56 540.803 690.677 541.02 689.861L547.827 664.275C548.185 662.94 549.656 662.252 550.899 662.851Z" fill="#FFF7DC"/>
<path d="M553.32 670.738C553.32 670.738 565.223 687.525 569.466 689.93C573.708 692.336 596.62 678.625 596.62 678.625" stroke="#2A1E17" stroke-miterlimit="10" stroke-linecap="round" stroke-linejoin="round"/>
<path d="M580.684 687.589L593.187 700.492" stroke="#2A1E17" stroke-miterlimit="10" stroke-linecap="round" stroke-linejoin="round"/>
<path d="M563.315 685.103L548.692 689.093" stroke="#2A1E17" stroke-miterlimit="10" stroke-linecap="round" stroke-linejoin="round"/>
</g>
<mask id="mask13_458_539" style="mask-type:luminance" maskUnits="userSpaceOnUse" x="-290" y="0" width="1405" height="784">
<path d="M1114.88 -3.05176e-05H-290V783.539H1114.88V-3.05176e-05Z" fill="white"/>
</mask>
<g mask="url(#mask13_458_539)">
<path d="M933.722 345.364H919.754V359.386H933.722V345.364Z" fill="#FFE1C0"/>
</g>
<mask id="mask14_458_539" style="mask-type:luminance" maskUnits="userSpaceOnUse" x="-290" y="0" width="1405" height="784">
<path d="M1114.88 -3.05176e-05H-290V783.539H1114.88V-3.05176e-05Z" fill="white"/>
</mask>
<g mask="url(#mask14_458_539)">
<path d="M921.648 534.508L925.8 541.726L929.95 548.946H921.648H913.345L917.495 541.726L921.648 534.508Z" fill="#A0C6F4"/>
</g>
<mask id="mask15_458_539" style="mask-type:luminance" maskUnits="userSpaceOnUse" x="-290" y="0" width="1405" height="784">
<path d="M1114.88 -3.05176e-05H-290V783.539H1114.88V-3.05176e-05Z" fill="white"/>
</mask>
<g mask="url(#mask15_458_539)">
<path d="M585.949 214.702L587.031 181.93C586.917 178.871 588.158 177.896 590.036 177.479C598.905 175.51 625.862 169.478 655.18 178.178C658.969 179.302 658.847 181.316 658.786 183.129L657.738 214.373C657.662 216.667 655.274 218.328 652.609 217.937C644.049 216.678 632.407 216.29 620.583 216.39C608.366 216.493 597.48 217.405 589.862 218.877C586.954 219.438 585.863 217.263 585.949 214.702Z" stroke="#2A1E17" stroke-miterlimit="10" stroke-linecap="round" stroke-linejoin="round"/>
<path d="M595.814 209.91L612.879 189.855L631.77 208.57C625.258 206.442 595.814 209.91 595.814 209.91Z" stroke="#2A1E17" stroke-miterlimit="10" stroke-linecap="round" stroke-linejoin="round"/>
<path d="M623.339 199.14L637.135 188.056L648.762 196.386L649.199 209.409L631.77 208.572" stroke="#2A1E17" stroke-miterlimit="10" stroke-linecap="round" stroke-linejoin="round"/>
<path d="M603.256 188.409C603.414 186.838 602.046 185.412 600.2 185.224C598.355 185.037 596.73 186.159 596.572 187.731C596.413 189.302 597.781 190.728 599.627 190.915C601.473 191.102 603.098 189.981 603.256 188.409Z" stroke="#2A1E17" stroke-miterlimit="10" stroke-linecap="round" stroke-linejoin="round"/>
</g>
<mask id="mask16_458_539" style="mask-type:luminance" maskUnits="userSpaceOnUse" x="-290" y="0" width="1405" height="784">
<path d="M1114.88 -3.05176e-05H-290V783.539H1114.88V-3.05176e-05Z" fill="white"/>
</mask>
<g mask="url(#mask16_458_539)">
<path d="M915.931 640.477L927.379 661.699C928.584 663.6 928.157 664.682 927.119 665.648C922.214 670.208 907.325 684.1 885.48 689.516C882.657 690.215 881.988 688.892 881.355 687.719L870.452 667.481C869.651 665.996 870.553 664.049 872.391 663.303C878.294 660.909 885.834 656.809 893.308 652.334C901.03 647.709 907.606 643.068 911.901 639.29C913.54 637.845 915.037 638.819 915.931 640.477Z" stroke="#2A1E17" stroke-miterlimit="10" stroke-linecap="round" stroke-linejoin="round"/>
<path d="M911.439 647.202L908.025 666.309L889.095 661.47C894.021 660.393 911.439 647.202 911.439 647.202Z" stroke="#2A1E17" stroke-miterlimit="10" stroke-linecap="round" stroke-linejoin="round"/>
<path d="M897.943 664.317L893.285 676.506L882.815 675.553L877.715 667.444L889.095 661.472" stroke="#2A1E17" stroke-miterlimit="10" stroke-linecap="round" stroke-linejoin="round"/>
<path d="M917.807 664.555C919.049 663.985 919.666 662.666 919.185 661.609C918.703 660.552 917.306 660.157 916.064 660.727C914.822 661.297 914.206 662.616 914.687 663.673C915.168 664.73 916.565 665.125 917.807 664.555Z" stroke="#2A1E17" stroke-miterlimit="10" stroke-linecap="round" stroke-linejoin="round"/>
</g>
<mask id="mask17_458_539" style="mask-type:luminance" maskUnits="userSpaceOnUse" x="-290" y="0" width="1405" height="784">
<path d="M1114.88 -3.05176e-05H-290V783.539H1114.88V-3.05176e-05Z" fill="white"/>
</mask>
<g mask="url(#mask17_458_539)">
<path d="M860.204 278.2L906.714 313.937C907.734 314.721 909.195 314.512 909.959 313.475L916.98 303.921C917.712 302.924 917.529 301.525 916.566 300.75L870.713 263.918C869.689 263.095 868.185 263.299 867.416 264.366L859.737 275.017C859.01 276.03 859.216 277.442 860.204 278.2Z" fill="white" stroke="#2A1E17" stroke-miterlimit="10" stroke-linecap="round" stroke-linejoin="round"/>
<path d="M863.647 276.606L874.927 284.551L881.582 276.577L870.3 267.132L863.647 276.606Z" fill="#FF6D66"/>
<path d="M879.173 287.65L890.467 296.645L896.52 289.168L885.152 279.907L879.173 287.65Z" fill="#FAD8B0"/>
<path d="M894.265 300.102L905.544 308.047L910.917 301.116L900.234 292.141L894.265 300.102Z" fill="#A0C6F4"/>
<path d="M953.006 228.239L963.604 317.65C963.836 319.61 965.625 321 967.575 320.732L985.52 318.266C987.391 318.009 988.728 316.313 988.544 314.425L979.844 224.567C979.649 222.559 977.823 221.122 975.834 221.414L955.989 224.327C954.104 224.604 952.78 226.339 953.006 228.239Z" fill="white" stroke="#2A1E17" stroke-miterlimit="10" stroke-linecap="round" stroke-linejoin="round"/>
<path d="M958.426 230.329L961.785 251.242L977.61 250.06L975.89 227.541L958.426 230.329Z" fill="#FF6D66"/>
<path d="M962.933 259.229L965.159 281.28L979.797 279.966L977.781 257.549L962.933 259.229Z" fill="#91BA83"/>
<path d="M965.436 289.157L968.795 310.07L982.109 308.589L980.512 287.231L965.436 289.157Z" fill="#FAD8B0"/>
<path d="M929.869 247.275L959.219 333.882C959.723 335.369 961.343 336.152 962.817 335.619L981.199 328.977C982.613 328.466 983.372 326.924 982.919 325.487L955.36 238.023C954.878 236.494 953.218 235.679 951.72 236.237L931.547 243.737C930.125 244.265 929.38 245.834 929.869 247.275Z" fill="white" stroke="#2A1E17" stroke-miterlimit="10" stroke-linecap="round" stroke-linejoin="round"/>
<path d="M935.831 248.853L943.447 268.608L958.682 264.148L952.335 242.482L935.831 248.853Z" fill="#A0C6F4"/>
<path d="M946.224 276.182L952.969 297.286L967.016 292.943L960.4 271.438L946.224 276.182Z" fill="#F9865F"/>
<path d="M954.873 304.933L962.491 324.688L975.206 320.458L969.222 299.901L954.873 304.933Z" fill="#FAD8B0"/>
</g>
<mask id="mask18_458_539" style="mask-type:luminance" maskUnits="userSpaceOnUse" x="-290" y="0" width="1405" height="784">
<path d="M1114.88 -3.05176e-05H-290V783.539H1114.88V-3.05176e-05Z" fill="white"/>
</mask>
<g mask="url(#mask18_458_539)">
<path d="M708.681 393.981H560.475C555.747 393.981 551.915 390.133 551.915 385.387V365.262C551.915 360.516 555.747 356.668 560.475 356.668H708.681C713.409 356.668 717.242 360.516 717.242 365.262V385.387C717.242 390.132 713.409 393.981 708.681 393.981Z" fill="#7595EC"/>
<path d="M653.154 373.331H572.358C570.797 373.331 569.529 372.06 569.529 370.492C569.529 368.923 570.795 367.652 572.358 367.652H653.154C654.717 367.652 655.983 368.923 655.983 370.492C655.983 372.06 654.717 373.331 653.154 373.331Z" fill="white"/>
<path d="M570.338 380.687H707.692" stroke="#2A1E17" stroke-miterlimit="10" stroke-linecap="round" stroke-linejoin="round"/>
</g>
<mask id="mask19_458_539" style="mask-type:luminance" maskUnits="userSpaceOnUse" x="-290" y="0" width="1405" height="784">
<path d="M1114.88 -3.05176e-05H-290V783.539H1114.88V-3.05176e-05Z" fill="white"/>
</mask>
<g mask="url(#mask19_458_539)">
<path d="M502.405 289.054L500.065 286.482L492.323 293.581L494.663 296.153C495.649 297.237 497.324 297.312 498.404 296.322L502.235 292.81C503.315 291.821 503.392 290.138 502.405 289.054Z" fill="#91BA83"/>
<path d="M488.904 272.416L499.926 284.53C500.496 285.157 500.453 286.127 499.828 286.699L492.212 293.683C491.588 294.255 490.621 294.211 490.052 293.584L479.03 281.471C478.46 280.844 478.504 279.874 479.128 279.302L486.744 272.318C487.367 271.747 488.335 271.791 488.904 272.416Z" stroke="#2A1E17" stroke-miterlimit="10" stroke-linecap="round" stroke-linejoin="round"/>
</g>
<mask id="mask20_458_539" style="mask-type:luminance" maskUnits="userSpaceOnUse" x="-290" y="0" width="1405" height="784">
<path d="M1114.88 -3.05176e-05H-290V783.539H1114.88V-3.05176e-05Z" fill="white"/>
</mask>
<g mask="url(#mask20_458_539)">
<path d="M467.513 336.518H453.666V349.211H467.513V336.518Z" fill="#FF6D66"/>
<path d="M453.665 328.35V336.518H445.383" stroke="#2A1E17" stroke-miterlimit="10" stroke-linecap="round" stroke-linejoin="round"/>
</g>
<mask id="mask21_458_539" style="mask-type:luminance" maskUnits="userSpaceOnUse" x="-290" y="0" width="1405" height="784">
<path d="M1114.88 -3.05176e-05H-290V783.539H1114.88V-3.05176e-05Z" fill="white"/>
</mask>
<g mask="url(#mask21_458_539)">
<path d="M923.71 193.178H909.862V205.872H923.71V193.178Z" fill="#FAD8B0"/>
<path d="M909.862 185.009V193.178H901.578" stroke="#2A1E17" stroke-miterlimit="10" stroke-linecap="round" stroke-linejoin="round"/>
</g>
<mask id="mask22_458_539" style="mask-type:luminance" maskUnits="userSpaceOnUse" x="-290" y="0" width="1405" height="784">
<path d="M1114.88 -3.05176e-05H-290V783.539H1114.88V-3.05176e-05Z" fill="white"/>
</mask>
<g mask="url(#mask22_458_539)">
<path d="M535.089 271.636C391.535 211.896 281.021 326.95 551.625 503.132C572.932 517.006 605.61 521.873 605.61 521.873" stroke="#2A1E17" stroke-miterlimit="10" stroke-linecap="round" stroke-linejoin="round"/>
<path d="M403.058 279.764C405.32 279.764 407.153 277.924 407.153 275.654C407.153 273.384 405.32 271.543 403.058 271.543C400.797 271.543 398.964 273.384 398.964 275.654C398.964 277.924 400.797 279.764 403.058 279.764Z" fill="#2A1E17"/>
<path d="M377.009 253.099L381.489 248.781L391.788 254.697L396.964 270.731L381.156 264.089L377.009 253.099Z" stroke="#2A1E17" stroke-miterlimit="10" stroke-linecap="round" stroke-linejoin="round"/>
<path d="M381.488 248.781L377.008 253.099L374.5 250.04L378.801 245.903L381.488 248.781Z" stroke="#2A1E17" stroke-miterlimit="10" stroke-linecap="round" stroke-linejoin="round"/>
<path d="M396.964 270.732L386.685 259.394" stroke="#2A1E17" stroke-miterlimit="10" stroke-linecap="round" stroke-linejoin="round"/>
</g>
<mask id="mask23_458_539" style="mask-type:luminance" maskUnits="userSpaceOnUse" x="-290" y="0" width="1405" height="784">
<path d="M1114.88 -3.05176e-05H-290V783.539H1114.88V-3.05176e-05Z" fill="white"/>
</mask>
<g mask="url(#mask23_458_539)">
<path d="M421.846 558.416L433.004 616.136C433.249 617.402 434.481 618.22 435.737 617.952L447.307 615.486C448.514 615.229 449.302 614.06 449.095 612.839L439.153 554.736C438.931 553.437 437.671 552.59 436.391 552.875L423.607 555.724C422.389 555.996 421.611 557.191 421.846 558.416Z" fill="white" stroke="#2A1E17" stroke-miterlimit="10" stroke-linecap="round" stroke-linejoin="round"/>
<path d="M425.477 559.518L428.66 572.977L438.909 571.448L436.716 556.864L425.477 559.518Z" fill="#FF6D66"/>
<path d="M429.787 578.123L432.286 592.376L441.757 590.818L439.378 576.317L429.787 578.123Z" fill="#FAD8B0"/>
<path d="M432.842 597.494L436.025 610.952L444.626 609.349L442.57 595.517L432.842 597.494Z" fill="#A0C6F4"/>
</g>
<mask id="mask24_458_539" style="mask-type:luminance" maskUnits="userSpaceOnUse" x="-290" y="0" width="1405" height="784">
<path d="M1114.88 -3.05176e-05H-290V783.539H1114.88V-3.05176e-05Z" fill="white"/>
</mask>
<g mask="url(#mask24_458_539)">
<path d="M741.356 703.079L788.512 690.406L790.31 695.537L742.623 707.964L741.356 703.079Z" stroke="#2A1E17" stroke-miterlimit="10" stroke-linecap="round" stroke-linejoin="round"/>
<path d="M734.813 696.458L736.173 700.757" stroke="#2A1E17" stroke-miterlimit="10" stroke-linecap="round" stroke-linejoin="round"/>
<path d="M733.485 699.261L737.464 697.889" stroke="#2A1E17" stroke-miterlimit="10" stroke-linecap="round" stroke-linejoin="round"/>
<path d="M732.525 712.872L735.09 720.98" stroke="#2A1E17" stroke-miterlimit="10" stroke-linecap="round" stroke-linejoin="round"/>
<path d="M730.34 718.013L737.425 715.752" stroke="#2A1E17" stroke-miterlimit="10" stroke-linecap="round" stroke-linejoin="round"/>
<path d="M721.748 699.491L725.095 710.228" stroke="#2A1E17" stroke-miterlimit="10" stroke-linecap="round" stroke-linejoin="round"/>
<path d="M718.422 706.177L728.353 702.996" stroke="#2A1E17" stroke-miterlimit="10" stroke-linecap="round" stroke-linejoin="round"/>
</g>
<mask id="mask25_458_539" style="mask-type:luminance" maskUnits="userSpaceOnUse" x="-290" y="0" width="1405" height="784">
<path d="M1114.88 -3.05176e-05H-290V783.539H1114.88V-3.05176e-05Z" fill="white"/>
</mask>
<g mask="url(#mask25_458_539)">
<path d="M397.531 188.825L367.689 175.301L368.926 171.872L398.939 185.749L397.531 188.825Z" stroke="#2A1E17" stroke-width="0.6707" stroke-miterlimit="10" stroke-linecap="round" stroke-linejoin="round"/>
<path d="M398.127 195.049L399.238 192.238" stroke="#2A1E17" stroke-width="0.6707" stroke-miterlimit="10" stroke-linecap="round" stroke-linejoin="round"/>
<path d="M400.002 194.161L397.356 193.178" stroke="#2A1E17" stroke-width="0.6707" stroke-miterlimit="10" stroke-linecap="round" stroke-linejoin="round"/>
<path d="M406.258 187.505L408.355 182.202" stroke="#2A1E17" stroke-width="0.6707" stroke-miterlimit="10" stroke-linecap="round" stroke-linejoin="round"/>
<path d="M409.566 185.768L404.933 183.92" stroke="#2A1E17" stroke-width="0.6707" stroke-miterlimit="10" stroke-linecap="round" stroke-linejoin="round"/>
<path d="M406.191 199.046L408.996 192.044" stroke="#2A1E17" stroke-width="0.6707" stroke-miterlimit="10" stroke-linecap="round" stroke-linejoin="round"/>
<path d="M410.748 196.993L404.246 194.412" stroke="#2A1E17" stroke-width="0.6707" stroke-miterlimit="10" stroke-linecap="round" stroke-linejoin="round"/>
</g>
<mask id="mask26_458_539" style="mask-type:luminance" maskUnits="userSpaceOnUse" x="-290" y="0" width="1405" height="784">
<path d="M1114.88 -3.05176e-05H-290V783.539H1114.88V-3.05176e-05Z" fill="white"/>
</mask>
<g mask="url(#mask26_458_539)">
<path d="M509.044 441.816C488.01 426.614 467.345 402.988 476.41 378.72C476.41 378.72 490.915 369.014 513.878 381.148C536.843 393.282 536.843 393.282 536.843 393.282L509.044 441.816Z" fill="#FAD8B0"/>
<path d="M499.51 543.094C490.046 538.603 449.636 517.484 442.446 481.397C436.235 450.215 459.984 408.18 471.883 389.609C471.119 414.26 495.779 435.123 507.677 443.724C519.728 452.434 528.589 456.694 540.818 461.304L499.51 543.094Z" fill="white"/>
<path d="M470.074 396.942C472.654 413.326 485.109 430.31 506.308 445.632C517.754 453.906 526.362 458.228 537.554 462.572L498.459 539.976C486.547 534.026 451.303 513.868 444.742 480.936C439.288 453.558 457.78 417.245 470.074 396.942ZM476.41 378.72C476.41 378.72 431.69 439.39 440.15 481.858C448.611 524.326 500.583 546.167 500.583 546.167L544.096 460.017C530.498 455.012 521.664 450.938 509.044 441.817C488.011 426.614 467.346 402.988 476.41 378.72Z" fill="#FAD8B0"/>
<path d="M464.651 413.977C464.651 413.977 467.252 438.348 491.528 451.405" stroke="#2A1E17" stroke-miterlimit="10" stroke-linecap="round" stroke-linejoin="round"/>
<path d="M504.535 460.108L528.811 473.165" stroke="#2A1E17" stroke-miterlimit="10" stroke-linecap="round" stroke-linejoin="round"/>
<path d="M468.118 448.794C468.118 448.794 475.921 466.203 501.064 477.517" stroke="#2A1E17" stroke-miterlimit="10" stroke-linecap="round" stroke-linejoin="round"/>
<path d="M448.178 451.405C448.178 451.405 449.045 469.683 461.183 475.776" stroke="#2A1E17" stroke-miterlimit="10" stroke-linecap="round" stroke-linejoin="round"/>
<path d="M475.922 387.864C475.922 387.864 473.672 411.338 509.044 441.816" stroke="#2A1E17" stroke-miterlimit="10" stroke-linecap="round" stroke-linejoin="round"/>
<path d="M488.928 392.216C488.928 392.216 500.2 391.347 516.673 403.532" stroke="#2A1E17" stroke-miterlimit="10" stroke-linecap="round" stroke-linejoin="round"/>
<path d="M435.923 467.163C435.199 478.804 436.647 521.002 497.524 547.921" stroke="#2A1E17" stroke-miterlimit="10" stroke-linecap="round" stroke-linejoin="round"/>
</g>
<mask id="mask27_458_539" style="mask-type:luminance" maskUnits="userSpaceOnUse" x="-290" y="0" width="1405" height="784">
<path d="M1114.88 -3.05176e-05H-290V783.539H1114.88V-3.05176e-05Z" fill="white"/>
</mask>
<g mask="url(#mask27_458_539)">
<path d="M824.655 443.687L798.833 495.639C798.833 495.639 816.347 502.109 802.656 522.265C802.656 522.265 835.026 535.74 856.207 500.738C877.388 465.737 824.655 443.687 824.655 443.687Z" fill="#91BA83"/>
<path d="M765.556 602.459C752.489 602.459 738.699 597.102 724.54 586.531L772.846 506.198L801.576 524.36L801.758 524.437C802.025 524.548 808.42 527.165 817.448 527.167C824.706 527.167 833.866 525.465 842.789 519.126L807.479 579.769C807.396 579.886 792.196 602.457 765.559 602.459C765.557 602.459 765.556 602.459 765.556 602.459Z" fill="white"/>
<path d="M773.617 509.463L800.16 526.244L800.495 526.455L800.862 526.607C801.148 526.726 807.96 529.516 817.448 529.516C822.986 529.516 829.572 528.58 836.343 525.537L805.534 578.451C804.526 579.922 790.223 600.106 765.559 600.106C753.527 600.106 740.791 595.33 727.652 585.899L773.617 509.463ZM856.207 500.739C844.239 520.516 828.702 524.816 817.448 524.816C808.783 524.816 802.656 522.266 802.656 522.266L772.075 502.933L721.447 587.128C738.401 600.247 753.188 604.809 765.561 604.809C793.846 604.809 809.502 580.957 809.502 580.957L856.207 500.739Z" fill="#96BD89"/>
<path d="M798.833 495.64C798.833 495.64 818.092 502.466 802.656 522.266" stroke="#2A1E17" stroke-miterlimit="10" stroke-linecap="round" stroke-linejoin="round"/>
<path d="M771.475 501.128C771.475 501.128 797.709 525.252 812.232 525.089C826.756 524.926 843.783 521.455 853.831 504.063" stroke="#2A1E17" stroke-miterlimit="10" stroke-linecap="round" stroke-linejoin="round"/>
<path d="M774.692 532.337C774.692 532.337 792.698 548.39 812.835 543.232" stroke="#2A1E17" stroke-miterlimit="10" stroke-linecap="round" stroke-linejoin="round"/>
<path d="M793.605 556.324C793.605 556.324 803.052 563.432 816.258 556.709" stroke="#2A1E17" stroke-miterlimit="10" stroke-linecap="round" stroke-linejoin="round"/>
<path d="M750.146 566.215C750.146 566.215 771.945 587.979 806.26 573.623" stroke="#2A1E17" stroke-miterlimit="10" stroke-linecap="round" stroke-linejoin="round"/>
<path d="M762.008 544.988C762.008 544.988 770.902 551.372 776.473 553.409" stroke="#2A1E17" stroke-miterlimit="10" stroke-linecap="round" stroke-linejoin="round"/>
<path d="M829.089 458.767C829.089 458.767 848.992 465.302 851.375 491.664" stroke="#2A1E17" stroke-miterlimit="10" stroke-linecap="round" stroke-linejoin="round"/>
<path d="M839.092 491.346C839.092 491.346 848.255 505.58 832.769 519.815" stroke="#2A1E17" stroke-miterlimit="10" stroke-linecap="round" stroke-linejoin="round"/>
<path d="M723.291 591.1C723.291 591.1 773.264 634.068 809.533 583.824" stroke="#2A1E17" stroke-miterlimit="10" stroke-linecap="round" stroke-linejoin="round"/>
</g>
<mask id="mask28_458_539" style="mask-type:luminance" maskUnits="userSpaceOnUse" x="-290" y="0" width="1405" height="784">
<path d="M1114.88 -3.05176e-05H-290V783.539H1114.88V-3.05176e-05Z" fill="white"/>
</mask>
<g mask="url(#mask28_458_539)">
<path d="M362.569 427.471H374.221" stroke="#FF6D66" stroke-miterlimit="10" stroke-linecap="round" stroke-linejoin="round"/>
</g>
<mask id="mask29_458_539" style="mask-type:luminance" maskUnits="userSpaceOnUse" x="-290" y="0" width="1405" height="784">
<path d="M1114.88 -3.05176e-05H-290V783.539H1114.88V-3.05176e-05Z" fill="white"/>
</mask>
<g mask="url(#mask29_458_539)">
<path d="M1011.55 286.8H1023.2" stroke="#FF6D66" stroke-miterlimit="10" stroke-linecap="round" stroke-linejoin="round"/>
</g>
<path d="M1337.96 602.788C1337.96 602.788 1370.1 506.707 1226.4 563.391C1077.01 622.323 1017.34 745.888 1041.81 755.642C1066.29 765.394 1102.75 743.392 1102.75 743.392" stroke="#2A1E17" stroke-miterlimit="10" stroke-linecap="round" stroke-linejoin="round"/>
</svg>
