<svg width="1544" height="1013" viewBox="0 0 1544 1013" fill="none" xmlns="http://www.w3.org/2000/svg">
<path d="M923.722 214.025C887.682 178.288 892.556 146.686 899.498 135.351" stroke="url(#paint0_linear_764_3127)" stroke-width="10"/>
<path d="M742.559 226.634C736.301 141.787 697.306 163.728 678.591 185.305" stroke="url(#paint1_linear_764_3127)" stroke-width="10"/>
<path opacity="0.94" d="M834.861 325.011C808.904 346.979 788.095 341.88 780.936 336.585" stroke="url(#paint2_linear_764_3127)" stroke-width="10"/>
<path opacity="0.73" d="M909.131 406.438C937.078 444.262 958.145 424.599 965.186 410.04" stroke="url(#paint3_linear_764_3127)" stroke-width="10"/>
<path opacity="0.73" d="M19.1312 429.438C47.0776 467.262 68.1451 447.599 75.1855 433.04" stroke="url(#paint4_linear_764_3127)" stroke-width="10"/>
<path opacity="0.98" d="M1110.94 275.185C1056.22 268.809 1056.18 302.567 1062.99 320.243" stroke="url(#paint5_linear_764_3127)" stroke-width="10"/>
<path opacity="0.75" d="M211.358 171.6C168.333 156.24 161.997 183.508 164.207 199.062" stroke="url(#paint6_linear_764_3127)" stroke-width="10"/>
<path opacity="0.82" d="M50.1511 92.249C-20.0484 85.3084 -19.355 128.53 -10.2334 151.008" stroke="url(#paint7_linear_764_3127)" stroke-width="10"/>
<path opacity="0.79" d="M1048.68 62.6751C1050.3 6.26489 1015.85 9.23022 998.421 17.7642" stroke="url(#paint8_linear_764_3127)" stroke-width="10"/>
<path opacity="0.7" d="M1227 350.957C1271.75 437.963 1303.17 397.214 1313.29 365.963" stroke="url(#paint9_linear_764_3127)" stroke-width="10"/>
<path opacity="0.7" d="M268.307 386.806C313.057 473.812 344.478 433.063 354.594 401.813" stroke="url(#paint10_linear_764_3127)" stroke-width="10"/>
<path opacity="0.97" d="M1235.01 231.323C1202.05 219.484 1195.89 198.3 1196.92 189.188" stroke="url(#paint11_linear_764_3127)" stroke-width="10"/>
<path opacity="0.97" d="M298.013 265.323C265.055 253.484 258.887 232.3 259.923 223.188" stroke="url(#paint12_linear_764_3127)" stroke-width="10"/>
<path opacity="0.78" d="M1164.21 29.5247C1153.03 88.3622 1118.9 104.447 1103.23 105.135" stroke="url(#paint13_linear_764_3127)" stroke-width="10"/>
<path opacity="0.78" d="M274.208 52.5247C263.029 111.362 228.897 127.447 213.228 128.135" stroke="url(#paint14_linear_764_3127)" stroke-width="10"/>
<path opacity="0.83" d="M1293.06 122.876C1342.24 97.5824 1319.21 79.8231 1301.54 74.1051" stroke="url(#paint15_linear_764_3127)" stroke-width="10"/>
<path opacity="0.83" d="M466.05 113.581C515.227 88.287 492.195 70.5277 474.532 64.8097" stroke="url(#paint16_linear_764_3127)" stroke-width="10"/>
<path opacity="0.74" d="M1358.68 262C1393.2 334.854 1435.14 308.734 1451.79 286.567" stroke="url(#paint17_linear_764_3127)" stroke-width="10"/>
<path opacity="0.74" d="M534.429 304C552.039 341.164 573.429 327.84 581.923 316.532" stroke="url(#paint18_linear_764_3127)" stroke-width="10"/>
<path opacity="0.71" d="M1368 140.186C1426.84 148.203 1444.54 181.164 1446.03 196.643" stroke="url(#paint19_linear_764_3127)" stroke-width="10"/>
<path opacity="0.71" d="M498.585 156.689C557.424 164.705 575.122 197.667 576.616 213.145" stroke="url(#paint20_linear_764_3127)" stroke-width="10"/>
<path opacity="0.91" d="M1546.38 37.0309C1478.37 39.6653 1494.83 71.455 1511.55 87.0206" stroke="url(#paint21_linear_764_3127)" stroke-width="10"/>
<path opacity="0.84" d="M1505 239.07C1556.76 251.744 1569.47 282.823 1569.35 296.778" stroke="url(#paint22_linear_764_3127)" stroke-width="10"/>
<path d="M923.722 770.026C887.682 734.289 892.556 702.686 899.498 691.352" stroke="url(#paint23_linear_764_3127)" stroke-width="10"/>
<path opacity="0.79" d="M836.131 572.395C782.836 553.837 775.273 587.581 778.153 606.773" stroke="url(#paint24_linear_764_3127)" stroke-width="10"/>
<path d="M742.559 782.635C736.301 697.787 697.306 719.728 678.591 741.305" stroke="url(#paint25_linear_764_3127)" stroke-width="10"/>
<path opacity="0.79" d="M799.138 931.905C809.751 973.72 792.365 994.612 782.345 999.831" stroke="url(#paint26_linear_764_3127)" stroke-width="10"/>
<path opacity="0.73" d="M19.1312 985.439C47.0776 1023.26 68.1451 1003.6 75.1855 989.04" stroke="url(#paint27_linear_764_3127)" stroke-width="10"/>
<path opacity="0.98" d="M1110.94 831.186C1056.22 824.81 1056.18 858.568 1062.99 876.244" stroke="url(#paint28_linear_764_3127)" stroke-width="10"/>
<path opacity="0.82" d="M50.1511 648.25C-20.0484 641.309 -19.355 684.53 -10.2334 707.008" stroke="url(#paint29_linear_764_3127)" stroke-width="10"/>
<path opacity="0.79" d="M1048.68 618.676C1050.3 562.265 1015.85 565.231 998.42 573.765" stroke="url(#paint30_linear_764_3127)" stroke-width="10"/>
<path opacity="0.7" d="M1227 906.957C1271.75 993.963 1303.17 953.214 1313.28 921.964" stroke="url(#paint31_linear_764_3127)" stroke-width="10"/>
<path opacity="0.7" d="M268.307 942.806C313.057 1029.81 344.478 989.063 354.594 957.813" stroke="url(#paint32_linear_764_3127)" stroke-width="10"/>
<path opacity="0.97" d="M298.013 821.323C265.055 809.484 258.887 788.3 259.923 779.188" stroke="url(#paint33_linear_764_3127)" stroke-width="10"/>
<path opacity="0.78" d="M1164.21 585.525C1153.03 644.363 1118.9 660.448 1103.23 661.135" stroke="url(#paint34_linear_764_3127)" stroke-width="10"/>
<path opacity="0.78" d="M274.208 608.525C263.029 667.363 228.897 683.448 213.228 684.135" stroke="url(#paint35_linear_764_3127)" stroke-width="10"/>
<path opacity="0.83" d="M466.05 669.581C515.227 644.288 492.195 626.528 474.532 620.81" stroke="url(#paint36_linear_764_3127)" stroke-width="10"/>
<path opacity="0.74" d="M534.429 860C552.039 897.164 573.429 883.84 581.923 872.533" stroke="url(#paint37_linear_764_3127)" stroke-width="10"/>
<path opacity="0.71" d="M1368 696.187C1426.84 704.203 1444.54 737.165 1446.03 752.644" stroke="url(#paint38_linear_764_3127)" stroke-width="10"/>
<path opacity="0.91" d="M1546.38 593.031C1478.37 595.666 1494.82 627.456 1511.55 643.021" stroke="url(#paint39_linear_764_3127)" stroke-width="10"/>
<path opacity="0.84" d="M1505 795.07C1556.76 807.745 1569.46 838.823 1569.35 852.779" stroke="url(#paint40_linear_764_3127)" stroke-width="10"/>
<defs>
<linearGradient id="paint0_linear_764_3127" x1="895.951" y1="175.843" x2="920.77" y2="174.013" gradientUnits="userSpaceOnUse">
<stop stop-color="#5C27D1"/>
<stop offset="1" stop-color="#F2FDFF"/>
</linearGradient>
<linearGradient id="paint1_linear_764_3127" x1="679.648" y1="199.642" x2="740.239" y2="195.173" gradientUnits="userSpaceOnUse">
<stop stop-color="#F9137D"/>
<stop offset="1" stop-color="#F69A2B"/>
</linearGradient>
<linearGradient id="paint2_linear_764_3127" x1="807.755" y1="341.317" x2="807.982" y2="324.644" gradientUnits="userSpaceOnUse">
<stop stop-color="#5C27D1"/>
<stop offset="1" stop-color="#F2FDFF"/>
</linearGradient>
<linearGradient id="paint3_linear_764_3127" x1="964.549" y1="419.945" x2="908.495" y2="416.344" gradientUnits="userSpaceOnUse">
<stop stop-color="#5C27D1"/>
<stop offset="1" stop-color="#F9137D"/>
</linearGradient>
<linearGradient id="paint4_linear_764_3127" x1="74.5492" y1="442.945" x2="18.4948" y2="439.344" gradientUnits="userSpaceOnUse">
<stop stop-color="#5C27D1"/>
<stop offset="1" stop-color="#F9137D"/>
</linearGradient>
<linearGradient id="paint5_linear_764_3127" x1="1055.03" y1="311.77" x2="1102.98" y2="266.712" gradientUnits="userSpaceOnUse">
<stop stop-color="#5C27D1"/>
<stop offset="1" stop-color="#F9137D"/>
</linearGradient>
<linearGradient id="paint6_linear_764_3127" x1="159.354" y1="190.73" x2="206.505" y2="163.268" gradientUnits="userSpaceOnUse">
<stop stop-color="#5C27D1"/>
<stop offset="1" stop-color="#F9137D"/>
</linearGradient>
<linearGradient id="paint7_linear_764_3127" x1="-20.6169" y1="140.337" x2="39.7676" y2="81.5782" gradientUnits="userSpaceOnUse">
<stop stop-color="#5C27D1"/>
<stop offset="1" stop-color="#F9137D"/>
</linearGradient>
<linearGradient id="paint8_linear_764_3127" x1="1006.36" y1="8.8821" x2="1056.62" y2="53.793" gradientUnits="userSpaceOnUse">
<stop stop-color="#5C27D1"/>
<stop offset="1" stop-color="#F9137D"/>
</linearGradient>
<linearGradient id="paint9_linear_764_3127" x1="1305.73" y1="351.262" x2="1243.59" y2="383.218" gradientUnits="userSpaceOnUse">
<stop stop-color="#F9137D"/>
<stop offset="1" stop-color="#F69A2B"/>
</linearGradient>
<linearGradient id="paint10_linear_764_3127" x1="347.033" y1="387.111" x2="284.901" y2="419.067" gradientUnits="userSpaceOnUse">
<stop stop-color="#F9137D"/>
<stop offset="1" stop-color="#F69A2B"/>
</linearGradient>
<linearGradient id="paint11_linear_764_3127" x1="1206.51" y1="215.544" x2="1221.5" y2="207.161" gradientUnits="userSpaceOnUse">
<stop stop-color="#5C27D1"/>
<stop offset="1" stop-color="#F2FDFF"/>
</linearGradient>
<linearGradient id="paint12_linear_764_3127" x1="269.513" y1="249.544" x2="284.5" y2="241.161" gradientUnits="userSpaceOnUse">
<stop stop-color="#5C27D1"/>
<stop offset="1" stop-color="#F2FDFF"/>
</linearGradient>
<linearGradient id="paint13_linear_764_3127" x1="1145.18" y1="81.886" x2="1127.01" y2="58.814" gradientUnits="userSpaceOnUse">
<stop stop-color="#5C27D1"/>
<stop offset="1" stop-color="#F2FDFF"/>
</linearGradient>
<linearGradient id="paint14_linear_764_3127" x1="255.18" y1="104.886" x2="237.013" y2="81.814" gradientUnits="userSpaceOnUse">
<stop stop-color="#5C27D1"/>
<stop offset="1" stop-color="#F2FDFF"/>
</linearGradient>
<linearGradient id="paint15_linear_764_3127" x1="1293.23" y1="78.379" x2="1311.3" y2="113.497" gradientUnits="userSpaceOnUse">
<stop stop-color="#F9137D"/>
<stop offset="1" stop-color="#F69A2B"/>
</linearGradient>
<linearGradient id="paint16_linear_764_3127" x1="466.222" y1="69.0836" x2="484.285" y2="104.202" gradientUnits="userSpaceOnUse">
<stop stop-color="#F9137D"/>
<stop offset="1" stop-color="#F69A2B"/>
</linearGradient>
<linearGradient id="paint17_linear_764_3127" x1="1447.45" y1="303.02" x2="1354.34" y2="278.453" gradientUnits="userSpaceOnUse">
<stop stop-color="#5C27D1"/>
<stop offset="1" stop-color="#F9137D"/>
</linearGradient>
<linearGradient id="paint18_linear_764_3127" x1="579.708" y1="324.925" x2="532.215" y2="312.393" gradientUnits="userSpaceOnUse">
<stop stop-color="#5C27D1"/>
<stop offset="1" stop-color="#F9137D"/>
</linearGradient>
<linearGradient id="paint19_linear_764_3127" x1="1420.83" y1="156.31" x2="1398.93" y2="175.496" gradientUnits="userSpaceOnUse">
<stop stop-color="#5C27D1"/>
<stop offset="1" stop-color="#F2FDFF"/>
</linearGradient>
<linearGradient id="paint20_linear_764_3127" x1="551.419" y1="172.812" x2="529.516" y2="191.999" gradientUnits="userSpaceOnUse">
<stop stop-color="#5C27D1"/>
<stop offset="1" stop-color="#F2FDFF"/>
</linearGradient>
<linearGradient id="paint21_linear_764_3127" x1="1523.05" y1="86.5755" x2="1521.17" y2="38.0077" gradientUnits="userSpaceOnUse">
<stop stop-color="#F9137D"/>
<stop offset="1" stop-color="#F69A2B"/>
</linearGradient>
<linearGradient id="paint22_linear_764_3127" x1="1550.64" y1="258.416" x2="1529.29" y2="273.486" gradientUnits="userSpaceOnUse">
<stop stop-color="#5C27D1"/>
<stop offset="1" stop-color="#F2FDFF"/>
</linearGradient>
<linearGradient id="paint23_linear_764_3127" x1="895.951" y1="731.844" x2="920.77" y2="730.013" gradientUnits="userSpaceOnUse">
<stop stop-color="#5C27D1"/>
<stop offset="1" stop-color="#F2FDFF"/>
</linearGradient>
<linearGradient id="paint24_linear_764_3127" x1="772.078" y1="596.527" x2="830.056" y2="562.149" gradientUnits="userSpaceOnUse">
<stop stop-color="#5C27D1"/>
<stop offset="1" stop-color="#F9137D"/>
</linearGradient>
<linearGradient id="paint25_linear_764_3127" x1="679.648" y1="755.642" x2="740.239" y2="751.173" gradientUnits="userSpaceOnUse">
<stop stop-color="#F9137D"/>
<stop offset="1" stop-color="#F69A2B"/>
</linearGradient>
<linearGradient id="paint26_linear_764_3127" x1="802.656" y1="971.881" x2="783.771" y2="962.35" gradientUnits="userSpaceOnUse">
<stop stop-color="#5C27D1"/>
<stop offset="1" stop-color="#F2FDFF"/>
</linearGradient>
<linearGradient id="paint27_linear_764_3127" x1="74.5492" y1="998.946" x2="18.4948" y2="995.344" gradientUnits="userSpaceOnUse">
<stop stop-color="#5C27D1"/>
<stop offset="1" stop-color="#F9137D"/>
</linearGradient>
<linearGradient id="paint28_linear_764_3127" x1="1055.03" y1="867.77" x2="1102.98" y2="822.712" gradientUnits="userSpaceOnUse">
<stop stop-color="#5C27D1"/>
<stop offset="1" stop-color="#F9137D"/>
</linearGradient>
<linearGradient id="paint29_linear_764_3127" x1="-20.6169" y1="696.337" x2="39.7676" y2="637.579" gradientUnits="userSpaceOnUse">
<stop stop-color="#5C27D1"/>
<stop offset="1" stop-color="#F9137D"/>
</linearGradient>
<linearGradient id="paint30_linear_764_3127" x1="1006.36" y1="564.883" x2="1056.62" y2="609.793" gradientUnits="userSpaceOnUse">
<stop stop-color="#5C27D1"/>
<stop offset="1" stop-color="#F9137D"/>
</linearGradient>
<linearGradient id="paint31_linear_764_3127" x1="1305.72" y1="907.262" x2="1243.59" y2="939.219" gradientUnits="userSpaceOnUse">
<stop stop-color="#F9137D"/>
<stop offset="1" stop-color="#F69A2B"/>
</linearGradient>
<linearGradient id="paint32_linear_764_3127" x1="347.033" y1="943.111" x2="284.901" y2="975.068" gradientUnits="userSpaceOnUse">
<stop stop-color="#F9137D"/>
<stop offset="1" stop-color="#F69A2B"/>
</linearGradient>
<linearGradient id="paint33_linear_764_3127" x1="269.513" y1="805.544" x2="284.5" y2="797.162" gradientUnits="userSpaceOnUse">
<stop stop-color="#5C27D1"/>
<stop offset="1" stop-color="#F2FDFF"/>
</linearGradient>
<linearGradient id="paint34_linear_764_3127" x1="1145.18" y1="637.886" x2="1127.01" y2="614.814" gradientUnits="userSpaceOnUse">
<stop stop-color="#5C27D1"/>
<stop offset="1" stop-color="#F2FDFF"/>
</linearGradient>
<linearGradient id="paint35_linear_764_3127" x1="255.18" y1="660.886" x2="237.013" y2="637.814" gradientUnits="userSpaceOnUse">
<stop stop-color="#5C27D1"/>
<stop offset="1" stop-color="#F2FDFF"/>
</linearGradient>
<linearGradient id="paint36_linear_764_3127" x1="466.222" y1="625.084" x2="484.285" y2="660.202" gradientUnits="userSpaceOnUse">
<stop stop-color="#F9137D"/>
<stop offset="1" stop-color="#F69A2B"/>
</linearGradient>
<linearGradient id="paint37_linear_764_3127" x1="579.708" y1="880.926" x2="532.215" y2="868.393" gradientUnits="userSpaceOnUse">
<stop stop-color="#5C27D1"/>
<stop offset="1" stop-color="#F9137D"/>
</linearGradient>
<linearGradient id="paint38_linear_764_3127" x1="1420.83" y1="712.311" x2="1398.93" y2="731.497" gradientUnits="userSpaceOnUse">
<stop stop-color="#5C27D1"/>
<stop offset="1" stop-color="#F2FDFF"/>
</linearGradient>
<linearGradient id="paint39_linear_764_3127" x1="1523.05" y1="642.576" x2="1521.16" y2="594.008" gradientUnits="userSpaceOnUse">
<stop stop-color="#F9137D"/>
<stop offset="1" stop-color="#F69A2B"/>
</linearGradient>
<linearGradient id="paint40_linear_764_3127" x1="1550.64" y1="814.417" x2="1529.29" y2="829.487" gradientUnits="userSpaceOnUse">
<stop stop-color="#5C27D1"/>
<stop offset="1" stop-color="#F2FDFF"/>
</linearGradient>
</defs>
</svg>
