<svg width="1452" height="1031" viewBox="0 0 1452 1031" fill="none" xmlns="http://www.w3.org/2000/svg">
<path d="M5.25054 30.8893C5.55323 26.7777 6.01689 18.4395 6.64153 5.87476L6.92377 0.675275L19.2656 1.20823C19.2177 2.21361 19.0977 3.69169 18.9057 5.64249C18.3937 10.8446 17.5355 16.9723 16.3313 24.0254C15.8141 27.2068 15.486 29.2453 15.3468 30.1406C12.7891 31.2525 9.53767 31.6396 5.59249 31.3018L5.25054 30.8893ZM8.311 48.7663C6.64396 48.6022 5.30647 47.9403 4.2985 46.7804C3.34598 45.5756 2.9608 44.0478 3.14296 42.197C3.30051 40.5964 3.98911 39.3005 5.20878 38.3095C6.47897 37.3234 7.94757 36.9124 9.6146 37.0764C11.2311 37.2355 12.5156 37.9175 13.4682 39.1224C14.4712 40.3322 14.894 41.7375 14.7364 43.3381C14.5542 45.1889 13.8786 46.6123 12.7094 47.6083C11.5452 48.5543 10.0791 48.9403 8.311 48.7663Z" fill="#FFB7B7"/>
<path d="M150.756 126.82C150.584 119.74 149.979 105.406 148.944 83.819L148.556 74.882L169.525 73.7163C169.611 75.4433 169.654 77.9905 169.654 81.3581C169.654 90.3382 169.223 100.959 168.36 113.22C168.015 118.747 167.799 122.287 167.713 123.841C163.571 126.173 158.134 127.381 151.403 127.468L150.756 126.82ZM158.911 156.869C156.063 156.869 153.69 155.962 151.792 154.149C149.979 152.25 149.073 149.702 149.073 146.507C149.073 143.744 150.023 141.413 151.921 139.513C153.906 137.614 156.322 136.664 159.17 136.664C161.931 136.664 164.218 137.614 166.03 139.513C167.928 141.413 168.878 143.744 168.878 146.507C168.878 149.702 167.971 152.25 166.159 154.149C164.347 155.962 161.931 156.869 158.911 156.869Z" fill="#E54141"/>
<path d="M21.6829 520.245C21.5103 513.164 20.9062 498.83 19.8707 477.244L19.4824 468.307L40.4515 467.141C40.5378 468.868 40.5809 471.415 40.5809 474.783C40.5809 483.763 40.1494 494.384 39.2865 506.645C38.9413 512.171 38.7256 515.711 38.6393 517.266C34.4973 519.597 29.0609 520.806 22.3301 520.892L21.6829 520.245ZM29.8375 550.294C26.9899 550.294 24.6168 549.387 22.7184 547.574C20.9062 545.674 20.0002 543.127 20.0002 539.932C20.0002 537.169 20.9494 534.837 22.8478 532.938C24.8325 531.038 27.2487 530.088 30.0964 530.088C32.8577 530.088 35.1445 531.038 36.9566 532.938C38.8551 534.837 39.8043 537.169 39.8043 539.932C39.8043 543.127 38.8982 545.674 37.0861 547.574C35.2739 549.387 32.8577 550.294 29.8375 550.294Z" fill="#DA3232"/>
<path d="M65.9214 210.311C65.5403 205.888 64.6193 196.943 63.1584 183.476L62.5773 177.899L74.8415 176.392C74.9603 177.47 75.0863 179.062 75.2194 181.168C75.5742 186.787 75.7406 193.447 75.7185 201.15C75.7342 204.62 75.7475 206.843 75.7582 207.819C73.4187 209.431 70.2749 210.389 66.3269 210.692L65.9214 210.311ZM71.8961 228.808C70.2243 228.914 68.7953 228.434 67.6092 227.37C66.4703 226.249 65.8377 224.689 65.7115 222.69C65.6023 220.962 66.0674 219.468 67.1069 218.209C68.197 216.947 69.5779 216.263 71.2496 216.158C72.8707 216.055 74.2507 216.565 75.3896 217.686C76.5792 218.804 77.2286 220.227 77.3378 221.956C77.464 223.955 77.0327 225.582 76.044 226.838C75.0518 228.039 73.6691 228.696 71.8961 228.808Z" fill="#F77D7D"/>
<path d="M1.63654 322.483C1.78624 319.904 2.00242 314.676 2.28506 306.799L2.41585 303.539L9.60436 303.695C9.58292 304.325 9.5226 305.252 9.4234 306.477C9.15885 309.742 8.69876 313.591 8.04314 318.025C7.76258 320.025 7.58468 321.306 7.50945 321.869C6.0276 322.602 4.13721 322.891 1.83827 322.737L1.63654 322.483ZM3.53349 333.634C2.56193 333.555 1.77902 333.16 1.18473 332.448C0.622434 331.708 0.388344 330.757 0.482463 329.595C0.563863 328.59 0.956395 327.769 1.66006 327.131C2.39316 326.495 3.24549 326.216 4.21705 326.295C5.15916 326.371 5.91136 326.78 6.47366 327.521C7.0654 328.264 7.32057 329.138 7.23917 330.142C7.14505 331.304 6.76088 332.205 6.08666 332.846C5.41498 333.455 4.56392 333.718 3.53349 333.634Z" fill="#F6CFCF"/>
<path d="M109.143 408.531C109.11 404.515 108.909 396.383 108.539 384.136L108.407 379.065L119.574 378.569C119.605 379.549 119.607 380.994 119.579 382.903C119.503 387.995 119.185 394.013 118.623 400.959C118.393 404.089 118.249 406.095 118.19 406.975C115.966 408.265 113.064 408.907 109.482 408.903L109.143 408.531ZM113.23 425.633C111.715 425.611 110.46 425.078 109.465 424.035C108.517 422.943 108.056 421.492 108.083 419.681C108.106 418.114 108.63 416.799 109.656 415.737C110.728 414.676 112.022 414.156 113.537 414.179C115.006 414.2 116.215 414.757 117.163 415.848C118.157 416.94 118.643 418.27 118.62 419.836C118.593 421.648 118.089 423.085 117.109 424.148C116.13 425.162 114.837 425.657 113.23 425.633Z" fill="#E38B8B"/>
<path d="M658.063 30.8893C658.366 26.7777 658.829 18.4395 659.454 5.87476L659.736 0.675275L672.078 1.20823C672.03 2.21361 671.91 3.69169 671.718 5.64249C671.206 10.8446 670.348 16.9723 669.144 24.0254C668.627 27.2068 668.298 29.2453 668.159 30.1406C665.602 31.2525 662.35 31.6396 658.405 31.3018L658.063 30.8893ZM661.123 48.7663C659.456 48.6022 658.119 47.9403 657.111 46.7804C656.158 45.5756 655.773 44.0478 655.955 42.197C656.113 40.5964 656.802 39.3005 658.021 38.3095C659.291 37.3234 660.76 36.9124 662.427 37.0764C664.044 37.2355 665.328 37.9175 666.281 39.1224C667.284 40.3322 667.706 41.7375 667.549 43.3381C667.367 45.1889 666.691 46.6123 665.522 47.6083C664.358 48.5543 662.892 48.9403 661.123 48.7663Z" fill="#FFB7B7"/>
<path d="M803.569 126.82C803.396 119.74 802.792 105.406 801.756 83.819L801.368 74.882L822.337 73.7163C822.424 75.4433 822.467 77.9905 822.467 81.3581C822.467 90.3382 822.035 100.959 821.172 113.22C820.827 118.747 820.611 122.287 820.525 123.841C816.383 126.173 810.947 127.381 804.216 127.468L803.569 126.82ZM811.723 156.869C808.876 156.869 806.503 155.962 804.604 154.149C802.792 152.25 801.886 149.702 801.886 146.507C801.886 143.744 802.835 141.413 804.734 139.513C806.718 137.614 809.134 136.664 811.982 136.664C814.743 136.664 817.03 137.614 818.842 139.513C820.741 141.413 821.69 143.744 821.69 146.507C821.69 149.702 820.784 152.25 818.972 154.149C817.16 155.962 814.743 156.869 811.723 156.869Z" fill="#E54141"/>
<path d="M674.495 520.245C674.323 513.164 673.719 498.83 672.683 477.244L672.295 468.307L693.264 467.141C693.35 468.868 693.393 471.415 693.393 474.783C693.393 483.763 692.962 494.384 692.099 506.645C691.754 512.171 691.538 515.711 691.452 517.266C687.31 519.597 681.873 520.806 675.143 520.892L674.495 520.245ZM682.65 550.294C679.802 550.294 677.429 549.387 675.531 547.574C673.719 545.674 672.813 543.127 672.813 539.932C672.813 537.169 673.762 534.837 675.66 532.938C677.645 531.038 680.061 530.088 682.909 530.088C685.67 530.088 687.957 531.038 689.769 532.938C691.668 534.837 692.617 537.169 692.617 539.932C692.617 543.127 691.711 545.674 689.899 547.574C688.086 549.387 685.67 550.294 682.65 550.294Z" fill="#DA3232"/>
<path d="M718.734 210.311C718.353 205.888 717.432 196.943 715.971 183.476L715.39 177.899L727.654 176.392C727.773 177.47 727.899 179.062 728.032 181.168C728.387 186.787 728.553 193.447 728.531 201.15C728.547 204.62 728.56 206.843 728.571 207.819C726.231 209.431 723.087 210.389 719.139 210.692L718.734 210.311ZM724.709 228.808C723.037 228.914 721.608 228.434 720.422 227.37C719.283 226.249 718.65 224.689 718.524 222.69C718.415 220.962 718.88 219.468 719.919 218.209C721.009 216.947 722.39 216.263 724.062 216.158C725.683 216.055 727.063 216.565 728.202 217.686C729.392 218.804 730.041 220.227 730.15 221.956C730.277 223.955 729.845 225.582 728.856 226.838C727.864 228.039 726.482 228.696 724.709 228.808Z" fill="#F77D7D"/>
<path d="M654.448 322.483C654.598 319.904 654.814 314.676 655.097 306.799L655.227 303.539L662.416 303.695C662.394 304.325 662.334 305.252 662.235 306.477C661.97 309.742 661.51 313.591 660.855 318.025C660.574 320.025 660.396 321.306 660.321 321.869C658.839 322.602 656.949 322.891 654.65 322.737L654.448 322.483ZM656.345 333.634C655.373 333.555 654.591 333.16 653.996 332.448C653.434 331.708 653.2 330.757 653.294 329.595C653.375 328.59 653.768 327.769 654.472 327.131C655.205 326.495 656.057 326.216 657.029 326.295C657.971 326.371 658.723 326.78 659.285 327.521C659.877 328.264 660.132 329.138 660.051 330.142C659.957 331.304 659.572 332.205 658.898 332.846C658.227 333.455 657.375 333.718 656.345 333.634Z" fill="#F6CFCF"/>
<path d="M761.955 408.531C761.923 404.515 761.722 396.383 761.351 384.136L761.22 379.065L772.386 378.569C772.418 379.549 772.419 380.994 772.391 382.903C772.316 387.995 771.997 394.013 771.435 400.959C771.206 404.089 771.061 406.095 771.002 406.975C768.779 408.265 765.876 408.907 762.294 408.903L761.955 408.531ZM766.042 425.633C764.527 425.611 763.272 425.078 762.277 424.035C761.329 422.943 760.869 421.492 760.895 419.681C760.918 418.114 761.443 416.799 762.469 415.737C763.541 414.676 764.834 414.156 766.349 414.179C767.819 414.2 769.027 414.757 769.976 415.848C770.97 416.94 771.455 418.27 771.432 419.836C771.405 421.648 770.902 423.085 769.922 424.148C768.943 425.162 767.649 425.657 766.042 425.633Z" fill="#E38B8B"/>
<path d="M1287.29 30.8893C1287.6 26.7777 1288.06 18.4395 1288.68 5.87476L1288.97 0.675275L1301.31 1.20823C1301.26 2.21361 1301.14 3.69169 1300.95 5.64249C1300.44 10.8446 1299.58 16.9723 1298.37 24.0254C1297.86 27.2068 1297.53 29.2453 1297.39 30.1406C1294.83 31.2525 1291.58 31.6396 1287.64 31.3018L1287.29 30.8893ZM1290.35 48.7663C1288.69 48.6022 1287.35 47.9403 1286.34 46.7804C1285.39 45.5756 1285 44.0478 1285.19 42.197C1285.34 40.5964 1286.03 39.3005 1287.25 38.3095C1288.52 37.3234 1289.99 36.9124 1291.66 37.0764C1293.27 37.2355 1294.56 37.9175 1295.51 39.1224C1296.51 40.3322 1296.94 41.7375 1296.78 43.3381C1296.6 45.1889 1295.92 46.6123 1294.75 47.6083C1293.59 48.5543 1292.12 48.9403 1290.35 48.7663Z" fill="#FFB7B7"/>
<path d="M1432.8 126.82C1432.63 119.74 1432.02 105.406 1430.99 83.819L1430.6 74.882L1451.57 73.7163C1451.65 75.4433 1451.7 77.9905 1451.7 81.3581C1451.7 90.3382 1451.27 100.959 1450.4 113.22C1450.06 118.747 1449.84 122.287 1449.76 123.841C1445.61 126.173 1440.18 127.381 1433.45 127.468L1432.8 126.82ZM1440.95 156.869C1438.11 156.869 1435.73 155.962 1433.83 154.149C1432.02 152.25 1431.12 149.702 1431.12 146.507C1431.12 143.744 1432.07 141.413 1433.96 139.513C1435.95 137.614 1438.36 136.664 1441.21 136.664C1443.97 136.664 1446.26 137.614 1448.07 139.513C1449.97 141.413 1450.92 143.744 1450.92 146.507C1450.92 149.702 1450.01 152.25 1448.2 154.149C1446.39 155.962 1443.97 156.869 1440.95 156.869Z" fill="#E54141"/>
<path d="M1303.73 520.245C1303.55 513.164 1302.95 498.83 1301.91 477.244L1301.53 468.307L1322.49 467.141C1322.58 468.868 1322.62 471.415 1322.62 474.783C1322.62 483.763 1322.19 494.384 1321.33 506.645C1320.98 512.171 1320.77 515.711 1320.68 517.266C1316.54 519.597 1311.1 520.806 1304.37 520.892L1303.73 520.245ZM1311.88 550.294C1309.03 550.294 1306.66 549.387 1304.76 547.574C1302.95 545.674 1302.04 543.127 1302.04 539.932C1302.04 537.169 1302.99 534.837 1304.89 532.938C1306.88 531.038 1309.29 530.088 1312.14 530.088C1314.9 530.088 1317.19 531.038 1319 532.938C1320.9 534.837 1321.85 537.169 1321.85 539.932C1321.85 543.127 1320.94 545.674 1319.13 547.574C1317.32 549.387 1314.9 550.294 1311.88 550.294Z" fill="#DA3232"/>
<path d="M1347.96 210.311C1347.58 205.888 1346.66 196.943 1345.2 183.476L1344.62 177.899L1356.88 176.392C1357 177.47 1357.13 179.062 1357.26 181.168C1357.62 186.787 1357.78 193.447 1357.76 201.15C1357.78 204.62 1357.79 206.843 1357.8 207.819C1355.46 209.431 1352.32 210.389 1348.37 210.692L1347.96 210.311ZM1353.94 228.808C1352.27 228.914 1350.84 228.434 1349.65 227.37C1348.51 226.249 1347.88 224.689 1347.75 222.69C1347.65 220.962 1348.11 219.468 1349.15 218.209C1350.24 216.947 1351.62 216.263 1353.29 216.158C1354.91 216.055 1356.29 216.565 1357.43 217.686C1358.62 218.804 1359.27 220.227 1359.38 221.956C1359.51 223.955 1359.08 225.582 1358.09 226.838C1357.09 228.039 1355.71 228.696 1353.94 228.808Z" fill="#F77D7D"/>
<path d="M1283.68 322.483C1283.83 319.904 1284.05 314.676 1284.33 306.799L1284.46 303.539L1291.65 303.695C1291.63 304.325 1291.57 305.252 1291.47 306.477C1291.2 309.742 1290.74 313.591 1290.09 318.025C1289.81 320.025 1289.63 321.306 1289.55 321.869C1288.07 322.602 1286.18 322.891 1283.88 322.737L1283.68 322.483ZM1285.58 333.634C1284.6 333.555 1283.82 333.16 1283.23 332.448C1282.67 331.708 1282.43 330.757 1282.53 329.595C1282.61 328.59 1283 327.769 1283.7 327.131C1284.44 326.495 1285.29 326.216 1286.26 326.295C1287.2 326.371 1287.95 326.78 1288.52 327.521C1289.11 328.264 1289.36 329.138 1289.28 330.142C1289.19 331.304 1288.8 332.205 1288.13 332.846C1287.46 333.455 1286.61 333.718 1285.58 333.634Z" fill="#F6CFCF"/>
<path d="M1391.19 408.531C1391.15 404.515 1390.95 396.383 1390.58 384.136L1390.45 379.065L1401.62 378.569C1401.65 379.549 1401.65 380.994 1401.62 382.903C1401.55 387.995 1401.23 394.013 1400.67 400.959C1400.44 404.089 1400.29 406.095 1400.23 406.975C1398.01 408.265 1395.11 408.907 1391.52 408.903L1391.19 408.531ZM1395.27 425.633C1393.76 425.611 1392.5 425.078 1391.51 424.035C1390.56 422.943 1390.1 421.492 1390.13 419.681C1390.15 418.114 1390.67 416.799 1391.7 415.737C1392.77 414.676 1394.06 414.156 1395.58 414.179C1397.05 414.2 1398.26 414.757 1399.21 415.848C1400.2 416.94 1400.69 418.27 1400.66 419.836C1400.64 421.648 1400.13 423.085 1399.15 424.148C1398.17 425.162 1396.88 425.657 1395.27 425.633Z" fill="#E38B8B"/>
<path d="M331.656 106.596C331.958 102.484 332.422 94.1458 333.047 81.5811L333.329 76.3816L345.671 76.9145C345.623 77.9199 345.503 79.398 345.311 81.3488C344.799 86.5509 343.941 92.6786 342.737 99.7317C342.219 102.913 341.891 104.952 341.752 105.847C339.194 106.959 335.943 107.346 331.998 107.008L331.656 106.596ZM334.716 124.473C333.049 124.309 331.712 123.647 330.704 122.487C329.751 121.282 329.366 119.754 329.548 117.903C329.706 116.303 330.394 115.007 331.614 114.016C332.884 113.03 334.353 112.619 336.02 112.783C337.636 112.942 338.921 113.624 339.873 114.829C340.876 116.039 341.299 117.444 341.142 119.044C340.96 120.895 340.284 122.319 339.115 123.315C337.95 124.261 336.484 124.647 334.716 124.473Z" fill="#FFB7B7"/>
<path d="M477.162 202.526C476.99 195.446 476.386 181.112 475.35 159.525L474.962 150.588L495.931 149.423C496.017 151.15 496.06 153.697 496.06 157.064C496.06 166.045 495.629 176.665 494.766 188.927C494.421 194.453 494.205 197.993 494.119 199.547C489.977 201.879 484.54 203.088 477.81 203.174L477.162 202.526ZM485.317 232.575C482.469 232.575 480.096 231.669 478.198 229.855C476.386 227.956 475.48 225.409 475.48 222.214C475.48 219.451 476.429 217.119 478.327 215.22C480.312 213.32 482.728 212.37 485.576 212.37C488.337 212.37 490.624 213.32 492.436 215.22C494.335 217.119 495.284 219.451 495.284 222.214C495.284 225.409 494.378 227.956 492.566 229.855C490.753 231.669 488.337 232.575 485.317 232.575Z" fill="#E54141"/>
<path d="M348.089 595.951C347.917 588.87 347.312 574.537 346.277 552.95L345.889 544.013L366.858 542.847C366.944 544.574 366.987 547.121 366.987 550.489C366.987 559.469 366.556 570.09 365.693 582.351C365.348 587.877 365.132 591.418 365.046 592.972C360.904 595.303 355.467 596.512 348.736 596.599L348.089 595.951ZM356.244 626C353.396 626 351.023 625.093 349.125 623.28C347.312 621.38 346.406 618.833 346.406 615.638C346.406 612.875 347.356 610.544 349.254 608.644C351.239 606.744 353.655 605.795 356.503 605.795C359.264 605.795 361.551 606.744 363.363 608.644C365.261 610.544 366.211 612.875 366.211 615.638C366.211 618.833 365.304 621.38 363.492 623.28C361.68 625.093 359.264 626 356.244 626Z" fill="#DA3232"/>
<path d="M392.327 286.018C391.946 281.594 391.025 272.649 389.564 259.182L388.983 253.606L401.247 252.099C401.366 253.176 401.492 254.768 401.625 256.875C401.98 262.493 402.146 269.154 402.124 276.857C402.14 280.327 402.153 282.55 402.164 283.525C399.824 285.137 396.68 286.095 392.732 286.399L392.327 286.018ZM398.301 304.515C396.63 304.62 395.201 304.141 394.014 303.077C392.876 301.956 392.243 300.396 392.117 298.397C392.008 296.668 392.473 295.174 393.512 293.916C394.602 292.653 395.983 291.97 397.655 291.864C399.276 291.762 400.656 292.271 401.795 293.392C402.984 294.51 403.634 295.934 403.743 297.662C403.869 299.661 403.438 301.288 402.449 302.544C401.457 303.746 400.074 304.403 398.301 304.515Z" fill="#F77D7D"/>
<path d="M328.042 398.19C328.192 395.611 328.408 390.382 328.69 382.505L328.821 379.245L336.01 379.401C335.988 380.031 335.928 380.959 335.829 382.183C335.564 385.448 335.104 389.298 334.448 393.732C334.168 395.731 333.99 397.013 333.915 397.575C332.433 398.309 330.542 398.598 328.244 398.443L328.042 398.19ZM329.939 409.341C328.967 409.262 328.184 408.867 327.59 408.155C327.028 407.414 326.794 406.463 326.888 405.301C326.969 404.297 327.362 403.475 328.065 402.837C328.798 402.201 329.651 401.923 330.622 402.001C331.564 402.078 332.317 402.486 332.879 403.227C333.471 403.97 333.726 404.844 333.644 405.849C333.55 407.01 333.166 407.911 332.492 408.552C331.82 409.161 330.969 409.424 329.939 409.341Z" fill="#F6CFCF"/>
<path d="M435.548 484.238C435.516 480.222 435.314 472.09 434.944 459.842L434.813 454.772L445.979 454.275C446.01 455.255 446.012 456.7 445.984 458.609C445.909 463.701 445.59 469.72 445.028 476.665C444.798 479.796 444.654 481.801 444.595 482.682C442.372 483.971 439.469 484.614 435.887 484.61L435.548 484.238ZM439.635 501.339C438.12 501.317 436.865 500.784 435.87 499.741C434.922 498.65 434.461 497.198 434.488 495.387C434.511 493.82 435.036 492.506 436.062 491.444C437.134 490.382 438.427 489.863 439.942 489.885C441.411 489.907 442.62 490.463 443.568 491.554C444.563 492.647 445.048 493.976 445.025 495.543C444.998 497.354 444.495 498.791 443.515 499.854C442.535 500.868 441.242 501.363 439.635 501.339Z" fill="#E38B8B"/>
<path d="M984.467 106.596C984.77 102.484 985.234 94.1458 985.858 81.5811L986.141 76.3816L998.482 76.9145C998.434 77.9199 998.315 79.398 998.123 81.3488C997.61 86.5509 996.752 92.6786 995.548 99.7317C995.031 102.913 994.703 104.952 994.564 105.847C992.006 106.959 988.754 107.346 984.809 107.008L984.467 106.596ZM987.528 124.473C985.861 124.309 984.523 123.647 983.515 122.487C982.563 121.282 982.178 119.754 982.36 117.903C982.517 116.303 983.206 115.007 984.426 114.016C985.696 113.03 987.164 112.619 988.831 112.783C990.448 112.942 991.732 113.624 992.685 114.829C993.688 116.039 994.111 117.444 993.953 119.044C993.771 120.895 993.095 122.319 991.926 123.315C990.762 124.261 989.296 124.647 987.528 124.473Z" fill="#FFB7B7"/>
<path d="M1129.97 202.526C1129.8 195.446 1129.2 181.112 1128.16 159.525L1127.77 150.588L1148.74 149.423C1148.83 151.15 1148.87 153.697 1148.87 157.064C1148.87 166.045 1148.44 176.665 1147.58 188.927C1147.23 194.453 1147.02 197.993 1146.93 199.547C1142.79 201.879 1137.35 203.088 1130.62 203.174L1129.97 202.526ZM1138.13 232.575C1135.28 232.575 1132.91 231.669 1131.01 229.855C1129.2 227.956 1128.29 225.409 1128.29 222.214C1128.29 219.451 1129.24 217.119 1131.14 215.22C1133.12 213.32 1135.54 212.37 1138.39 212.37C1141.15 212.37 1143.43 213.32 1145.25 215.22C1147.15 217.119 1148.09 219.451 1148.09 222.214C1148.09 225.409 1147.19 227.956 1145.38 229.855C1143.56 231.669 1141.15 232.575 1138.13 232.575Z" fill="#E54141"/>
<path d="M1000.9 595.951C1000.73 588.87 1000.12 574.537 999.088 552.95L998.699 544.013L1019.67 542.847C1019.75 544.574 1019.8 547.121 1019.8 550.489C1019.8 559.469 1019.37 570.09 1018.5 582.351C1018.16 587.877 1017.94 591.418 1017.86 592.972C1013.71 595.303 1008.28 596.512 1001.55 596.599L1000.9 595.951ZM1009.05 626C1006.21 626 1003.83 625.093 1001.94 623.28C1000.12 621.38 999.217 618.833 999.217 615.638C999.217 612.875 1000.17 610.544 1002.06 608.644C1004.05 606.744 1006.47 605.795 1009.31 605.795C1012.07 605.795 1014.36 606.744 1016.17 608.644C1018.07 610.544 1019.02 612.875 1019.02 615.638C1019.02 618.833 1018.11 621.38 1016.3 623.28C1014.49 625.093 1012.07 626 1009.05 626Z" fill="#DA3232"/>
<path d="M1045.14 286.018C1044.76 281.594 1043.84 272.649 1042.38 259.182L1041.79 253.606L1054.06 252.099C1054.18 253.176 1054.3 254.768 1054.44 256.875C1054.79 262.493 1054.96 269.154 1054.94 276.857C1054.95 280.327 1054.96 282.55 1054.98 283.525C1052.64 285.137 1049.49 286.095 1045.54 286.399L1045.14 286.018ZM1051.11 304.515C1049.44 304.62 1048.01 304.141 1046.83 303.077C1045.69 301.956 1045.05 300.396 1044.93 298.397C1044.82 296.668 1045.28 295.174 1046.32 293.916C1047.41 292.653 1048.79 291.97 1050.47 291.864C1052.09 291.762 1053.47 292.271 1054.61 293.392C1055.8 294.51 1056.45 295.934 1056.55 297.662C1056.68 299.661 1056.25 301.288 1055.26 302.544C1054.27 303.746 1052.89 304.403 1051.11 304.515Z" fill="#F77D7D"/>
<path d="M980.853 398.19C981.003 395.611 981.219 390.382 981.502 382.505L981.633 379.245L988.821 379.401C988.8 380.031 988.739 380.959 988.64 382.183C988.376 385.448 987.916 389.298 987.26 393.732C986.979 395.731 986.801 397.013 986.726 397.575C985.244 398.309 983.354 398.598 981.055 398.443L980.853 398.19ZM982.75 409.341C981.779 409.262 980.996 408.867 980.402 408.155C979.839 407.414 979.605 406.463 979.699 405.301C979.781 404.297 980.173 403.475 980.877 402.837C981.61 402.201 982.462 401.923 983.434 402.001C984.376 402.078 985.128 402.486 985.69 403.227C986.282 403.97 986.537 404.844 986.456 405.849C986.362 407.01 985.978 407.911 985.303 408.552C984.632 409.161 983.781 409.424 982.75 409.341Z" fill="#F6CFCF"/>
<path d="M1088.36 484.238C1088.33 480.222 1088.13 472.09 1087.76 459.842L1087.62 454.772L1098.79 454.275C1098.82 455.255 1098.82 456.7 1098.8 458.609C1098.72 463.701 1098.4 469.72 1097.84 476.665C1097.61 479.796 1097.47 481.801 1097.41 482.682C1095.18 483.971 1092.28 484.614 1088.7 484.61L1088.36 484.238ZM1092.45 501.339C1090.93 501.317 1089.68 500.784 1088.68 499.741C1087.73 498.65 1087.27 497.198 1087.3 495.387C1087.32 493.82 1087.85 492.506 1088.87 491.444C1089.95 490.382 1091.24 489.863 1092.75 489.885C1094.22 489.907 1095.43 490.463 1096.38 491.554C1097.37 492.647 1097.86 493.976 1097.84 495.543C1097.81 497.354 1097.31 498.791 1096.33 499.854C1095.35 500.868 1094.05 501.363 1092.45 501.339Z" fill="#E38B8B"/>
<g opacity="0.5">
<path d="M5.25054 679.889C5.55323 675.778 6.01689 667.44 6.64153 654.875L6.92377 649.675L19.2656 650.208C19.2177 651.214 19.0977 652.692 18.9057 654.642C18.3937 659.845 17.5355 665.972 16.3313 673.025C15.8141 676.207 15.486 678.245 15.3468 679.141C12.7891 680.253 9.53767 680.64 5.59249 680.302L5.25054 679.889ZM8.311 697.766C6.64396 697.602 5.30647 696.94 4.2985 695.78C3.34598 694.576 2.9608 693.048 3.14296 691.197C3.30051 689.596 3.98911 688.301 5.20878 687.309C6.47897 686.323 7.94757 685.912 9.6146 686.076C11.2311 686.236 12.5156 686.918 13.4682 688.122C14.4712 689.332 14.894 690.737 14.7364 692.338C14.5542 694.189 13.8786 695.612 12.7094 696.608C11.5452 697.554 10.0791 697.94 8.311 697.766Z" fill="#FFB7B7"/>
<path d="M150.756 775.82C150.584 768.74 149.979 754.406 148.944 732.819L148.556 723.882L169.525 722.716C169.611 724.443 169.654 726.991 169.654 730.358C169.654 739.338 169.223 749.959 168.36 762.22C168.015 767.747 167.799 771.287 167.713 772.841C163.571 775.173 158.134 776.381 151.403 776.468L150.756 775.82ZM158.911 805.869C156.063 805.869 153.69 804.962 151.792 803.149C149.979 801.25 149.073 798.702 149.073 795.507C149.073 792.744 150.023 790.413 151.921 788.513C153.906 786.614 156.322 785.664 159.17 785.664C161.931 785.664 164.218 786.614 166.03 788.513C167.928 790.413 168.878 792.744 168.878 795.507C168.878 798.702 167.971 801.25 166.159 803.149C164.347 804.962 161.931 805.869 158.911 805.869Z" fill="#E54141"/>
<path d="M65.9214 859.311C65.5403 854.888 64.6193 845.943 63.1584 832.476L62.5773 826.899L74.8415 825.392C74.9603 826.47 75.0863 828.062 75.2194 830.168C75.5742 835.787 75.7406 842.447 75.7185 850.15C75.7342 853.62 75.7475 855.843 75.7582 856.819C73.4187 858.431 70.2749 859.389 66.3269 859.692L65.9214 859.311ZM71.8961 877.808C70.2243 877.914 68.7953 877.434 67.6092 876.37C66.4703 875.249 65.8377 873.689 65.7115 871.69C65.6023 869.962 66.0674 868.468 67.1069 867.209C68.197 865.947 69.5779 865.263 71.2496 865.158C72.8707 865.055 74.2507 865.565 75.3896 866.686C76.5792 867.804 77.2286 869.227 77.3378 870.956C77.464 872.955 77.0327 874.582 76.044 875.838C75.0518 877.039 73.6691 877.696 71.8961 877.808Z" fill="#F77D7D"/>
<path d="M1.63654 971.483C1.78624 968.904 2.00242 963.676 2.28506 955.799L2.41585 952.539L9.60436 952.695C9.58292 953.325 9.5226 954.252 9.4234 955.477C9.15885 958.742 8.69876 962.591 8.04314 967.025C7.76258 969.025 7.58468 970.306 7.50945 970.869C6.0276 971.602 4.13721 971.891 1.83827 971.737L1.63654 971.483ZM3.53349 982.634C2.56193 982.555 1.77902 982.16 1.18473 981.448C0.622434 980.708 0.388344 979.757 0.482463 978.595C0.563863 977.59 0.956395 976.769 1.66006 976.131C2.39316 975.495 3.24549 975.216 4.21705 975.295C5.15916 975.371 5.91136 975.78 6.47366 976.521C7.0654 977.264 7.32057 978.138 7.23917 979.142C7.14505 980.304 6.76088 981.205 6.08666 981.846C5.41498 982.455 4.56392 982.718 3.53349 982.634Z" fill="#F6CFCF"/>
<path d="M109.143 1057.53C109.11 1053.52 108.909 1045.38 108.539 1033.14L108.407 1028.07L119.574 1027.57C119.605 1028.55 119.607 1029.99 119.579 1031.9C119.503 1036.99 119.185 1043.01 118.623 1049.96C118.393 1053.09 118.249 1055.09 118.19 1055.98C115.966 1057.26 113.064 1057.91 109.482 1057.9L109.143 1057.53ZM113.23 1074.63C111.715 1074.61 110.46 1074.08 109.465 1073.03C108.517 1071.94 108.056 1070.49 108.083 1068.68C108.106 1067.11 108.63 1065.8 109.656 1064.74C110.728 1063.68 112.022 1063.16 113.537 1063.18C115.006 1063.2 116.215 1063.76 117.163 1064.85C118.157 1065.94 118.643 1067.27 118.62 1068.84C118.593 1070.65 118.089 1072.08 117.109 1073.15C116.13 1074.16 114.837 1074.66 113.23 1074.63Z" fill="#E38B8B"/>
<path d="M658.063 679.889C658.366 675.778 658.829 667.44 659.454 654.875L659.736 649.675L672.078 650.208C672.03 651.214 671.91 652.692 671.718 654.642C671.206 659.845 670.348 665.972 669.144 673.025C668.627 676.207 668.298 678.245 668.159 679.141C665.602 680.253 662.35 680.64 658.405 680.302L658.063 679.889ZM661.123 697.766C659.456 697.602 658.119 696.94 657.111 695.78C656.158 694.576 655.773 693.048 655.955 691.197C656.113 689.596 656.802 688.301 658.021 687.309C659.291 686.323 660.76 685.912 662.427 686.076C664.044 686.236 665.328 686.918 666.281 688.122C667.284 689.332 667.706 690.737 667.549 692.338C667.367 694.189 666.691 695.612 665.522 696.608C664.358 697.554 662.892 697.94 661.123 697.766Z" fill="#FFB7B7"/>
<path d="M803.569 775.82C803.396 768.74 802.792 754.406 801.756 732.819L801.368 723.882L822.337 722.716C822.424 724.443 822.467 726.991 822.467 730.358C822.467 739.338 822.035 749.959 821.172 762.22C820.827 767.747 820.611 771.287 820.525 772.841C816.383 775.173 810.947 776.381 804.216 776.468L803.569 775.82ZM811.723 805.869C808.876 805.869 806.503 804.962 804.604 803.149C802.792 801.25 801.886 798.702 801.886 795.507C801.886 792.744 802.835 790.413 804.734 788.513C806.718 786.614 809.134 785.664 811.982 785.664C814.743 785.664 817.03 786.614 818.842 788.513C820.741 790.413 821.69 792.744 821.69 795.507C821.69 798.702 820.784 801.25 818.972 803.149C817.16 804.962 814.743 805.869 811.723 805.869Z" fill="#E54141"/>
<path d="M718.734 859.311C718.353 854.888 717.432 845.943 715.971 832.476L715.39 826.899L727.654 825.392C727.773 826.47 727.899 828.062 728.032 830.168C728.387 835.787 728.553 842.447 728.531 850.15C728.547 853.62 728.56 855.843 728.571 856.819C726.231 858.431 723.087 859.389 719.139 859.692L718.734 859.311ZM724.709 877.808C723.037 877.914 721.608 877.434 720.422 876.37C719.283 875.249 718.65 873.689 718.524 871.69C718.415 869.962 718.88 868.468 719.919 867.209C721.009 865.947 722.39 865.263 724.062 865.158C725.683 865.055 727.063 865.565 728.202 866.686C729.392 867.804 730.041 869.227 730.15 870.956C730.277 872.955 729.845 874.582 728.856 875.838C727.864 877.039 726.482 877.696 724.709 877.808Z" fill="#F77D7D"/>
<path d="M654.448 971.483C654.598 968.904 654.814 963.676 655.097 955.799L655.227 952.539L662.416 952.695C662.394 953.325 662.334 954.252 662.235 955.477C661.97 958.742 661.51 962.591 660.855 967.025C660.574 969.025 660.396 970.306 660.321 970.869C658.839 971.602 656.949 971.891 654.65 971.737L654.448 971.483ZM656.345 982.634C655.373 982.555 654.591 982.16 653.996 981.448C653.434 980.708 653.2 979.757 653.294 978.595C653.375 977.59 653.768 976.769 654.472 976.131C655.205 975.495 656.057 975.216 657.029 975.295C657.971 975.371 658.723 975.78 659.285 976.521C659.877 977.264 660.132 978.138 660.051 979.142C659.957 980.304 659.572 981.205 658.898 981.846C658.227 982.455 657.375 982.718 656.345 982.634Z" fill="#F6CFCF"/>
<path d="M761.955 1057.53C761.923 1053.52 761.722 1045.38 761.351 1033.14L761.22 1028.07L772.386 1027.57C772.418 1028.55 772.419 1029.99 772.391 1031.9C772.316 1036.99 771.997 1043.01 771.435 1049.96C771.206 1053.09 771.061 1055.09 771.002 1055.98C768.779 1057.26 765.876 1057.91 762.294 1057.9L761.955 1057.53ZM766.042 1074.63C764.527 1074.61 763.272 1074.08 762.277 1073.03C761.329 1071.94 760.869 1070.49 760.895 1068.68C760.918 1067.11 761.443 1065.8 762.469 1064.74C763.541 1063.68 764.834 1063.16 766.349 1063.18C767.819 1063.2 769.027 1063.76 769.976 1064.85C770.97 1065.94 771.455 1067.27 771.432 1068.84C771.405 1070.65 770.902 1072.08 769.922 1073.15C768.943 1074.16 767.649 1074.66 766.042 1074.63Z" fill="#E38B8B"/>
<path d="M1287.29 679.889C1287.6 675.778 1288.06 667.44 1288.68 654.875L1288.97 649.675L1301.31 650.208C1301.26 651.214 1301.14 652.692 1300.95 654.642C1300.44 659.845 1299.58 665.972 1298.37 673.025C1297.86 676.207 1297.53 678.245 1297.39 679.141C1294.83 680.253 1291.58 680.64 1287.64 680.302L1287.29 679.889ZM1290.35 697.766C1288.69 697.602 1287.35 696.94 1286.34 695.78C1285.39 694.576 1285 693.048 1285.19 691.197C1285.34 689.596 1286.03 688.301 1287.25 687.309C1288.52 686.323 1289.99 685.912 1291.66 686.076C1293.27 686.236 1294.56 686.918 1295.51 688.122C1296.51 689.332 1296.94 690.737 1296.78 692.338C1296.6 694.189 1295.92 695.612 1294.75 696.608C1293.59 697.554 1292.12 697.94 1290.35 697.766Z" fill="#FFB7B7"/>
<path d="M1432.8 775.82C1432.63 768.74 1432.02 754.406 1430.99 732.819L1430.6 723.882L1451.57 722.716C1451.65 724.443 1451.7 726.991 1451.7 730.358C1451.7 739.338 1451.27 749.959 1450.4 762.22C1450.06 767.747 1449.84 771.287 1449.76 772.841C1445.61 775.173 1440.18 776.381 1433.45 776.468L1432.8 775.82ZM1440.95 805.869C1438.11 805.869 1435.73 804.962 1433.83 803.149C1432.02 801.25 1431.12 798.702 1431.12 795.507C1431.12 792.744 1432.07 790.413 1433.96 788.513C1435.95 786.614 1438.36 785.664 1441.21 785.664C1443.97 785.664 1446.26 786.614 1448.07 788.513C1449.97 790.413 1450.92 792.744 1450.92 795.507C1450.92 798.702 1450.01 801.25 1448.2 803.149C1446.39 804.962 1443.97 805.869 1440.95 805.869Z" fill="#E54141"/>
<path d="M1347.96 859.311C1347.58 854.888 1346.66 845.943 1345.2 832.476L1344.62 826.899L1356.88 825.392C1357 826.47 1357.13 828.062 1357.26 830.168C1357.62 835.787 1357.78 842.447 1357.76 850.15C1357.78 853.62 1357.79 855.843 1357.8 856.819C1355.46 858.431 1352.32 859.389 1348.37 859.692L1347.96 859.311ZM1353.94 877.808C1352.27 877.914 1350.84 877.434 1349.65 876.37C1348.51 875.249 1347.88 873.689 1347.75 871.69C1347.65 869.962 1348.11 868.468 1349.15 867.209C1350.24 865.947 1351.62 865.263 1353.29 865.158C1354.91 865.055 1356.29 865.565 1357.43 866.686C1358.62 867.804 1359.27 869.227 1359.38 870.956C1359.51 872.955 1359.08 874.582 1358.09 875.838C1357.09 877.039 1355.71 877.696 1353.94 877.808Z" fill="#F77D7D"/>
<path d="M1283.68 971.483C1283.83 968.904 1284.05 963.676 1284.33 955.799L1284.46 952.539L1291.65 952.695C1291.63 953.325 1291.57 954.252 1291.47 955.477C1291.2 958.742 1290.74 962.591 1290.09 967.025C1289.81 969.025 1289.63 970.306 1289.55 970.869C1288.07 971.602 1286.18 971.891 1283.88 971.737L1283.68 971.483ZM1285.58 982.634C1284.6 982.555 1283.82 982.16 1283.23 981.448C1282.67 980.708 1282.43 979.757 1282.53 978.595C1282.61 977.59 1283 976.769 1283.7 976.131C1284.44 975.495 1285.29 975.216 1286.26 975.295C1287.2 975.371 1287.95 975.78 1288.52 976.521C1289.11 977.264 1289.36 978.138 1289.28 979.142C1289.19 980.304 1288.8 981.205 1288.13 981.846C1287.46 982.455 1286.61 982.718 1285.58 982.634Z" fill="#F6CFCF"/>
<path d="M1391.19 1057.53C1391.15 1053.52 1390.95 1045.38 1390.58 1033.14L1390.45 1028.07L1401.62 1027.57C1401.65 1028.55 1401.65 1029.99 1401.62 1031.9C1401.55 1036.99 1401.23 1043.01 1400.67 1049.96C1400.44 1053.09 1400.29 1055.09 1400.23 1055.98C1398.01 1057.26 1395.11 1057.91 1391.52 1057.9L1391.19 1057.53ZM1395.27 1074.63C1393.76 1074.61 1392.5 1074.08 1391.51 1073.03C1390.56 1071.94 1390.1 1070.49 1390.13 1068.68C1390.15 1067.11 1390.67 1065.8 1391.7 1064.74C1392.77 1063.68 1394.06 1063.16 1395.58 1063.18C1397.05 1063.2 1398.26 1063.76 1399.21 1064.85C1400.2 1065.94 1400.69 1067.27 1400.66 1068.84C1400.64 1070.65 1400.13 1072.08 1399.15 1073.15C1398.17 1074.16 1396.88 1074.66 1395.27 1074.63Z" fill="#E38B8B"/>
<path d="M331.656 755.596C331.958 751.484 332.422 743.146 333.047 730.581L333.329 725.382L345.671 725.915C345.623 726.92 345.503 728.398 345.311 730.349C344.799 735.551 343.941 741.679 342.737 748.732C342.219 751.913 341.891 753.952 341.752 754.847C339.194 755.959 335.943 756.346 331.998 756.008L331.656 755.596ZM334.716 773.473C333.049 773.309 331.712 772.647 330.704 771.487C329.751 770.282 329.366 768.754 329.548 766.903C329.706 765.303 330.394 764.007 331.614 763.016C332.884 762.03 334.353 761.619 336.02 761.783C337.636 761.942 338.921 762.624 339.873 763.829C340.876 765.039 341.299 766.444 341.142 768.044C340.96 769.895 340.284 771.319 339.115 772.315C337.95 773.261 336.484 773.647 334.716 773.473Z" fill="#FFB7B7"/>
<path d="M477.162 851.526C476.99 844.446 476.386 830.112 475.35 808.525L474.962 799.588L495.931 798.423C496.017 800.15 496.06 802.697 496.06 806.064C496.06 815.045 495.629 825.665 494.766 837.927C494.421 843.453 494.205 846.993 494.119 848.547C489.977 850.879 484.54 852.088 477.81 852.174L477.162 851.526ZM485.317 881.575C482.469 881.575 480.096 880.669 478.198 878.855C476.386 876.956 475.48 874.409 475.48 871.214C475.48 868.451 476.429 866.119 478.327 864.22C480.312 862.32 482.728 861.37 485.576 861.37C488.337 861.37 490.624 862.32 492.436 864.22C494.335 866.119 495.284 868.451 495.284 871.214C495.284 874.409 494.378 876.956 492.566 878.855C490.753 880.669 488.337 881.575 485.317 881.575Z" fill="#E54141"/>
<path d="M392.327 935.018C391.946 930.594 391.025 921.649 389.564 908.182L388.983 902.606L401.247 901.099C401.366 902.176 401.492 903.768 401.625 905.875C401.98 911.493 402.146 918.154 402.124 925.857C402.14 929.327 402.153 931.55 402.164 932.525C399.824 934.137 396.68 935.095 392.732 935.399L392.327 935.018ZM398.301 953.515C396.63 953.62 395.201 953.141 394.014 952.077C392.876 950.956 392.243 949.396 392.117 947.397C392.008 945.668 392.473 944.174 393.512 942.916C394.602 941.653 395.983 940.97 397.655 940.864C399.276 940.762 400.656 941.271 401.795 942.392C402.984 943.51 403.634 944.934 403.743 946.662C403.869 948.661 403.438 950.288 402.449 951.544C401.457 952.746 400.074 953.403 398.301 953.515Z" fill="#F77D7D"/>
<path d="M328.042 1047.19C328.192 1044.61 328.408 1039.38 328.69 1031.51L328.821 1028.25L336.01 1028.4C335.988 1029.03 335.928 1029.96 335.829 1031.18C335.564 1034.45 335.104 1038.3 334.448 1042.73C334.168 1044.73 333.99 1046.01 333.915 1046.58C332.433 1047.31 330.542 1047.6 328.244 1047.44L328.042 1047.19ZM329.939 1058.34C328.967 1058.26 328.184 1057.87 327.59 1057.15C327.028 1056.41 326.794 1055.46 326.888 1054.3C326.969 1053.3 327.362 1052.48 328.065 1051.84C328.798 1051.2 329.651 1050.92 330.622 1051C331.564 1051.08 332.317 1051.49 332.879 1052.23C333.471 1052.97 333.726 1053.84 333.644 1054.85C333.55 1056.01 333.166 1056.91 332.492 1057.55C331.82 1058.16 330.969 1058.42 329.939 1058.34Z" fill="#F6CFCF"/>
<path d="M984.467 755.596C984.77 751.484 985.234 743.146 985.858 730.581L986.141 725.382L998.482 725.915C998.434 726.92 998.315 728.398 998.123 730.349C997.61 735.551 996.752 741.679 995.548 748.732C995.031 751.913 994.703 753.952 994.564 754.847C992.006 755.959 988.754 756.346 984.809 756.008L984.467 755.596ZM987.528 773.473C985.861 773.309 984.523 772.647 983.515 771.487C982.563 770.282 982.178 768.754 982.36 766.903C982.517 765.303 983.206 764.007 984.426 763.016C985.696 762.03 987.164 761.619 988.831 761.783C990.448 761.942 991.732 762.624 992.685 763.829C993.688 765.039 994.111 766.444 993.953 768.044C993.771 769.895 993.095 771.319 991.926 772.315C990.762 773.261 989.296 773.647 987.528 773.473Z" fill="#FFB7B7"/>
<path d="M1129.97 851.526C1129.8 844.446 1129.2 830.112 1128.16 808.525L1127.77 799.588L1148.74 798.423C1148.83 800.15 1148.87 802.697 1148.87 806.064C1148.87 815.045 1148.44 825.665 1147.58 837.927C1147.23 843.453 1147.02 846.993 1146.93 848.547C1142.79 850.879 1137.35 852.088 1130.62 852.174L1129.97 851.526ZM1138.13 881.575C1135.28 881.575 1132.91 880.669 1131.01 878.855C1129.2 876.956 1128.29 874.409 1128.29 871.214C1128.29 868.451 1129.24 866.119 1131.14 864.22C1133.12 862.32 1135.54 861.37 1138.39 861.37C1141.15 861.37 1143.43 862.32 1145.25 864.22C1147.15 866.119 1148.09 868.451 1148.09 871.214C1148.09 874.409 1147.19 876.956 1145.38 878.855C1143.56 880.669 1141.15 881.575 1138.13 881.575Z" fill="#E54141"/>
<path d="M1045.14 935.018C1044.76 930.594 1043.84 921.649 1042.38 908.182L1041.79 902.606L1054.06 901.099C1054.18 902.176 1054.3 903.768 1054.44 905.875C1054.79 911.493 1054.96 918.154 1054.94 925.857C1054.95 929.327 1054.96 931.55 1054.98 932.525C1052.64 934.137 1049.49 935.095 1045.54 935.399L1045.14 935.018ZM1051.11 953.515C1049.44 953.62 1048.01 953.141 1046.83 952.077C1045.69 950.956 1045.05 949.396 1044.93 947.397C1044.82 945.668 1045.28 944.174 1046.32 942.916C1047.41 941.653 1048.79 940.97 1050.47 940.864C1052.09 940.762 1053.47 941.271 1054.61 942.392C1055.8 943.51 1056.45 944.934 1056.55 946.662C1056.68 948.661 1056.25 950.288 1055.26 951.544C1054.27 952.746 1052.89 953.403 1051.11 953.515Z" fill="#F77D7D"/>
<path d="M980.853 1047.19C981.003 1044.61 981.219 1039.38 981.502 1031.51L981.633 1028.25L988.821 1028.4C988.8 1029.03 988.739 1029.96 988.64 1031.18C988.376 1034.45 987.916 1038.3 987.26 1042.73C986.979 1044.73 986.801 1046.01 986.726 1046.58C985.244 1047.31 983.354 1047.6 981.055 1047.44L980.853 1047.19ZM982.75 1058.34C981.779 1058.26 980.996 1057.87 980.402 1057.15C979.839 1056.41 979.605 1055.46 979.699 1054.3C979.781 1053.3 980.173 1052.48 980.877 1051.84C981.61 1051.2 982.462 1050.92 983.434 1051C984.376 1051.08 985.128 1051.49 985.69 1052.23C986.282 1052.97 986.537 1053.84 986.456 1054.85C986.362 1056.01 985.978 1056.91 985.303 1057.55C984.632 1058.16 983.781 1058.42 982.75 1058.34Z" fill="#F6CFCF"/>
</g>
</svg>
