<svg width="13" height="12" viewBox="0 0 13 12" fill="none" xmlns="http://www.w3.org/2000/svg">
<path d="M4.66667 11.8851C5.21895 11.8851 5.66667 11.4373 5.66667 10.8851C5.66667 10.3328 5.21895 9.88505 4.66667 9.88505V11.8851ZM1 9.78671H0H1ZM2.22222 1V0V1ZM4.66667 10.8851V9.88505H2.22222V10.8851V11.8851H4.66667V10.8851ZM2.22222 10.8851V9.88505C2.13084 9.88505 2.06188 9.85145 2.02639 9.81956L1.35798 10.5634L0.689574 11.3072C1.11251 11.6872 1.6653 11.8851 2.22222 11.8851V10.8851ZM1.35798 10.5634L2.02639 9.81956C2.00987 9.80472 2.00336 9.79309 2.0012 9.78843C1.99918 9.78404 2 9.78387 2 9.78671H1H0C0 10.3798 0.263122 10.9239 0.689574 11.3072L1.35798 10.5634ZM1 9.78671H2V2.09834H1H0V9.78671H1ZM1 2.09834H2C2 2.10118 1.99918 2.10101 2.0012 2.09663C2.00336 2.09196 2.00987 2.08033 2.02639 2.06549L1.35798 1.3217L0.689574 0.5779C0.263122 0.961127 0 1.50524 0 2.09834H1ZM1.35798 1.3217L2.02639 2.06549C2.06188 2.0336 2.13084 2 2.22222 2V1V0C1.6653 0 1.11251 0.197836 0.689574 0.5779L1.35798 1.3217ZM2.22222 1V2H4.66667V1V0H2.22222V1Z" fill="black"/>
<path d="M8.27593 7.94468C7.86514 8.31383 7.83139 8.94609 8.20054 9.35688C8.56969 9.76767 9.20195 9.80142 9.61274 9.43227L8.27593 7.94468ZM11.9999 5.94263L12.6683 6.68642C12.8793 6.49676 12.9999 6.22637 12.9999 5.94263C12.9999 5.65888 12.8793 5.38849 12.6683 5.19883L11.9999 5.94263ZM8.94434 8.68847L9.61274 9.43227L12.6683 6.68642L11.9999 5.94263L11.3315 5.19883L8.27593 7.94468L8.94434 8.68847ZM11.9999 5.94263L12.6683 5.19883L9.61274 2.45298L8.94434 3.19678L8.27593 3.94057L11.3315 6.68642L11.9999 5.94263Z" fill="black"/>
<path d="M11.9998 6.94238C12.5521 6.94238 12.9998 6.49467 12.9998 5.94238C12.9998 5.3901 12.5521 4.94238 11.9998 4.94238V6.94238ZM11.9998 5.94238V4.94238H4.6665V5.94238V6.94238H11.9998V5.94238Z" fill="black"/>
</svg>
