<svg width="1606" height="2051" viewBox="0 0 1606 2051" fill="none" xmlns="http://www.w3.org/2000/svg">
<g opacity="0.6">
<path d="M954.722 1252.02C918.682 1216.29 923.556 1184.69 930.498 1173.35" stroke="url(#paint0_linear_1912_2901)" stroke-width="10"/>
<path d="M773.559 1264.63C767.301 1179.79 728.306 1201.73 709.591 1223.3" stroke="url(#paint1_linear_1912_2901)" stroke-width="10"/>
<path opacity="0.94" d="M865.862 1363.01C839.905 1384.98 819.096 1379.88 811.937 1374.59" stroke="url(#paint2_linear_1912_2901)" stroke-width="10"/>
<path opacity="0.73" d="M940.131 1444.44C968.078 1482.26 989.145 1462.6 996.186 1448.04" stroke="url(#paint3_linear_1912_2901)" stroke-width="10"/>
<path opacity="0.73" d="M50.1312 1467.44C78.0776 1505.26 99.1451 1485.6 106.186 1471.04" stroke="url(#paint4_linear_1912_2901)" stroke-width="10"/>
<path opacity="0.98" d="M1141.94 1313.19C1087.22 1306.81 1087.18 1340.57 1093.99 1358.24" stroke="url(#paint5_linear_1912_2901)" stroke-width="10"/>
<path opacity="0.75" d="M242.358 1209.6C199.333 1194.24 192.997 1221.51 195.207 1237.06" stroke="url(#paint6_linear_1912_2901)" stroke-width="10"/>
<path opacity="0.82" d="M81.1511 1130.25C10.9516 1123.31 11.645 1166.53 20.7666 1189.01" stroke="url(#paint7_linear_1912_2901)" stroke-width="10"/>
<path opacity="0.79" d="M1079.68 1100.67C1081.3 1044.26 1046.85 1047.23 1029.42 1055.76" stroke="url(#paint8_linear_1912_2901)" stroke-width="10"/>
<path opacity="0.7" d="M1258 1388.96C1302.75 1475.96 1334.17 1435.21 1344.29 1403.96" stroke="url(#paint9_linear_1912_2901)" stroke-width="10"/>
<path opacity="0.7" d="M299.307 1424.81C344.057 1511.81 375.478 1471.06 385.594 1439.81" stroke="url(#paint10_linear_1912_2901)" stroke-width="10"/>
<path opacity="0.97" d="M1266.01 1269.32C1233.05 1257.48 1226.89 1236.3 1227.92 1227.19" stroke="url(#paint11_linear_1912_2901)" stroke-width="10"/>
<path opacity="0.97" d="M329.014 1303.32C296.056 1291.48 289.888 1270.3 290.924 1261.19" stroke="url(#paint12_linear_1912_2901)" stroke-width="10"/>
<path opacity="0.78" d="M1195.21 1067.52C1184.03 1126.36 1149.9 1142.45 1134.23 1143.13" stroke="url(#paint13_linear_1912_2901)" stroke-width="10"/>
<path opacity="0.78" d="M305.209 1090.52C294.03 1149.36 259.898 1165.45 244.229 1166.13" stroke="url(#paint14_linear_1912_2901)" stroke-width="10"/>
<path opacity="0.83" d="M1324.06 1160.88C1373.24 1135.58 1350.21 1117.82 1332.54 1112.11" stroke="url(#paint15_linear_1912_2901)" stroke-width="10"/>
<path opacity="0.83" d="M497.051 1151.58C546.228 1126.29 523.196 1108.53 505.533 1102.81" stroke="url(#paint16_linear_1912_2901)" stroke-width="10"/>
<path opacity="0.74" d="M1389.68 1300C1424.2 1372.85 1466.14 1346.73 1482.79 1324.57" stroke="url(#paint17_linear_1912_2901)" stroke-width="10"/>
<path opacity="0.74" d="M565.429 1342C583.039 1379.16 604.429 1365.84 612.923 1354.53" stroke="url(#paint18_linear_1912_2901)" stroke-width="10"/>
<path opacity="0.71" d="M1399 1178.19C1457.84 1186.2 1475.54 1219.16 1477.03 1234.64" stroke="url(#paint19_linear_1912_2901)" stroke-width="10"/>
<path opacity="0.71" d="M529.586 1194.69C588.425 1202.7 606.123 1235.67 607.617 1251.14" stroke="url(#paint20_linear_1912_2901)" stroke-width="10"/>
<path opacity="0.91" d="M1577.38 1075.03C1509.37 1077.67 1525.82 1109.46 1542.55 1125.02" stroke="url(#paint21_linear_1912_2901)" stroke-width="10"/>
<path opacity="0.84" d="M1536 1277.07C1587.76 1289.74 1600.47 1320.82 1600.35 1334.78" stroke="url(#paint22_linear_1912_2901)" stroke-width="10"/>
</g>
<g opacity="0.6">
<path d="M954.722 733.027C918.682 697.29 923.556 665.687 930.498 654.353" stroke="url(#paint23_linear_1912_2901)" stroke-width="10"/>
<path d="M773.56 745.635C767.302 660.787 728.307 682.728 709.592 704.305" stroke="url(#paint24_linear_1912_2901)" stroke-width="10"/>
<path opacity="0.94" d="M865.862 844.012C839.905 865.98 819.096 860.881 811.937 855.586" stroke="url(#paint25_linear_1912_2901)" stroke-width="10"/>
<path opacity="0.73" d="M940.131 925.44C968.078 963.263 989.145 943.6 996.186 929.041" stroke="url(#paint26_linear_1912_2901)" stroke-width="10"/>
<path opacity="0.73" d="M50.1312 948.44C78.0776 986.263 99.1451 966.6 106.186 952.041" stroke="url(#paint27_linear_1912_2901)" stroke-width="10"/>
<path opacity="0.98" d="M1141.94 794.186C1087.22 787.81 1087.17 821.568 1093.99 839.244" stroke="url(#paint28_linear_1912_2901)" stroke-width="10"/>
<path opacity="0.75" d="M242.358 690.6C199.333 675.24 192.997 702.508 195.207 718.062" stroke="url(#paint29_linear_1912_2901)" stroke-width="10"/>
<path opacity="0.82" d="M81.1521 611.25C10.9525 604.309 11.6459 647.531 20.7676 670.009" stroke="url(#paint30_linear_1912_2901)" stroke-width="10"/>
<path opacity="0.79" d="M1079.68 581.676C1081.3 525.265 1046.85 528.231 1029.42 536.765" stroke="url(#paint31_linear_1912_2901)" stroke-width="10"/>
<path opacity="0.7" d="M1258 869.957C1302.75 956.964 1334.17 916.215 1344.28 884.964" stroke="url(#paint32_linear_1912_2901)" stroke-width="10"/>
<path opacity="0.7" d="M299.308 905.806C344.058 992.812 375.479 952.063 385.595 920.813" stroke="url(#paint33_linear_1912_2901)" stroke-width="10"/>
<path opacity="0.97" d="M1266.01 750.324C1233.05 738.485 1226.89 717.301 1227.92 708.189" stroke="url(#paint34_linear_1912_2901)" stroke-width="10"/>
<path opacity="0.97" d="M329.014 784.324C296.056 772.485 289.888 751.301 290.924 742.189" stroke="url(#paint35_linear_1912_2901)" stroke-width="10"/>
<path opacity="0.78" d="M1195.21 548.526C1184.03 607.363 1149.89 623.448 1134.23 624.136" stroke="url(#paint36_linear_1912_2901)" stroke-width="10"/>
<path opacity="0.78" d="M305.209 571.526C294.03 630.363 259.898 646.448 244.229 647.136" stroke="url(#paint37_linear_1912_2901)" stroke-width="10"/>
<path opacity="0.83" d="M1324.06 641.877C1373.24 616.583 1350.2 598.824 1332.54 593.106" stroke="url(#paint38_linear_1912_2901)" stroke-width="10"/>
<path opacity="0.83" d="M497.051 632.581C546.228 607.288 523.196 589.528 505.533 583.81" stroke="url(#paint39_linear_1912_2901)" stroke-width="10"/>
<path opacity="0.74" d="M1389.68 781.001C1424.2 853.855 1466.13 827.735 1482.79 805.568" stroke="url(#paint40_linear_1912_2901)" stroke-width="10"/>
<path opacity="0.74" d="M565.43 823.001C583.04 860.165 604.43 846.841 612.924 835.533" stroke="url(#paint41_linear_1912_2901)" stroke-width="10"/>
<path opacity="0.71" d="M1399 659.187C1457.84 667.204 1475.53 700.165 1477.03 715.644" stroke="url(#paint42_linear_1912_2901)" stroke-width="10"/>
<path opacity="0.71" d="M529.586 675.69C588.425 683.707 606.123 716.668 607.617 732.147" stroke="url(#paint43_linear_1912_2901)" stroke-width="10"/>
<path opacity="0.91" d="M1577.38 556.032C1509.37 558.666 1525.82 590.456 1542.55 606.022" stroke="url(#paint44_linear_1912_2901)" stroke-width="10"/>
<path opacity="0.84" d="M1536 758.071C1587.76 770.745 1600.46 801.824 1600.35 815.779" stroke="url(#paint45_linear_1912_2901)" stroke-width="10"/>
</g>
<g opacity="0.6">
<path d="M954.722 214.026C918.682 178.289 923.556 146.686 930.498 135.352" stroke="url(#paint46_linear_1912_2901)" stroke-width="10"/>
<path d="M773.559 226.635C767.301 141.787 728.306 163.728 709.591 185.305" stroke="url(#paint47_linear_1912_2901)" stroke-width="10"/>
<path opacity="0.94" d="M865.862 325.011C839.905 346.979 819.096 341.88 811.937 336.585" stroke="url(#paint48_linear_1912_2901)" stroke-width="10"/>
<path opacity="0.73" d="M940.131 406.439C968.078 444.262 989.145 424.599 996.186 410.04" stroke="url(#paint49_linear_1912_2901)" stroke-width="10"/>
<path opacity="0.73" d="M50.1312 429.439C78.0776 467.262 99.1451 447.599 106.186 433.04" stroke="url(#paint50_linear_1912_2901)" stroke-width="10"/>
<path opacity="0.98" d="M1141.94 275.185C1087.22 268.809 1087.17 302.567 1093.99 320.243" stroke="url(#paint51_linear_1912_2901)" stroke-width="10"/>
<path opacity="0.75" d="M242.358 171.6C199.333 156.24 192.997 183.508 195.207 199.062" stroke="url(#paint52_linear_1912_2901)" stroke-width="10"/>
<path opacity="0.82" d="M81.1521 92.249C10.9525 85.3084 11.6459 128.53 20.7676 151.008" stroke="url(#paint53_linear_1912_2901)" stroke-width="10"/>
<path opacity="0.79" d="M1079.68 62.6756C1081.3 6.26538 1046.85 9.23071 1029.42 17.7646" stroke="url(#paint54_linear_1912_2901)" stroke-width="10"/>
<path opacity="0.7" d="M1258 350.957C1302.75 437.963 1334.17 397.214 1344.28 365.963" stroke="url(#paint55_linear_1912_2901)" stroke-width="10"/>
<path opacity="0.7" d="M299.308 386.806C344.058 473.812 375.479 433.063 385.595 401.813" stroke="url(#paint56_linear_1912_2901)" stroke-width="10"/>
<path opacity="0.97" d="M1266.01 231.323C1233.05 219.484 1226.88 198.3 1227.92 189.188" stroke="url(#paint57_linear_1912_2901)" stroke-width="10"/>
<path opacity="0.97" d="M329.014 265.323C296.056 253.484 289.888 232.3 290.924 223.188" stroke="url(#paint58_linear_1912_2901)" stroke-width="10"/>
<path opacity="0.78" d="M1195.2 29.5247C1184.02 88.3622 1149.89 104.447 1134.22 105.135" stroke="url(#paint59_linear_1912_2901)" stroke-width="10"/>
<path opacity="0.78" d="M305.209 52.5247C294.03 111.362 259.898 127.447 244.229 128.135" stroke="url(#paint60_linear_1912_2901)" stroke-width="10"/>
<path opacity="0.83" d="M1324.06 122.876C1373.24 97.5824 1350.2 79.8231 1332.54 74.1051" stroke="url(#paint61_linear_1912_2901)" stroke-width="10"/>
<path opacity="0.83" d="M497.051 113.58C546.228 88.2865 523.196 70.5272 505.533 64.8092" stroke="url(#paint62_linear_1912_2901)" stroke-width="10"/>
<path opacity="0.74" d="M1389.68 262C1424.2 334.854 1466.13 308.734 1482.78 286.567" stroke="url(#paint63_linear_1912_2901)" stroke-width="10"/>
<path opacity="0.74" d="M565.429 304C583.039 341.164 604.429 327.84 612.923 316.532" stroke="url(#paint64_linear_1912_2901)" stroke-width="10"/>
<path opacity="0.71" d="M1399 140.186C1457.84 148.203 1475.53 181.164 1477.03 196.643" stroke="url(#paint65_linear_1912_2901)" stroke-width="10"/>
<path opacity="0.71" d="M529.586 156.689C588.425 164.706 606.123 197.667 607.617 213.146" stroke="url(#paint66_linear_1912_2901)" stroke-width="10"/>
<path opacity="0.91" d="M1577.38 37.0309C1509.37 39.6653 1525.82 71.455 1542.55 87.0206" stroke="url(#paint67_linear_1912_2901)" stroke-width="10"/>
<path opacity="0.84" d="M1536 239.07C1587.76 251.744 1600.46 282.823 1600.34 296.778" stroke="url(#paint68_linear_1912_2901)" stroke-width="10"/>
</g>
<g opacity="0.2">
<path d="M954.722 1808.03C918.682 1772.29 923.556 1740.69 930.498 1729.35" stroke="url(#paint69_linear_1912_2901)" stroke-width="10"/>
<path opacity="0.79" d="M867.132 1610.39C813.837 1591.84 806.274 1625.58 809.154 1644.77" stroke="url(#paint70_linear_1912_2901)" stroke-width="10"/>
<path d="M773.559 1820.63C767.301 1735.79 728.306 1757.73 709.591 1779.3" stroke="url(#paint71_linear_1912_2901)" stroke-width="10"/>
<path opacity="0.79" d="M830.139 1969.9C840.752 2011.72 823.366 2032.61 813.346 2037.83" stroke="url(#paint72_linear_1912_2901)" stroke-width="10"/>
<path opacity="0.73" d="M50.1312 2023.44C78.0776 2061.26 99.1451 2041.6 106.186 2027.04" stroke="url(#paint73_linear_1912_2901)" stroke-width="10"/>
<path opacity="0.98" d="M1141.94 1869.19C1087.22 1862.81 1087.17 1896.57 1093.99 1914.24" stroke="url(#paint74_linear_1912_2901)" stroke-width="10"/>
<path opacity="0.82" d="M81.1521 1686.25C10.9525 1679.31 11.6459 1722.53 20.7676 1745.01" stroke="url(#paint75_linear_1912_2901)" stroke-width="10"/>
<path opacity="0.79" d="M1079.68 1656.68C1081.3 1600.26 1046.85 1603.23 1029.42 1611.76" stroke="url(#paint76_linear_1912_2901)" stroke-width="10"/>
<path opacity="0.7" d="M1258 1944.96C1302.75 2031.96 1334.17 1991.21 1344.28 1959.96" stroke="url(#paint77_linear_1912_2901)" stroke-width="10"/>
<path opacity="0.7" d="M299.308 1980.81C344.058 2067.81 375.479 2027.06 385.595 1995.81" stroke="url(#paint78_linear_1912_2901)" stroke-width="10"/>
<path opacity="0.97" d="M329.014 1859.32C296.056 1847.48 289.888 1826.3 290.924 1817.19" stroke="url(#paint79_linear_1912_2901)" stroke-width="10"/>
<path opacity="0.78" d="M1195.21 1623.52C1184.03 1682.36 1149.89 1698.45 1134.23 1699.13" stroke="url(#paint80_linear_1912_2901)" stroke-width="10"/>
<path opacity="0.78" d="M305.209 1646.52C294.03 1705.36 259.898 1721.45 244.229 1722.13" stroke="url(#paint81_linear_1912_2901)" stroke-width="10"/>
<path opacity="0.83" d="M497.051 1707.58C546.228 1682.29 523.196 1664.53 505.533 1658.81" stroke="url(#paint82_linear_1912_2901)" stroke-width="10"/>
<path opacity="0.74" d="M565.429 1898C583.039 1935.16 604.429 1921.84 612.923 1910.53" stroke="url(#paint83_linear_1912_2901)" stroke-width="10"/>
<path opacity="0.71" d="M1399 1734.19C1457.84 1742.2 1475.53 1775.16 1477.03 1790.64" stroke="url(#paint84_linear_1912_2901)" stroke-width="10"/>
<path opacity="0.91" d="M1577.38 1631.03C1509.37 1633.67 1525.82 1665.46 1542.55 1681.02" stroke="url(#paint85_linear_1912_2901)" stroke-width="10"/>
<path opacity="0.84" d="M1536 1833.07C1587.76 1845.74 1600.46 1876.82 1600.34 1890.78" stroke="url(#paint86_linear_1912_2901)" stroke-width="10"/>
</g>
<defs>
<linearGradient id="paint0_linear_1912_2901" x1="926.951" y1="1213.84" x2="951.77" y2="1212.01" gradientUnits="userSpaceOnUse">
<stop stop-color="#5C27D1"/>
<stop offset="1" stop-color="#F2FDFF"/>
</linearGradient>
<linearGradient id="paint1_linear_1912_2901" x1="710.648" y1="1237.64" x2="771.239" y2="1233.17" gradientUnits="userSpaceOnUse">
<stop stop-color="#F9137D"/>
<stop offset="1" stop-color="#F69A2B"/>
</linearGradient>
<linearGradient id="paint2_linear_1912_2901" x1="838.756" y1="1379.32" x2="838.983" y2="1362.64" gradientUnits="userSpaceOnUse">
<stop stop-color="#5C27D1"/>
<stop offset="1" stop-color="#F2FDFF"/>
</linearGradient>
<linearGradient id="paint3_linear_1912_2901" x1="995.549" y1="1457.94" x2="939.495" y2="1454.34" gradientUnits="userSpaceOnUse">
<stop stop-color="#5C27D1"/>
<stop offset="1" stop-color="#F9137D"/>
</linearGradient>
<linearGradient id="paint4_linear_1912_2901" x1="105.549" y1="1480.94" x2="49.4948" y2="1477.34" gradientUnits="userSpaceOnUse">
<stop stop-color="#5C27D1"/>
<stop offset="1" stop-color="#F9137D"/>
</linearGradient>
<linearGradient id="paint5_linear_1912_2901" x1="1086.03" y1="1349.77" x2="1133.98" y2="1304.71" gradientUnits="userSpaceOnUse">
<stop stop-color="#5C27D1"/>
<stop offset="1" stop-color="#F9137D"/>
</linearGradient>
<linearGradient id="paint6_linear_1912_2901" x1="190.354" y1="1228.73" x2="237.505" y2="1201.27" gradientUnits="userSpaceOnUse">
<stop stop-color="#5C27D1"/>
<stop offset="1" stop-color="#F9137D"/>
</linearGradient>
<linearGradient id="paint7_linear_1912_2901" x1="10.3831" y1="1178.34" x2="70.7676" y2="1119.58" gradientUnits="userSpaceOnUse">
<stop stop-color="#5C27D1"/>
<stop offset="1" stop-color="#F9137D"/>
</linearGradient>
<linearGradient id="paint8_linear_1912_2901" x1="1037.36" y1="1046.88" x2="1087.62" y2="1091.79" gradientUnits="userSpaceOnUse">
<stop stop-color="#5C27D1"/>
<stop offset="1" stop-color="#F9137D"/>
</linearGradient>
<linearGradient id="paint9_linear_1912_2901" x1="1336.72" y1="1389.26" x2="1274.59" y2="1421.22" gradientUnits="userSpaceOnUse">
<stop stop-color="#F9137D"/>
<stop offset="1" stop-color="#F69A2B"/>
</linearGradient>
<linearGradient id="paint10_linear_1912_2901" x1="378.033" y1="1425.11" x2="315.901" y2="1457.07" gradientUnits="userSpaceOnUse">
<stop stop-color="#F9137D"/>
<stop offset="1" stop-color="#F69A2B"/>
</linearGradient>
<linearGradient id="paint11_linear_1912_2901" x1="1237.51" y1="1253.54" x2="1252.5" y2="1245.16" gradientUnits="userSpaceOnUse">
<stop stop-color="#5C27D1"/>
<stop offset="1" stop-color="#F2FDFF"/>
</linearGradient>
<linearGradient id="paint12_linear_1912_2901" x1="300.514" y1="1287.54" x2="315.501" y2="1279.16" gradientUnits="userSpaceOnUse">
<stop stop-color="#5C27D1"/>
<stop offset="1" stop-color="#F2FDFF"/>
</linearGradient>
<linearGradient id="paint13_linear_1912_2901" x1="1176.18" y1="1119.89" x2="1158.01" y2="1096.81" gradientUnits="userSpaceOnUse">
<stop stop-color="#5C27D1"/>
<stop offset="1" stop-color="#F2FDFF"/>
</linearGradient>
<linearGradient id="paint14_linear_1912_2901" x1="286.181" y1="1142.89" x2="268.014" y2="1119.81" gradientUnits="userSpaceOnUse">
<stop stop-color="#5C27D1"/>
<stop offset="1" stop-color="#F2FDFF"/>
</linearGradient>
<linearGradient id="paint15_linear_1912_2901" x1="1324.23" y1="1116.38" x2="1342.3" y2="1151.5" gradientUnits="userSpaceOnUse">
<stop stop-color="#F9137D"/>
<stop offset="1" stop-color="#F69A2B"/>
</linearGradient>
<linearGradient id="paint16_linear_1912_2901" x1="497.223" y1="1107.08" x2="515.286" y2="1142.2" gradientUnits="userSpaceOnUse">
<stop stop-color="#F9137D"/>
<stop offset="1" stop-color="#F69A2B"/>
</linearGradient>
<linearGradient id="paint17_linear_1912_2901" x1="1478.44" y1="1341.02" x2="1385.34" y2="1316.45" gradientUnits="userSpaceOnUse">
<stop stop-color="#5C27D1"/>
<stop offset="1" stop-color="#F9137D"/>
</linearGradient>
<linearGradient id="paint18_linear_1912_2901" x1="610.708" y1="1362.93" x2="563.215" y2="1350.39" gradientUnits="userSpaceOnUse">
<stop stop-color="#5C27D1"/>
<stop offset="1" stop-color="#F9137D"/>
</linearGradient>
<linearGradient id="paint19_linear_1912_2901" x1="1451.83" y1="1194.31" x2="1429.93" y2="1213.5" gradientUnits="userSpaceOnUse">
<stop stop-color="#5C27D1"/>
<stop offset="1" stop-color="#F2FDFF"/>
</linearGradient>
<linearGradient id="paint20_linear_1912_2901" x1="582.42" y1="1210.81" x2="560.517" y2="1230" gradientUnits="userSpaceOnUse">
<stop stop-color="#5C27D1"/>
<stop offset="1" stop-color="#F2FDFF"/>
</linearGradient>
<linearGradient id="paint21_linear_1912_2901" x1="1554.05" y1="1124.58" x2="1552.16" y2="1076.01" gradientUnits="userSpaceOnUse">
<stop stop-color="#F9137D"/>
<stop offset="1" stop-color="#F69A2B"/>
</linearGradient>
<linearGradient id="paint22_linear_1912_2901" x1="1581.64" y1="1296.42" x2="1560.29" y2="1311.49" gradientUnits="userSpaceOnUse">
<stop stop-color="#5C27D1"/>
<stop offset="1" stop-color="#F2FDFF"/>
</linearGradient>
<linearGradient id="paint23_linear_1912_2901" x1="926.951" y1="694.845" x2="951.77" y2="693.014" gradientUnits="userSpaceOnUse">
<stop stop-color="#5C27D1"/>
<stop offset="1" stop-color="#F2FDFF"/>
</linearGradient>
<linearGradient id="paint24_linear_1912_2901" x1="710.649" y1="718.642" x2="771.24" y2="714.173" gradientUnits="userSpaceOnUse">
<stop stop-color="#F9137D"/>
<stop offset="1" stop-color="#F69A2B"/>
</linearGradient>
<linearGradient id="paint25_linear_1912_2901" x1="838.756" y1="860.318" x2="838.983" y2="843.645" gradientUnits="userSpaceOnUse">
<stop stop-color="#5C27D1"/>
<stop offset="1" stop-color="#F2FDFF"/>
</linearGradient>
<linearGradient id="paint26_linear_1912_2901" x1="995.549" y1="938.947" x2="939.495" y2="935.345" gradientUnits="userSpaceOnUse">
<stop stop-color="#5C27D1"/>
<stop offset="1" stop-color="#F9137D"/>
</linearGradient>
<linearGradient id="paint27_linear_1912_2901" x1="105.549" y1="961.947" x2="49.4948" y2="958.345" gradientUnits="userSpaceOnUse">
<stop stop-color="#5C27D1"/>
<stop offset="1" stop-color="#F9137D"/>
</linearGradient>
<linearGradient id="paint28_linear_1912_2901" x1="1086.03" y1="830.77" x2="1133.98" y2="785.713" gradientUnits="userSpaceOnUse">
<stop stop-color="#5C27D1"/>
<stop offset="1" stop-color="#F9137D"/>
</linearGradient>
<linearGradient id="paint29_linear_1912_2901" x1="190.354" y1="709.73" x2="237.505" y2="682.268" gradientUnits="userSpaceOnUse">
<stop stop-color="#5C27D1"/>
<stop offset="1" stop-color="#F9137D"/>
</linearGradient>
<linearGradient id="paint30_linear_1912_2901" x1="10.3841" y1="659.338" x2="70.7686" y2="600.579" gradientUnits="userSpaceOnUse">
<stop stop-color="#5C27D1"/>
<stop offset="1" stop-color="#F9137D"/>
</linearGradient>
<linearGradient id="paint31_linear_1912_2901" x1="1037.36" y1="527.883" x2="1087.62" y2="572.793" gradientUnits="userSpaceOnUse">
<stop stop-color="#5C27D1"/>
<stop offset="1" stop-color="#F9137D"/>
</linearGradient>
<linearGradient id="paint32_linear_1912_2901" x1="1336.72" y1="870.263" x2="1274.59" y2="902.219" gradientUnits="userSpaceOnUse">
<stop stop-color="#F9137D"/>
<stop offset="1" stop-color="#F69A2B"/>
</linearGradient>
<linearGradient id="paint33_linear_1912_2901" x1="378.034" y1="906.111" x2="315.902" y2="938.068" gradientUnits="userSpaceOnUse">
<stop stop-color="#F9137D"/>
<stop offset="1" stop-color="#F69A2B"/>
</linearGradient>
<linearGradient id="paint34_linear_1912_2901" x1="1237.51" y1="734.545" x2="1252.5" y2="726.162" gradientUnits="userSpaceOnUse">
<stop stop-color="#5C27D1"/>
<stop offset="1" stop-color="#F2FDFF"/>
</linearGradient>
<linearGradient id="paint35_linear_1912_2901" x1="300.514" y1="768.545" x2="315.501" y2="760.162" gradientUnits="userSpaceOnUse">
<stop stop-color="#5C27D1"/>
<stop offset="1" stop-color="#F2FDFF"/>
</linearGradient>
<linearGradient id="paint36_linear_1912_2901" x1="1176.18" y1="600.887" x2="1158.01" y2="577.815" gradientUnits="userSpaceOnUse">
<stop stop-color="#5C27D1"/>
<stop offset="1" stop-color="#F2FDFF"/>
</linearGradient>
<linearGradient id="paint37_linear_1912_2901" x1="286.181" y1="623.887" x2="268.014" y2="600.815" gradientUnits="userSpaceOnUse">
<stop stop-color="#5C27D1"/>
<stop offset="1" stop-color="#F2FDFF"/>
</linearGradient>
<linearGradient id="paint38_linear_1912_2901" x1="1324.23" y1="597.38" x2="1342.29" y2="632.498" gradientUnits="userSpaceOnUse">
<stop stop-color="#F9137D"/>
<stop offset="1" stop-color="#F69A2B"/>
</linearGradient>
<linearGradient id="paint39_linear_1912_2901" x1="497.223" y1="588.084" x2="515.286" y2="623.202" gradientUnits="userSpaceOnUse">
<stop stop-color="#F9137D"/>
<stop offset="1" stop-color="#F69A2B"/>
</linearGradient>
<linearGradient id="paint40_linear_1912_2901" x1="1478.44" y1="822.021" x2="1385.34" y2="797.454" gradientUnits="userSpaceOnUse">
<stop stop-color="#5C27D1"/>
<stop offset="1" stop-color="#F9137D"/>
</linearGradient>
<linearGradient id="paint41_linear_1912_2901" x1="610.709" y1="843.926" x2="563.215" y2="831.394" gradientUnits="userSpaceOnUse">
<stop stop-color="#5C27D1"/>
<stop offset="1" stop-color="#F9137D"/>
</linearGradient>
<linearGradient id="paint42_linear_1912_2901" x1="1451.83" y1="675.311" x2="1429.93" y2="694.497" gradientUnits="userSpaceOnUse">
<stop stop-color="#5C27D1"/>
<stop offset="1" stop-color="#F2FDFF"/>
</linearGradient>
<linearGradient id="paint43_linear_1912_2901" x1="582.42" y1="691.814" x2="560.517" y2="711" gradientUnits="userSpaceOnUse">
<stop stop-color="#5C27D1"/>
<stop offset="1" stop-color="#F2FDFF"/>
</linearGradient>
<linearGradient id="paint44_linear_1912_2901" x1="1554.04" y1="605.576" x2="1552.16" y2="557.009" gradientUnits="userSpaceOnUse">
<stop stop-color="#F9137D"/>
<stop offset="1" stop-color="#F69A2B"/>
</linearGradient>
<linearGradient id="paint45_linear_1912_2901" x1="1581.64" y1="777.417" x2="1560.29" y2="792.487" gradientUnits="userSpaceOnUse">
<stop stop-color="#5C27D1"/>
<stop offset="1" stop-color="#F2FDFF"/>
</linearGradient>
<linearGradient id="paint46_linear_1912_2901" x1="926.951" y1="175.844" x2="951.77" y2="174.013" gradientUnits="userSpaceOnUse">
<stop stop-color="#5C27D1"/>
<stop offset="1" stop-color="#F2FDFF"/>
</linearGradient>
<linearGradient id="paint47_linear_1912_2901" x1="710.648" y1="199.642" x2="771.239" y2="195.173" gradientUnits="userSpaceOnUse">
<stop stop-color="#F9137D"/>
<stop offset="1" stop-color="#F69A2B"/>
</linearGradient>
<linearGradient id="paint48_linear_1912_2901" x1="838.756" y1="341.317" x2="838.983" y2="324.644" gradientUnits="userSpaceOnUse">
<stop stop-color="#5C27D1"/>
<stop offset="1" stop-color="#F2FDFF"/>
</linearGradient>
<linearGradient id="paint49_linear_1912_2901" x1="995.549" y1="419.946" x2="939.495" y2="416.344" gradientUnits="userSpaceOnUse">
<stop stop-color="#5C27D1"/>
<stop offset="1" stop-color="#F9137D"/>
</linearGradient>
<linearGradient id="paint50_linear_1912_2901" x1="105.549" y1="442.946" x2="49.4948" y2="439.344" gradientUnits="userSpaceOnUse">
<stop stop-color="#5C27D1"/>
<stop offset="1" stop-color="#F9137D"/>
</linearGradient>
<linearGradient id="paint51_linear_1912_2901" x1="1086.03" y1="311.77" x2="1133.98" y2="266.712" gradientUnits="userSpaceOnUse">
<stop stop-color="#5C27D1"/>
<stop offset="1" stop-color="#F9137D"/>
</linearGradient>
<linearGradient id="paint52_linear_1912_2901" x1="190.354" y1="190.73" x2="237.505" y2="163.268" gradientUnits="userSpaceOnUse">
<stop stop-color="#5C27D1"/>
<stop offset="1" stop-color="#F9137D"/>
</linearGradient>
<linearGradient id="paint53_linear_1912_2901" x1="10.3841" y1="140.337" x2="70.7686" y2="81.5782" gradientUnits="userSpaceOnUse">
<stop stop-color="#5C27D1"/>
<stop offset="1" stop-color="#F9137D"/>
</linearGradient>
<linearGradient id="paint54_linear_1912_2901" x1="1037.35" y1="8.88259" x2="1087.62" y2="53.7935" gradientUnits="userSpaceOnUse">
<stop stop-color="#5C27D1"/>
<stop offset="1" stop-color="#F9137D"/>
</linearGradient>
<linearGradient id="paint55_linear_1912_2901" x1="1336.72" y1="351.262" x2="1274.59" y2="383.218" gradientUnits="userSpaceOnUse">
<stop stop-color="#F9137D"/>
<stop offset="1" stop-color="#F69A2B"/>
</linearGradient>
<linearGradient id="paint56_linear_1912_2901" x1="378.034" y1="387.111" x2="315.902" y2="419.068" gradientUnits="userSpaceOnUse">
<stop stop-color="#F9137D"/>
<stop offset="1" stop-color="#F69A2B"/>
</linearGradient>
<linearGradient id="paint57_linear_1912_2901" x1="1237.51" y1="215.544" x2="1252.5" y2="207.161" gradientUnits="userSpaceOnUse">
<stop stop-color="#5C27D1"/>
<stop offset="1" stop-color="#F2FDFF"/>
</linearGradient>
<linearGradient id="paint58_linear_1912_2901" x1="300.514" y1="249.544" x2="315.501" y2="241.161" gradientUnits="userSpaceOnUse">
<stop stop-color="#5C27D1"/>
<stop offset="1" stop-color="#F2FDFF"/>
</linearGradient>
<linearGradient id="paint59_linear_1912_2901" x1="1176.18" y1="81.886" x2="1158.01" y2="58.814" gradientUnits="userSpaceOnUse">
<stop stop-color="#5C27D1"/>
<stop offset="1" stop-color="#F2FDFF"/>
</linearGradient>
<linearGradient id="paint60_linear_1912_2901" x1="286.181" y1="104.886" x2="268.014" y2="81.814" gradientUnits="userSpaceOnUse">
<stop stop-color="#5C27D1"/>
<stop offset="1" stop-color="#F2FDFF"/>
</linearGradient>
<linearGradient id="paint61_linear_1912_2901" x1="1324.23" y1="78.379" x2="1342.29" y2="113.497" gradientUnits="userSpaceOnUse">
<stop stop-color="#F9137D"/>
<stop offset="1" stop-color="#F69A2B"/>
</linearGradient>
<linearGradient id="paint62_linear_1912_2901" x1="497.223" y1="69.0831" x2="515.286" y2="104.201" gradientUnits="userSpaceOnUse">
<stop stop-color="#F9137D"/>
<stop offset="1" stop-color="#F69A2B"/>
</linearGradient>
<linearGradient id="paint63_linear_1912_2901" x1="1478.44" y1="303.02" x2="1385.34" y2="278.453" gradientUnits="userSpaceOnUse">
<stop stop-color="#5C27D1"/>
<stop offset="1" stop-color="#F9137D"/>
</linearGradient>
<linearGradient id="paint64_linear_1912_2901" x1="610.708" y1="324.925" x2="563.215" y2="312.393" gradientUnits="userSpaceOnUse">
<stop stop-color="#5C27D1"/>
<stop offset="1" stop-color="#F9137D"/>
</linearGradient>
<linearGradient id="paint65_linear_1912_2901" x1="1451.83" y1="156.31" x2="1429.93" y2="175.496" gradientUnits="userSpaceOnUse">
<stop stop-color="#5C27D1"/>
<stop offset="1" stop-color="#F2FDFF"/>
</linearGradient>
<linearGradient id="paint66_linear_1912_2901" x1="582.42" y1="172.813" x2="560.517" y2="191.999" gradientUnits="userSpaceOnUse">
<stop stop-color="#5C27D1"/>
<stop offset="1" stop-color="#F2FDFF"/>
</linearGradient>
<linearGradient id="paint67_linear_1912_2901" x1="1554.04" y1="86.5755" x2="1552.16" y2="38.0077" gradientUnits="userSpaceOnUse">
<stop stop-color="#F9137D"/>
<stop offset="1" stop-color="#F69A2B"/>
</linearGradient>
<linearGradient id="paint68_linear_1912_2901" x1="1581.64" y1="258.416" x2="1560.29" y2="273.486" gradientUnits="userSpaceOnUse">
<stop stop-color="#5C27D1"/>
<stop offset="1" stop-color="#F2FDFF"/>
</linearGradient>
<linearGradient id="paint69_linear_1912_2901" x1="926.951" y1="1769.84" x2="951.77" y2="1768.01" gradientUnits="userSpaceOnUse">
<stop stop-color="#5C27D1"/>
<stop offset="1" stop-color="#F2FDFF"/>
</linearGradient>
<linearGradient id="paint70_linear_1912_2901" x1="803.079" y1="1634.53" x2="861.057" y2="1600.15" gradientUnits="userSpaceOnUse">
<stop stop-color="#5C27D1"/>
<stop offset="1" stop-color="#F9137D"/>
</linearGradient>
<linearGradient id="paint71_linear_1912_2901" x1="710.648" y1="1793.64" x2="771.239" y2="1789.17" gradientUnits="userSpaceOnUse">
<stop stop-color="#F9137D"/>
<stop offset="1" stop-color="#F69A2B"/>
</linearGradient>
<linearGradient id="paint72_linear_1912_2901" x1="833.657" y1="2009.88" x2="814.772" y2="2000.35" gradientUnits="userSpaceOnUse">
<stop stop-color="#5C27D1"/>
<stop offset="1" stop-color="#F2FDFF"/>
</linearGradient>
<linearGradient id="paint73_linear_1912_2901" x1="105.549" y1="2036.95" x2="49.4948" y2="2033.34" gradientUnits="userSpaceOnUse">
<stop stop-color="#5C27D1"/>
<stop offset="1" stop-color="#F9137D"/>
</linearGradient>
<linearGradient id="paint74_linear_1912_2901" x1="1086.03" y1="1905.77" x2="1133.98" y2="1860.71" gradientUnits="userSpaceOnUse">
<stop stop-color="#5C27D1"/>
<stop offset="1" stop-color="#F9137D"/>
</linearGradient>
<linearGradient id="paint75_linear_1912_2901" x1="10.3841" y1="1734.34" x2="70.7686" y2="1675.58" gradientUnits="userSpaceOnUse">
<stop stop-color="#5C27D1"/>
<stop offset="1" stop-color="#F9137D"/>
</linearGradient>
<linearGradient id="paint76_linear_1912_2901" x1="1037.35" y1="1602.88" x2="1087.62" y2="1647.79" gradientUnits="userSpaceOnUse">
<stop stop-color="#5C27D1"/>
<stop offset="1" stop-color="#F9137D"/>
</linearGradient>
<linearGradient id="paint77_linear_1912_2901" x1="1336.72" y1="1945.26" x2="1274.59" y2="1977.22" gradientUnits="userSpaceOnUse">
<stop stop-color="#F9137D"/>
<stop offset="1" stop-color="#F69A2B"/>
</linearGradient>
<linearGradient id="paint78_linear_1912_2901" x1="378.034" y1="1981.11" x2="315.902" y2="2013.07" gradientUnits="userSpaceOnUse">
<stop stop-color="#F9137D"/>
<stop offset="1" stop-color="#F69A2B"/>
</linearGradient>
<linearGradient id="paint79_linear_1912_2901" x1="300.514" y1="1843.54" x2="315.501" y2="1835.16" gradientUnits="userSpaceOnUse">
<stop stop-color="#5C27D1"/>
<stop offset="1" stop-color="#F2FDFF"/>
</linearGradient>
<linearGradient id="paint80_linear_1912_2901" x1="1176.18" y1="1675.89" x2="1158.01" y2="1652.81" gradientUnits="userSpaceOnUse">
<stop stop-color="#5C27D1"/>
<stop offset="1" stop-color="#F2FDFF"/>
</linearGradient>
<linearGradient id="paint81_linear_1912_2901" x1="286.181" y1="1698.89" x2="268.014" y2="1675.81" gradientUnits="userSpaceOnUse">
<stop stop-color="#5C27D1"/>
<stop offset="1" stop-color="#F2FDFF"/>
</linearGradient>
<linearGradient id="paint82_linear_1912_2901" x1="497.223" y1="1663.08" x2="515.286" y2="1698.2" gradientUnits="userSpaceOnUse">
<stop stop-color="#F9137D"/>
<stop offset="1" stop-color="#F69A2B"/>
</linearGradient>
<linearGradient id="paint83_linear_1912_2901" x1="610.708" y1="1918.93" x2="563.215" y2="1906.39" gradientUnits="userSpaceOnUse">
<stop stop-color="#5C27D1"/>
<stop offset="1" stop-color="#F9137D"/>
</linearGradient>
<linearGradient id="paint84_linear_1912_2901" x1="1451.83" y1="1750.31" x2="1429.93" y2="1769.5" gradientUnits="userSpaceOnUse">
<stop stop-color="#5C27D1"/>
<stop offset="1" stop-color="#F2FDFF"/>
</linearGradient>
<linearGradient id="paint85_linear_1912_2901" x1="1554.04" y1="1680.58" x2="1552.16" y2="1632.01" gradientUnits="userSpaceOnUse">
<stop stop-color="#F9137D"/>
<stop offset="1" stop-color="#F69A2B"/>
</linearGradient>
<linearGradient id="paint86_linear_1912_2901" x1="1581.64" y1="1852.42" x2="1560.29" y2="1867.49" gradientUnits="userSpaceOnUse">
<stop stop-color="#5C27D1"/>
<stop offset="1" stop-color="#F2FDFF"/>
</linearGradient>
</defs>
</svg>
