<svg width="28" height="22" viewBox="0 0 28 22" fill="none" xmlns="http://www.w3.org/2000/svg">
<path d="M21.1396 16.7959C22.0611 16.7959 22.9463 16.8928 23.7949 17.085C24.6327 17.2747 25.4642 17.594 26.29 18.0459L26.3057 18.0547L26.3223 18.0625C26.6927 18.2312 26.9756 18.4891 27.1807 18.8477C27.3866 19.2077 27.5 19.65 27.5 20.1934V21.5H14.7803V20.1934C14.7803 19.6496 14.8929 19.2155 15.0957 18.8701C15.3021 18.5188 15.5909 18.2471 15.9746 18.0527L15.9756 18.0537L15.9805 18.0508C16.81 17.6196 17.6468 17.304 18.4912 17.1016C19.3378 16.8986 20.2204 16.7959 21.1396 16.7959ZM11.1914 13.2891C11.929 13.2891 12.5761 13.3237 13.1348 13.3916C13.4328 13.4278 13.7443 13.4737 14.0693 13.5293L13.8369 13.7666L13.1201 14.4912C12.8705 14.4611 12.6093 14.4418 12.3369 14.4326C11.9807 14.4206 11.6017 14.415 11.2002 14.415C9.84437 14.415 8.5162 14.5539 7.2168 14.833C5.90227 15.1154 4.49492 15.6339 2.99707 16.3799L2.99414 16.3818C2.57234 16.5954 2.23761 16.927 1.98535 17.3525C1.73717 17.7712 1.59961 18.2123 1.59961 18.6699V20.374H11.6797V21.5H0.5V18.6699C0.5 17.9538 0.675533 17.3038 1.02539 16.71C1.36425 16.135 1.87255 15.6865 2.57422 15.3701C4.12187 14.6721 5.596 14.1516 6.99707 13.8057C8.39388 13.4608 9.792 13.2891 11.1914 13.2891ZM21.1396 8.01074C21.9297 8.01074 22.5799 8.28049 23.1201 8.82715C23.6606 9.37427 23.9297 10.0355 23.9297 10.8408C23.9296 11.646 23.6606 12.3065 23.1201 12.8535C22.5799 13.4003 21.9299 13.6709 21.1396 13.6709C20.3497 13.6708 19.7003 13.4002 19.1602 12.8535C18.6197 12.3065 18.3497 11.646 18.3496 10.8408C18.3496 10.0355 18.6196 9.37427 19.1602 8.82715C19.7003 8.28066 20.3498 8.01082 21.1396 8.01074ZM11.2002 0.5C12.6216 0.500042 13.7483 0.952676 14.624 1.83887C15.5003 2.72584 15.9502 3.87031 15.9502 5.31445C15.9501 6.75839 15.5002 7.90218 14.624 8.78906C13.7483 9.67528 12.6216 10.1279 11.2002 10.1279C9.77853 10.1279 8.65119 9.67552 7.77539 8.78906C6.89919 7.90218 6.45029 6.75839 6.4502 5.31445C6.4502 3.87031 6.8991 2.72584 7.77539 1.83887C8.65118 0.952443 9.77855 0.5 11.2002 0.5ZM11.2002 1.62598C10.1676 1.62598 9.28337 1.97279 8.58691 2.67773C7.89089 3.38226 7.5498 4.27455 7.5498 5.31445C7.5499 6.35415 7.89102 7.24578 8.58691 7.9502C9.28337 8.65514 10.1676 9.00195 11.2002 9.00195C12.2327 9.00191 13.1171 8.65509 13.8135 7.9502C14.5092 7.24581 14.8495 6.35405 14.8496 5.31445C14.8496 4.27464 14.5094 3.38223 13.8135 2.67773C13.1171 1.97283 12.2327 1.62602 11.2002 1.62598Z" fill="#352D24" stroke="#352D24"/>
</svg>
