<svg width="1452" height="1031" viewBox="0 0 1452 1031" fill="none" xmlns="http://www.w3.org/2000/svg">
<path d="M5.25054 30.8893C5.55323 26.7777 6.01689 18.4395 6.64153 5.87476L6.92377 0.675275L19.2656 1.20823C19.2177 2.21361 19.0977 3.69169 18.9057 5.64249C18.3937 10.8446 17.5355 16.9723 16.3313 24.0254C15.8141 27.2068 15.486 29.2453 15.3468 30.1406C12.7891 31.2525 9.53767 31.6396 5.59249 31.3018L5.25054 30.8893ZM8.311 48.7663C6.64396 48.6022 5.30647 47.9403 4.2985 46.7804C3.34598 45.5756 2.9608 44.0478 3.14296 42.197C3.30051 40.5964 3.98911 39.3005 5.20878 38.3095C6.47897 37.3234 7.94757 36.9124 9.6146 37.0764C11.2311 37.2355 12.5156 37.9175 13.4682 39.1224C14.4712 40.3322 14.894 41.7375 14.7364 43.3381C14.5542 45.1889 13.8786 46.6123 12.7094 47.6083C11.5452 48.5543 10.0791 48.9403 8.311 48.7663Z" fill="#FFB7B7"/>
<path d="M150.756 126.82C150.584 119.74 149.979 105.406 148.944 83.8189L148.556 74.8819L169.525 73.7162C169.611 75.4431 169.654 77.9904 169.654 81.358C169.654 90.3381 169.223 100.959 168.36 113.22C168.015 118.747 167.799 122.287 167.713 123.841C163.571 126.172 158.134 127.381 151.403 127.468L150.756 126.82ZM158.911 156.869C156.063 156.869 153.69 155.962 151.792 154.149C149.979 152.249 149.073 149.702 149.073 146.507C149.073 143.744 150.023 141.413 151.921 139.513C153.906 137.613 156.322 136.664 159.17 136.664C161.931 136.664 164.218 137.613 166.03 139.513C167.928 141.413 168.878 143.744 168.878 146.507C168.878 149.702 167.971 152.249 166.159 154.149C164.347 155.962 161.931 156.869 158.911 156.869Z" fill="#E54141"/>
<path d="M21.6834 520.245C21.5108 513.164 20.9067 498.83 19.8712 477.244L19.4829 468.307L40.452 467.141C40.5382 468.868 40.5814 471.415 40.5814 474.783C40.5814 483.763 40.1499 494.384 39.287 506.645C38.9418 512.171 38.7261 515.711 38.6398 517.266C34.4978 519.597 29.0614 520.806 22.3306 520.892L21.6834 520.245ZM29.838 550.294C26.9903 550.294 24.6173 549.387 22.7189 547.574C20.9067 545.674 20.0007 543.127 20.0007 539.932C20.0007 537.169 20.9499 534.837 22.8483 532.938C24.833 531.038 27.2492 530.088 30.0969 530.088C32.8582 530.088 35.145 531.038 36.9571 532.938C38.8555 534.837 39.8048 537.169 39.8048 539.932C39.8048 543.127 38.8987 545.674 37.0866 547.574C35.2744 549.387 32.8582 550.294 29.838 550.294Z" fill="#DA3232"/>
<path d="M65.9214 210.311C65.5403 205.888 64.6193 196.943 63.1584 183.476L62.5773 177.899L74.8415 176.392C74.9603 177.47 75.0863 179.062 75.2194 181.168C75.5742 186.787 75.7406 193.447 75.7185 201.15C75.7342 204.62 75.7475 206.843 75.7582 207.819C73.4187 209.431 70.2749 210.389 66.3269 210.692L65.9214 210.311ZM71.8961 228.808C70.2243 228.914 68.7953 228.434 67.6092 227.37C66.4703 226.249 65.8377 224.689 65.7115 222.69C65.6023 220.962 66.0674 219.468 67.1069 218.209C68.197 216.947 69.5779 216.263 71.2496 216.158C72.8707 216.055 74.2507 216.565 75.3896 217.686C76.5792 218.804 77.2286 220.227 77.3378 221.956C77.464 223.955 77.0327 225.582 76.044 226.838C75.0518 228.039 73.6691 228.696 71.8961 228.808Z" fill="#F77D7D"/>
<path d="M1.63605 322.483C1.78575 319.904 2.00193 314.676 2.28457 306.799L2.41537 303.539L9.60387 303.695C9.58244 304.325 9.52212 305.252 9.42291 306.477C9.15836 309.742 8.69827 313.591 8.04265 318.025C7.76209 320.025 7.58419 321.306 7.50896 321.869C6.02711 322.602 4.13672 322.891 1.83778 322.737L1.63605 322.483ZM3.533 333.634C2.56145 333.555 1.77853 333.16 1.18424 332.448C0.621946 331.708 0.387856 330.757 0.481974 329.595C0.563374 328.59 0.955907 327.769 1.65957 327.131C2.39268 326.495 3.24501 326.216 4.21656 326.295C5.15867 326.371 5.91088 326.78 6.47317 327.521C7.06491 328.264 7.32008 329.138 7.23868 330.142C7.14457 331.304 6.76039 332.205 6.08617 332.846C5.41449 333.455 4.56343 333.718 3.533 333.634Z" fill="#F6CFCF"/>
<path d="M109.143 408.531C109.11 404.515 108.909 396.383 108.539 384.136L108.407 379.065L119.574 378.569C119.605 379.549 119.607 380.994 119.579 382.903C119.503 387.995 119.185 394.013 118.623 400.959C118.393 404.089 118.249 406.095 118.19 406.975C115.966 408.265 113.064 408.907 109.482 408.903L109.143 408.531ZM113.23 425.633C111.715 425.611 110.46 425.078 109.465 424.035C108.517 422.943 108.056 421.492 108.083 419.681C108.106 418.114 108.63 416.799 109.656 415.737C110.728 414.676 112.022 414.156 113.537 414.179C115.006 414.2 116.215 414.757 117.163 415.848C118.157 416.94 118.643 418.27 118.62 419.836C118.593 421.648 118.089 423.085 117.109 424.148C116.13 425.162 114.837 425.657 113.23 425.633Z" fill="#E38B8B"/>
<path d="M658.062 30.8893C658.365 26.7777 658.828 18.4395 659.453 5.87476L659.735 0.675275L672.077 1.20823C672.029 2.21361 671.909 3.69169 671.717 5.64249C671.205 10.8446 670.347 16.9723 669.143 24.0254C668.626 27.2068 668.297 29.2453 668.158 30.1406C665.601 31.2525 662.349 31.6396 658.404 31.3018L658.062 30.8893ZM661.123 48.7663C659.455 48.6022 658.118 47.9403 657.11 46.7804C656.158 45.5756 655.772 44.0478 655.954 42.197C656.112 40.5964 656.801 39.3005 658.02 38.3095C659.29 37.3234 660.759 36.9124 662.426 37.0764C664.043 37.2355 665.327 37.9175 666.28 39.1224C667.283 40.3322 667.705 41.7375 667.548 43.3381C667.366 45.1889 666.69 46.6123 665.521 47.6083C664.357 48.5543 662.891 48.9403 661.123 48.7663Z" fill="#FFB7B7"/>
<path d="M803.568 126.82C803.396 119.74 802.792 105.406 801.756 83.8189L801.368 74.8819L822.337 73.7162C822.423 75.4431 822.466 77.9904 822.466 81.358C822.466 90.3381 822.035 100.959 821.172 113.22C820.827 118.747 820.611 122.287 820.525 123.841C816.383 126.172 810.946 127.381 804.215 127.468L803.568 126.82ZM811.723 156.869C808.875 156.869 806.502 155.962 804.604 154.149C802.791 152.249 801.885 149.702 801.885 146.507C801.885 143.744 802.835 141.413 804.733 139.513C806.718 137.613 809.134 136.664 811.982 136.664C814.743 136.664 817.03 137.613 818.842 139.513C820.74 141.413 821.69 143.744 821.69 146.507C821.69 149.702 820.783 152.249 818.971 154.149C817.159 155.962 814.743 156.869 811.723 156.869Z" fill="#E54141"/>
<path d="M674.495 520.245C674.322 513.164 673.718 498.83 672.683 477.244L672.294 468.307L693.263 467.141C693.35 468.868 693.393 471.415 693.393 474.783C693.393 483.763 692.961 494.384 692.099 506.645C691.753 512.171 691.538 515.711 691.451 517.266C687.309 519.597 681.873 520.806 675.142 520.892L674.495 520.245ZM682.65 550.294C679.802 550.294 677.429 549.387 675.53 547.574C673.718 545.674 672.812 543.127 672.812 539.932C672.812 537.169 673.761 534.837 675.66 532.938C677.645 531.038 680.061 530.088 682.908 530.088C685.67 530.088 687.956 531.038 689.769 532.938C691.667 534.837 692.616 537.169 692.616 539.932C692.616 543.127 691.71 545.674 689.898 547.574C688.086 549.387 685.67 550.294 682.65 550.294Z" fill="#DA3232"/>
<path d="M718.733 210.311C718.352 205.888 717.431 196.943 715.97 183.476L715.389 177.899L727.653 176.392C727.772 177.47 727.898 179.062 728.031 181.168C728.386 186.787 728.552 193.447 728.53 201.15C728.546 204.62 728.559 206.843 728.57 207.819C726.23 209.431 723.086 210.389 719.138 210.692L718.733 210.311ZM724.708 228.808C723.036 228.914 721.607 228.434 720.421 227.37C719.282 226.249 718.649 224.689 718.523 222.69C718.414 220.962 718.879 219.468 719.918 218.209C721.008 216.947 722.389 216.263 724.061 216.158C725.682 216.055 727.062 216.565 728.201 217.686C729.391 218.804 730.04 220.227 730.149 221.956C730.276 223.955 729.844 225.582 728.855 226.838C727.863 228.039 726.481 228.696 724.708 228.808Z" fill="#F77D7D"/>
<path d="M654.448 322.483C654.598 319.904 654.814 314.676 655.097 306.799L655.227 303.539L662.416 303.695C662.394 304.325 662.334 305.252 662.235 306.477C661.97 309.742 661.51 313.591 660.855 318.025C660.574 320.025 660.396 321.306 660.321 321.869C658.839 322.602 656.949 322.891 654.65 322.737L654.448 322.483ZM656.345 333.634C655.373 333.555 654.591 333.16 653.996 332.448C653.434 331.708 653.2 330.757 653.294 329.595C653.375 328.59 653.768 327.769 654.472 327.131C655.205 326.495 656.057 326.216 657.029 326.295C657.971 326.371 658.723 326.78 659.285 327.521C659.877 328.264 660.132 329.138 660.051 330.142C659.957 331.304 659.572 332.205 658.898 332.846C658.227 333.455 657.375 333.718 656.345 333.634Z" fill="#F6CFCF"/>
<path d="M761.954 408.531C761.922 404.515 761.721 396.383 761.35 384.136L761.219 379.065L772.385 378.569C772.417 379.549 772.418 380.994 772.39 382.903C772.315 387.995 771.996 394.013 771.434 400.959C771.205 404.089 771.06 406.095 771.001 406.975C768.778 408.265 765.875 408.907 762.293 408.903L761.954 408.531ZM766.041 425.633C764.526 425.611 763.271 425.078 762.277 424.035C761.328 422.943 760.868 421.492 760.894 419.681C760.917 418.114 761.442 416.799 762.468 415.737C763.54 414.676 764.833 414.156 766.348 414.179C767.818 414.2 769.026 414.757 769.975 415.848C770.969 416.94 771.454 418.27 771.431 419.836C771.404 421.648 770.901 423.085 769.921 424.148C768.942 425.162 767.648 425.657 766.041 425.633Z" fill="#E38B8B"/>
<path d="M1287.29 30.8893C1287.6 26.7777 1288.06 18.4395 1288.68 5.87476L1288.97 0.675275L1301.31 1.20823C1301.26 2.21361 1301.14 3.69169 1300.95 5.64249C1300.44 10.8446 1299.58 16.9723 1298.37 24.0254C1297.86 27.2068 1297.53 29.2453 1297.39 30.1406C1294.83 31.2525 1291.58 31.6396 1287.64 31.3018L1287.29 30.8893ZM1290.35 48.7663C1288.69 48.6022 1287.35 47.9403 1286.34 46.7804C1285.39 45.5756 1285 44.0478 1285.19 42.197C1285.34 40.5964 1286.03 39.3005 1287.25 38.3095C1288.52 37.3234 1289.99 36.9124 1291.66 37.0764C1293.27 37.2355 1294.56 37.9175 1295.51 39.1224C1296.51 40.3322 1296.94 41.7375 1296.78 43.3381C1296.6 45.1889 1295.92 46.6123 1294.75 47.6083C1293.59 48.5543 1292.12 48.9403 1290.35 48.7663Z" fill="#FFB7B7"/>
<path d="M1432.8 126.82C1432.63 119.74 1432.02 105.406 1430.99 83.8189L1430.6 74.8819L1451.57 73.7162C1451.65 75.4431 1451.7 77.9904 1451.7 81.358C1451.7 90.3381 1451.27 100.959 1450.4 113.22C1450.06 118.747 1449.84 122.287 1449.76 123.841C1445.61 126.172 1440.18 127.381 1433.45 127.468L1432.8 126.82ZM1440.95 156.869C1438.11 156.869 1435.73 155.962 1433.83 154.149C1432.02 152.249 1431.12 149.702 1431.12 146.507C1431.12 143.744 1432.07 141.413 1433.96 139.513C1435.95 137.613 1438.36 136.664 1441.21 136.664C1443.97 136.664 1446.26 137.613 1448.07 139.513C1449.97 141.413 1450.92 143.744 1450.92 146.507C1450.92 149.702 1450.01 152.249 1448.2 154.149C1446.39 155.962 1443.97 156.869 1440.95 156.869Z" fill="#E54141"/>
<path d="M1303.73 520.245C1303.55 513.164 1302.95 498.83 1301.91 477.244L1301.53 468.307L1322.49 467.141C1322.58 468.868 1322.62 471.415 1322.62 474.783C1322.62 483.763 1322.19 494.384 1321.33 506.645C1320.98 512.171 1320.77 515.711 1320.68 517.266C1316.54 519.597 1311.1 520.806 1304.37 520.892L1303.73 520.245ZM1311.88 550.294C1309.03 550.294 1306.66 549.387 1304.76 547.574C1302.95 545.674 1302.04 543.127 1302.04 539.932C1302.04 537.169 1302.99 534.837 1304.89 532.938C1306.88 531.038 1309.29 530.088 1312.14 530.088C1314.9 530.088 1317.19 531.038 1319 532.938C1320.9 534.837 1321.85 537.169 1321.85 539.932C1321.85 543.127 1320.94 545.674 1319.13 547.574C1317.32 549.387 1314.9 550.294 1311.88 550.294Z" fill="#DA3232"/>
<path d="M1347.96 210.311C1347.58 205.888 1346.66 196.943 1345.2 183.476L1344.62 177.899L1356.88 176.392C1357 177.47 1357.13 179.062 1357.26 181.168C1357.62 186.787 1357.78 193.447 1357.76 201.15C1357.78 204.62 1357.79 206.843 1357.8 207.819C1355.46 209.431 1352.32 210.389 1348.37 210.692L1347.96 210.311ZM1353.94 228.808C1352.27 228.914 1350.84 228.434 1349.65 227.37C1348.51 226.249 1347.88 224.689 1347.75 222.69C1347.65 220.962 1348.11 219.468 1349.15 218.209C1350.24 216.947 1351.62 216.263 1353.29 216.158C1354.91 216.055 1356.29 216.565 1357.43 217.686C1358.62 218.804 1359.27 220.227 1359.38 221.956C1359.51 223.955 1359.08 225.582 1358.09 226.838C1357.09 228.039 1355.71 228.696 1353.94 228.808Z" fill="#F77D7D"/>
<path d="M1283.68 322.483C1283.83 319.904 1284.04 314.676 1284.33 306.799L1284.46 303.539L1291.65 303.695C1291.63 304.325 1291.57 305.252 1291.47 306.477C1291.2 309.742 1290.74 313.591 1290.09 318.025C1289.81 320.025 1289.63 321.306 1289.55 321.869C1288.07 322.602 1286.18 322.891 1283.88 322.737L1283.68 322.483ZM1285.58 333.634C1284.6 333.555 1283.82 333.16 1283.23 332.448C1282.66 331.708 1282.43 330.757 1282.52 329.595C1282.61 328.59 1283 327.769 1283.7 327.131C1284.44 326.495 1285.29 326.216 1286.26 326.295C1287.2 326.371 1287.95 326.78 1288.52 327.521C1289.11 328.264 1289.36 329.138 1289.28 330.142C1289.19 331.304 1288.8 332.205 1288.13 332.846C1287.46 333.455 1286.61 333.718 1285.58 333.634Z" fill="#F6CFCF"/>
<path d="M1391.19 408.531C1391.15 404.515 1390.95 396.383 1390.58 384.136L1390.45 379.065L1401.62 378.569C1401.65 379.549 1401.65 380.994 1401.62 382.903C1401.55 387.995 1401.23 394.013 1400.67 400.959C1400.44 404.089 1400.29 406.095 1400.23 406.975C1398.01 408.265 1395.11 408.907 1391.52 408.903L1391.19 408.531ZM1395.27 425.633C1393.76 425.611 1392.5 425.078 1391.51 424.035C1390.56 422.943 1390.1 421.492 1390.13 419.681C1390.15 418.114 1390.67 416.799 1391.7 415.737C1392.77 414.676 1394.06 414.156 1395.58 414.179C1397.05 414.2 1398.26 414.757 1399.21 415.848C1400.2 416.94 1400.69 418.27 1400.66 419.836C1400.64 421.648 1400.13 423.085 1399.15 424.148C1398.17 425.162 1396.88 425.657 1395.27 425.633Z" fill="#E38B8B"/>
<path d="M331.656 106.596C331.959 102.484 332.423 94.1458 333.047 81.5811L333.33 76.3816L345.671 76.9145C345.623 77.9199 345.503 79.398 345.311 81.3488C344.799 86.5509 343.941 92.6786 342.737 99.7317C342.22 102.913 341.892 104.952 341.753 105.847C339.195 106.959 335.943 107.346 331.998 107.008L331.656 106.596ZM334.717 124.473C333.05 124.309 331.712 123.647 330.704 122.487C329.752 121.282 329.367 119.754 329.549 117.903C329.706 116.303 330.395 115.007 331.615 114.016C332.885 113.03 334.353 112.619 336.02 112.783C337.637 112.942 338.921 113.624 339.874 114.829C340.877 116.039 341.3 117.444 341.142 119.044C340.96 120.895 340.284 122.319 339.115 123.315C337.951 124.261 336.485 124.647 334.717 124.473Z" fill="#FFB7B7"/>
<path d="M477.162 202.526C476.99 195.446 476.386 181.112 475.35 159.525L474.962 150.588L495.931 149.423C496.017 151.15 496.06 153.697 496.06 157.064C496.06 166.045 495.629 176.665 494.766 188.927C494.421 194.453 494.205 197.993 494.119 199.547C489.977 201.879 484.54 203.088 477.81 203.174L477.162 202.526ZM485.317 232.575C482.469 232.575 480.096 231.669 478.198 229.855C476.386 227.956 475.48 225.409 475.48 222.214C475.48 219.451 476.429 217.119 478.327 215.22C480.312 213.32 482.728 212.37 485.576 212.37C488.337 212.37 490.624 213.32 492.436 215.22C494.335 217.119 495.284 219.451 495.284 222.214C495.284 225.409 494.378 227.956 492.566 229.855C490.753 231.669 488.337 232.575 485.317 232.575Z" fill="#E54141"/>
<path d="M348.089 595.951C347.917 588.87 347.312 574.537 346.277 552.95L345.889 544.013L366.858 542.847C366.944 544.574 366.987 547.121 366.987 550.489C366.987 559.469 366.556 570.09 365.693 582.351C365.348 587.877 365.132 591.418 365.046 592.972C360.904 595.303 355.467 596.512 348.736 596.599L348.089 595.951ZM356.244 626C353.396 626 351.023 625.093 349.125 623.28C347.312 621.38 346.406 618.833 346.406 615.638C346.406 612.875 347.356 610.544 349.254 608.644C351.239 606.744 353.655 605.795 356.503 605.795C359.264 605.795 361.551 606.744 363.363 608.644C365.261 610.544 366.211 612.875 366.211 615.638C366.211 618.833 365.304 621.38 363.492 623.28C361.68 625.093 359.264 626 356.244 626Z" fill="#DA3232"/>
<path d="M392.327 286.018C391.946 281.594 391.025 272.649 389.564 259.182L388.983 253.606L401.247 252.099C401.366 253.176 401.492 254.768 401.625 256.875C401.98 262.493 402.146 269.154 402.124 276.857C402.14 280.327 402.153 282.55 402.164 283.525C399.824 285.137 396.681 286.095 392.733 286.399L392.327 286.018ZM398.302 304.515C396.63 304.62 395.201 304.141 394.015 303.077C392.876 301.956 392.243 300.396 392.117 298.397C392.008 296.668 392.473 295.174 393.513 293.916C394.603 292.653 395.984 291.97 397.655 291.864C399.276 291.762 400.656 292.271 401.795 293.392C402.985 294.51 403.634 295.934 403.744 297.662C403.87 299.661 403.438 301.288 402.45 302.544C401.458 303.746 400.075 304.403 398.302 304.515Z" fill="#F77D7D"/>
<path d="M328.042 398.19C328.192 395.611 328.408 390.382 328.691 382.505L328.822 379.245L336.01 379.401C335.989 380.031 335.928 380.959 335.829 382.183C335.565 385.448 335.105 389.298 334.449 393.732C334.168 395.731 333.99 397.013 333.915 397.575C332.433 398.309 330.543 398.598 328.244 398.443L328.042 398.19ZM329.939 409.341C328.968 409.262 328.185 408.867 327.59 408.155C327.028 407.414 326.794 406.463 326.888 405.301C326.97 404.297 327.362 403.475 328.066 402.837C328.799 402.201 329.651 401.923 330.623 402.001C331.565 402.078 332.317 402.486 332.879 403.227C333.471 403.97 333.726 404.844 333.645 405.849C333.551 407.01 333.167 407.911 332.492 408.552C331.821 409.161 330.97 409.424 329.939 409.341Z" fill="#F6CFCF"/>
<path d="M435.549 484.238C435.516 480.222 435.315 472.09 434.945 459.842L434.813 454.772L445.979 454.275C446.011 455.255 446.012 456.7 445.984 458.609C445.909 463.701 445.591 469.72 445.029 476.665C444.799 479.796 444.654 481.801 444.595 482.682C442.372 483.971 439.47 484.614 435.888 484.61L435.549 484.238ZM439.636 501.339C438.121 501.317 436.866 500.784 435.871 499.741C434.923 498.65 434.462 497.198 434.489 495.387C434.512 493.82 435.036 492.506 436.062 491.444C437.134 490.382 438.428 489.863 439.943 489.885C441.412 489.907 442.621 490.463 443.569 491.554C444.563 492.647 445.049 493.976 445.025 495.543C444.999 497.354 444.495 498.791 443.515 499.854C442.536 500.868 441.243 501.363 439.636 501.339Z" fill="#E38B8B"/>
<path d="M984.468 106.596C984.771 102.484 985.234 94.1458 985.859 81.5811L986.141 76.3816L998.483 76.9145C998.435 77.9199 998.315 79.398 998.123 81.3488C997.611 86.5509 996.753 92.6786 995.549 99.7317C995.031 102.913 994.703 104.952 994.564 105.847C992.006 106.959 988.755 107.346 984.81 107.008L984.468 106.596ZM987.528 124.473C985.861 124.309 984.524 123.647 983.516 122.487C982.563 121.282 982.178 119.754 982.36 117.903C982.518 116.303 983.206 115.007 984.426 114.016C985.696 113.03 987.165 112.619 988.832 112.783C990.448 112.942 991.733 113.624 992.685 114.829C993.688 116.039 994.111 117.444 993.954 119.044C993.772 120.895 993.096 122.319 991.927 123.315C990.762 124.261 989.296 124.647 987.528 124.473Z" fill="#FFB7B7"/>
<path d="M1129.97 202.526C1129.8 195.446 1129.2 181.112 1128.16 159.525L1127.77 150.588L1148.74 149.423C1148.83 151.15 1148.87 153.697 1148.87 157.064C1148.87 166.045 1148.44 176.665 1147.58 188.927C1147.23 194.453 1147.02 197.993 1146.93 199.547C1142.79 201.879 1137.35 203.088 1130.62 203.174L1129.97 202.526ZM1138.13 232.575C1135.28 232.575 1132.91 231.669 1131.01 229.855C1129.2 227.956 1128.29 225.409 1128.29 222.214C1128.29 219.451 1129.24 217.119 1131.14 215.22C1133.12 213.32 1135.54 212.37 1138.39 212.37C1141.15 212.37 1143.44 213.32 1145.25 215.22C1147.15 217.119 1148.09 219.451 1148.09 222.214C1148.09 225.409 1147.19 227.956 1145.38 229.855C1143.56 231.669 1141.15 232.575 1138.13 232.575Z" fill="#E54141"/>
<path d="M1000.9 595.951C1000.73 588.87 1000.12 574.537 999.089 552.95L998.7 544.013L1019.67 542.847C1019.76 544.574 1019.8 547.121 1019.8 550.489C1019.8 559.469 1019.37 570.09 1018.5 582.351C1018.16 587.877 1017.94 591.418 1017.86 592.972C1013.72 595.303 1008.28 596.512 1001.55 596.599L1000.9 595.951ZM1009.06 626C1006.21 626 1003.83 625.093 1001.94 623.28C1000.12 621.38 999.218 618.833 999.218 615.638C999.218 612.875 1000.17 610.544 1002.07 608.644C1004.05 606.744 1006.47 605.795 1009.31 605.795C1012.08 605.795 1014.36 606.744 1016.17 608.644C1018.07 610.544 1019.02 612.875 1019.02 615.638C1019.02 618.833 1018.12 621.38 1016.3 623.28C1014.49 625.093 1012.08 626 1009.06 626Z" fill="#DA3232"/>
<path d="M1045.14 286.018C1044.76 281.594 1043.84 272.649 1042.38 259.182L1041.79 253.606L1054.06 252.099C1054.18 253.176 1054.3 254.768 1054.44 256.875C1054.79 262.493 1054.96 269.154 1054.94 276.857C1054.95 280.327 1054.96 282.55 1054.98 283.525C1052.64 285.137 1049.49 286.095 1045.54 286.399L1045.14 286.018ZM1051.11 304.515C1049.44 304.62 1048.01 304.141 1046.83 303.077C1045.69 301.956 1045.05 300.396 1044.93 298.397C1044.82 296.668 1045.28 295.174 1046.32 293.916C1047.41 292.653 1048.8 291.97 1050.47 291.864C1052.09 291.762 1053.47 292.271 1054.61 293.392C1055.8 294.51 1056.45 295.934 1056.56 297.662C1056.68 299.661 1056.25 301.288 1055.26 302.544C1054.27 303.746 1052.89 304.403 1051.11 304.515Z" fill="#F77D7D"/>
<path d="M980.853 398.19C981.003 395.611 981.219 390.382 981.502 382.505L981.633 379.245L988.821 379.401C988.8 380.031 988.739 380.959 988.64 382.183C988.376 385.448 987.916 389.298 987.26 393.732C986.979 395.731 986.801 397.013 986.726 397.575C985.244 398.309 983.354 398.598 981.055 398.443L980.853 398.19ZM982.75 409.341C981.779 409.262 980.996 408.867 980.402 408.155C979.839 407.414 979.605 406.463 979.699 405.301C979.781 404.297 980.173 403.475 980.877 402.837C981.61 402.201 982.462 401.923 983.434 402.001C984.376 402.078 985.128 402.486 985.69 403.227C986.282 403.97 986.537 404.844 986.456 405.849C986.362 407.01 985.978 407.911 985.303 408.552C984.632 409.161 983.781 409.424 982.75 409.341Z" fill="#F6CFCF"/>
<path d="M1088.36 484.238C1088.33 480.222 1088.13 472.09 1087.76 459.842L1087.62 454.772L1098.79 454.275C1098.82 455.255 1098.82 456.7 1098.8 458.609C1098.72 463.701 1098.4 469.72 1097.84 476.665C1097.61 479.796 1097.47 481.801 1097.41 482.682C1095.18 483.971 1092.28 484.614 1088.7 484.61L1088.36 484.238ZM1092.45 501.339C1090.93 501.317 1089.68 500.784 1088.68 499.741C1087.73 498.65 1087.27 497.198 1087.3 495.387C1087.32 493.82 1087.85 492.506 1088.87 491.444C1089.95 490.382 1091.24 489.863 1092.75 489.885C1094.22 489.907 1095.43 490.463 1096.38 491.554C1097.37 492.647 1097.86 493.976 1097.84 495.543C1097.81 497.354 1097.31 498.791 1096.33 499.854C1095.35 500.868 1094.05 501.363 1092.45 501.339Z" fill="#E38B8B"/>
<g opacity="0.5">
<path d="M5.25054 679.889C5.55323 675.778 6.01689 667.44 6.64153 654.875L6.92377 649.675L19.2656 650.208C19.2177 651.214 19.0977 652.692 18.9057 654.642C18.3937 659.845 17.5355 665.972 16.3313 673.025C15.8141 676.207 15.486 678.245 15.3468 679.141C12.7891 680.253 9.53767 680.64 5.59249 680.302L5.25054 679.889ZM8.311 697.766C6.64396 697.602 5.30647 696.94 4.2985 695.78C3.34598 694.576 2.9608 693.048 3.14296 691.197C3.30051 689.596 3.98911 688.301 5.20878 687.309C6.47897 686.323 7.94757 685.912 9.6146 686.076C11.2311 686.236 12.5156 686.918 13.4682 688.122C14.4712 689.332 14.894 690.737 14.7364 692.338C14.5542 694.189 13.8786 695.612 12.7094 696.608C11.5452 697.554 10.0791 697.94 8.311 697.766Z" fill="#FFB7B7"/>
<path d="M150.756 775.82C150.584 768.74 149.979 754.406 148.944 732.819L148.556 723.882L169.525 722.716C169.611 724.443 169.654 726.991 169.654 730.358C169.654 739.338 169.223 749.959 168.36 762.22C168.015 767.747 167.799 771.287 167.713 772.841C163.571 775.173 158.134 776.381 151.403 776.468L150.756 775.82ZM158.911 805.869C156.063 805.869 153.69 804.962 151.792 803.149C149.979 801.25 149.073 798.702 149.073 795.507C149.073 792.744 150.023 790.413 151.921 788.513C153.906 786.614 156.322 785.664 159.17 785.664C161.931 785.664 164.218 786.614 166.03 788.513C167.928 790.413 168.878 792.744 168.878 795.507C168.878 798.702 167.971 801.25 166.159 803.149C164.347 804.962 161.931 805.869 158.911 805.869Z" fill="#E54141"/>
<path d="M65.9214 859.311C65.5403 854.888 64.6193 845.943 63.1584 832.476L62.5773 826.899L74.8415 825.392C74.9603 826.47 75.0863 828.062 75.2194 830.168C75.5742 835.787 75.7406 842.447 75.7185 850.15C75.7342 853.62 75.7475 855.843 75.7582 856.819C73.4187 858.431 70.2749 859.389 66.3269 859.692L65.9214 859.311ZM71.8961 877.808C70.2243 877.914 68.7953 877.434 67.6092 876.37C66.4703 875.249 65.8377 873.689 65.7115 871.69C65.6023 869.962 66.0674 868.468 67.1069 867.209C68.197 865.947 69.5779 865.263 71.2496 865.158C72.8707 865.055 74.2507 865.565 75.3896 866.686C76.5792 867.804 77.2286 869.227 77.3378 870.956C77.464 872.955 77.0327 874.582 76.044 875.838C75.0518 877.039 73.6691 877.696 71.8961 877.808Z" fill="#F77D7D"/>
<path d="M1.63605 971.483C1.78575 968.904 2.00193 963.676 2.28457 955.799L2.41537 952.539L9.60387 952.695C9.58244 953.325 9.52212 954.252 9.42291 955.477C9.15836 958.742 8.69827 962.591 8.04265 967.025C7.76209 969.025 7.58419 970.306 7.50896 970.869C6.02711 971.602 4.13672 971.891 1.83778 971.737L1.63605 971.483ZM3.533 982.634C2.56145 982.555 1.77853 982.16 1.18424 981.448C0.621946 980.708 0.387856 979.757 0.481974 978.595C0.563374 977.59 0.955907 976.769 1.65957 976.131C2.39268 975.495 3.24501 975.216 4.21656 975.295C5.15867 975.371 5.91088 975.78 6.47317 976.521C7.06491 977.264 7.32008 978.138 7.23868 979.142C7.14457 980.304 6.76039 981.205 6.08617 981.846C5.41449 982.455 4.56343 982.718 3.533 982.634Z" fill="#F6CFCF"/>
<path d="M109.143 1057.53C109.11 1053.52 108.909 1045.38 108.539 1033.14L108.407 1028.07L119.574 1027.57C119.605 1028.55 119.607 1029.99 119.579 1031.9C119.503 1036.99 119.185 1043.01 118.623 1049.96C118.393 1053.09 118.249 1055.09 118.19 1055.98C115.966 1057.26 113.064 1057.91 109.482 1057.9L109.143 1057.53ZM113.23 1074.63C111.715 1074.61 110.46 1074.08 109.465 1073.03C108.517 1071.94 108.056 1070.49 108.083 1068.68C108.106 1067.11 108.63 1065.8 109.656 1064.74C110.728 1063.68 112.022 1063.16 113.537 1063.18C115.006 1063.2 116.215 1063.76 117.163 1064.85C118.157 1065.94 118.643 1067.27 118.62 1068.84C118.593 1070.65 118.089 1072.08 117.109 1073.15C116.13 1074.16 114.837 1074.66 113.23 1074.63Z" fill="#E38B8B"/>
<path d="M658.062 679.889C658.365 675.778 658.828 667.44 659.453 654.875L659.735 649.675L672.077 650.208C672.029 651.214 671.909 652.692 671.717 654.642C671.205 659.845 670.347 665.972 669.143 673.025C668.626 676.207 668.297 678.245 668.158 679.141C665.601 680.253 662.349 680.64 658.404 680.302L658.062 679.889ZM661.123 697.766C659.455 697.602 658.118 696.94 657.11 695.78C656.158 694.576 655.772 693.048 655.954 691.197C656.112 689.596 656.801 688.301 658.02 687.309C659.29 686.323 660.759 685.912 662.426 686.076C664.043 686.236 665.327 686.918 666.28 688.122C667.283 689.332 667.705 690.737 667.548 692.338C667.366 694.189 666.69 695.612 665.521 696.608C664.357 697.554 662.891 697.94 661.123 697.766Z" fill="#FFB7B7"/>
<path d="M803.568 775.82C803.396 768.74 802.792 754.406 801.756 732.819L801.368 723.882L822.337 722.716C822.423 724.443 822.466 726.991 822.466 730.358C822.466 739.338 822.035 749.959 821.172 762.22C820.827 767.747 820.611 771.287 820.525 772.841C816.383 775.173 810.946 776.381 804.215 776.468L803.568 775.82ZM811.723 805.869C808.875 805.869 806.502 804.962 804.604 803.149C802.791 801.25 801.885 798.702 801.885 795.507C801.885 792.744 802.835 790.413 804.733 788.513C806.718 786.614 809.134 785.664 811.982 785.664C814.743 785.664 817.03 786.614 818.842 788.513C820.74 790.413 821.69 792.744 821.69 795.507C821.69 798.702 820.783 801.25 818.971 803.149C817.159 804.962 814.743 805.869 811.723 805.869Z" fill="#E54141"/>
<path d="M718.733 859.311C718.352 854.888 717.431 845.943 715.97 832.476L715.389 826.899L727.653 825.392C727.772 826.47 727.898 828.062 728.031 830.168C728.386 835.787 728.552 842.447 728.53 850.15C728.546 853.62 728.559 855.843 728.57 856.819C726.23 858.431 723.086 859.389 719.138 859.692L718.733 859.311ZM724.708 877.808C723.036 877.914 721.607 877.434 720.421 876.37C719.282 875.249 718.649 873.689 718.523 871.69C718.414 869.962 718.879 868.468 719.918 867.209C721.008 865.947 722.389 865.263 724.061 865.158C725.682 865.055 727.062 865.565 728.201 866.686C729.391 867.804 730.04 869.227 730.149 870.956C730.276 872.955 729.844 874.582 728.855 875.838C727.863 877.039 726.481 877.696 724.708 877.808Z" fill="#F77D7D"/>
<path d="M654.448 971.483C654.598 968.904 654.814 963.676 655.097 955.799L655.227 952.539L662.416 952.695C662.394 953.325 662.334 954.252 662.235 955.477C661.97 958.742 661.51 962.591 660.855 967.025C660.574 969.025 660.396 970.306 660.321 970.869C658.839 971.602 656.949 971.891 654.65 971.737L654.448 971.483ZM656.345 982.634C655.373 982.555 654.591 982.16 653.996 981.448C653.434 980.708 653.2 979.757 653.294 978.595C653.375 977.59 653.768 976.769 654.472 976.131C655.205 975.495 656.057 975.216 657.029 975.295C657.971 975.371 658.723 975.78 659.285 976.521C659.877 977.264 660.132 978.138 660.051 979.142C659.957 980.304 659.572 981.205 658.898 981.846C658.227 982.455 657.375 982.718 656.345 982.634Z" fill="#F6CFCF"/>
<path d="M761.954 1057.53C761.922 1053.52 761.721 1045.38 761.35 1033.14L761.219 1028.07L772.385 1027.57C772.417 1028.55 772.418 1029.99 772.39 1031.9C772.315 1036.99 771.996 1043.01 771.434 1049.96C771.205 1053.09 771.06 1055.09 771.001 1055.98C768.778 1057.26 765.875 1057.91 762.293 1057.9L761.954 1057.53ZM766.041 1074.63C764.526 1074.61 763.271 1074.08 762.277 1073.03C761.328 1071.94 760.868 1070.49 760.894 1068.68C760.917 1067.11 761.442 1065.8 762.468 1064.74C763.54 1063.68 764.833 1063.16 766.348 1063.18C767.818 1063.2 769.026 1063.76 769.975 1064.85C770.969 1065.94 771.454 1067.27 771.431 1068.84C771.404 1070.65 770.901 1072.08 769.921 1073.15C768.942 1074.16 767.648 1074.66 766.041 1074.63Z" fill="#E38B8B"/>
<path d="M1287.29 679.889C1287.6 675.778 1288.06 667.44 1288.68 654.875L1288.97 649.675L1301.31 650.208C1301.26 651.214 1301.14 652.692 1300.95 654.642C1300.44 659.845 1299.58 665.972 1298.37 673.025C1297.86 676.207 1297.53 678.245 1297.39 679.141C1294.83 680.253 1291.58 680.64 1287.64 680.302L1287.29 679.889ZM1290.35 697.766C1288.69 697.602 1287.35 696.94 1286.34 695.78C1285.39 694.576 1285 693.048 1285.19 691.197C1285.34 689.596 1286.03 688.301 1287.25 687.309C1288.52 686.323 1289.99 685.912 1291.66 686.076C1293.27 686.236 1294.56 686.918 1295.51 688.122C1296.51 689.332 1296.94 690.737 1296.78 692.338C1296.6 694.189 1295.92 695.612 1294.75 696.608C1293.59 697.554 1292.12 697.94 1290.35 697.766Z" fill="#FFB7B7"/>
<path d="M1432.8 775.82C1432.63 768.74 1432.02 754.406 1430.99 732.819L1430.6 723.882L1451.57 722.716C1451.65 724.443 1451.7 726.991 1451.7 730.358C1451.7 739.338 1451.27 749.959 1450.4 762.22C1450.06 767.747 1449.84 771.287 1449.76 772.841C1445.61 775.173 1440.18 776.381 1433.45 776.468L1432.8 775.82ZM1440.95 805.869C1438.11 805.869 1435.73 804.962 1433.83 803.149C1432.02 801.25 1431.12 798.702 1431.12 795.507C1431.12 792.744 1432.07 790.413 1433.96 788.513C1435.95 786.614 1438.36 785.664 1441.21 785.664C1443.97 785.664 1446.26 786.614 1448.07 788.513C1449.97 790.413 1450.92 792.744 1450.92 795.507C1450.92 798.702 1450.01 801.25 1448.2 803.149C1446.39 804.962 1443.97 805.869 1440.95 805.869Z" fill="#E54141"/>
<path d="M1347.96 859.311C1347.58 854.888 1346.66 845.943 1345.2 832.476L1344.62 826.899L1356.88 825.392C1357 826.47 1357.13 828.062 1357.26 830.168C1357.62 835.787 1357.78 842.447 1357.76 850.15C1357.78 853.62 1357.79 855.843 1357.8 856.819C1355.46 858.431 1352.32 859.389 1348.37 859.692L1347.96 859.311ZM1353.94 877.808C1352.27 877.914 1350.84 877.434 1349.65 876.37C1348.51 875.249 1347.88 873.689 1347.75 871.69C1347.65 869.962 1348.11 868.468 1349.15 867.209C1350.24 865.947 1351.62 865.263 1353.29 865.158C1354.91 865.055 1356.29 865.565 1357.43 866.686C1358.62 867.804 1359.27 869.227 1359.38 870.956C1359.51 872.955 1359.08 874.582 1358.09 875.838C1357.09 877.039 1355.71 877.696 1353.94 877.808Z" fill="#F77D7D"/>
<path d="M1283.68 971.483C1283.83 968.904 1284.04 963.676 1284.33 955.799L1284.46 952.539L1291.65 952.695C1291.63 953.325 1291.57 954.252 1291.47 955.477C1291.2 958.742 1290.74 962.591 1290.09 967.025C1289.81 969.025 1289.63 970.306 1289.55 970.869C1288.07 971.602 1286.18 971.891 1283.88 971.737L1283.68 971.483ZM1285.58 982.634C1284.6 982.555 1283.82 982.16 1283.23 981.448C1282.66 980.708 1282.43 979.757 1282.52 978.595C1282.61 977.59 1283 976.769 1283.7 976.131C1284.44 975.495 1285.29 975.216 1286.26 975.295C1287.2 975.371 1287.95 975.78 1288.52 976.521C1289.11 977.264 1289.36 978.138 1289.28 979.142C1289.19 980.304 1288.8 981.205 1288.13 981.846C1287.46 982.455 1286.61 982.718 1285.58 982.634Z" fill="#F6CFCF"/>
<path d="M1391.19 1057.53C1391.15 1053.52 1390.95 1045.38 1390.58 1033.14L1390.45 1028.07L1401.62 1027.57C1401.65 1028.55 1401.65 1029.99 1401.62 1031.9C1401.55 1036.99 1401.23 1043.01 1400.67 1049.96C1400.44 1053.09 1400.29 1055.09 1400.23 1055.98C1398.01 1057.26 1395.11 1057.91 1391.52 1057.9L1391.19 1057.53ZM1395.27 1074.63C1393.76 1074.61 1392.5 1074.08 1391.51 1073.03C1390.56 1071.94 1390.1 1070.49 1390.13 1068.68C1390.15 1067.11 1390.67 1065.8 1391.7 1064.74C1392.77 1063.68 1394.06 1063.16 1395.58 1063.18C1397.05 1063.2 1398.26 1063.76 1399.21 1064.85C1400.2 1065.94 1400.69 1067.27 1400.66 1068.84C1400.64 1070.65 1400.13 1072.08 1399.15 1073.15C1398.17 1074.16 1396.88 1074.66 1395.27 1074.63Z" fill="#E38B8B"/>
<path d="M331.656 755.596C331.959 751.484 332.423 743.146 333.047 730.581L333.33 725.382L345.671 725.915C345.623 726.92 345.503 728.398 345.311 730.349C344.799 735.551 343.941 741.679 342.737 748.732C342.22 751.913 341.892 753.952 341.753 754.847C339.195 755.959 335.943 756.346 331.998 756.008L331.656 755.596ZM334.717 773.473C333.05 773.309 331.712 772.647 330.704 771.487C329.752 770.282 329.367 768.754 329.549 766.903C329.706 765.303 330.395 764.007 331.615 763.016C332.885 762.03 334.353 761.619 336.02 761.783C337.637 761.942 338.921 762.624 339.874 763.829C340.877 765.039 341.3 766.444 341.142 768.044C340.96 769.895 340.284 771.319 339.115 772.315C337.951 773.261 336.485 773.647 334.717 773.473Z" fill="#FFB7B7"/>
<path d="M477.162 851.526C476.99 844.446 476.386 830.112 475.35 808.525L474.962 799.588L495.931 798.423C496.017 800.15 496.06 802.697 496.06 806.064C496.06 815.045 495.629 825.665 494.766 837.927C494.421 843.453 494.205 846.993 494.119 848.547C489.977 850.879 484.54 852.088 477.81 852.174L477.162 851.526ZM485.317 881.575C482.469 881.575 480.096 880.669 478.198 878.855C476.386 876.956 475.48 874.409 475.48 871.214C475.48 868.451 476.429 866.119 478.327 864.22C480.312 862.32 482.728 861.37 485.576 861.37C488.337 861.37 490.624 862.32 492.436 864.22C494.335 866.119 495.284 868.451 495.284 871.214C495.284 874.409 494.378 876.956 492.566 878.855C490.753 880.669 488.337 881.575 485.317 881.575Z" fill="#E54141"/>
<path d="M392.327 935.018C391.946 930.594 391.025 921.649 389.564 908.182L388.983 902.606L401.247 901.099C401.366 902.176 401.492 903.768 401.625 905.875C401.98 911.493 402.146 918.154 402.124 925.857C402.14 929.327 402.153 931.55 402.164 932.525C399.824 934.137 396.681 935.095 392.733 935.399L392.327 935.018ZM398.302 953.515C396.63 953.62 395.201 953.141 394.015 952.077C392.876 950.956 392.243 949.396 392.117 947.397C392.008 945.668 392.473 944.174 393.513 942.916C394.603 941.653 395.984 940.97 397.655 940.864C399.276 940.762 400.656 941.271 401.795 942.392C402.985 943.51 403.634 944.934 403.744 946.662C403.87 948.661 403.438 950.288 402.45 951.544C401.458 952.746 400.075 953.403 398.302 953.515Z" fill="#F77D7D"/>
<path d="M328.042 1047.19C328.192 1044.61 328.408 1039.38 328.691 1031.51L328.822 1028.25L336.01 1028.4C335.989 1029.03 335.928 1029.96 335.829 1031.18C335.565 1034.45 335.105 1038.3 334.449 1042.73C334.168 1044.73 333.99 1046.01 333.915 1046.58C332.433 1047.31 330.543 1047.6 328.244 1047.44L328.042 1047.19ZM329.939 1058.34C328.968 1058.26 328.185 1057.87 327.59 1057.15C327.028 1056.41 326.794 1055.46 326.888 1054.3C326.97 1053.3 327.362 1052.48 328.066 1051.84C328.799 1051.2 329.651 1050.92 330.623 1051C331.565 1051.08 332.317 1051.49 332.879 1052.23C333.471 1052.97 333.726 1053.84 333.645 1054.85C333.551 1056.01 333.167 1056.91 332.492 1057.55C331.821 1058.16 330.97 1058.42 329.939 1058.34Z" fill="#F6CFCF"/>
<path d="M984.468 755.596C984.771 751.484 985.234 743.146 985.859 730.581L986.141 725.382L998.483 725.915C998.435 726.92 998.315 728.398 998.123 730.349C997.611 735.551 996.753 741.679 995.549 748.732C995.031 751.913 994.703 753.952 994.564 754.847C992.006 755.959 988.755 756.346 984.81 756.008L984.468 755.596ZM987.528 773.473C985.861 773.309 984.524 772.647 983.516 771.487C982.563 770.282 982.178 768.754 982.36 766.903C982.518 765.303 983.206 764.007 984.426 763.016C985.696 762.03 987.165 761.619 988.832 761.783C990.448 761.942 991.733 762.624 992.685 763.829C993.688 765.039 994.111 766.444 993.954 768.044C993.772 769.895 993.096 771.319 991.927 772.315C990.762 773.261 989.296 773.647 987.528 773.473Z" fill="#FFB7B7"/>
<path d="M1129.97 851.526C1129.8 844.446 1129.2 830.112 1128.16 808.525L1127.77 799.588L1148.74 798.423C1148.83 800.15 1148.87 802.697 1148.87 806.064C1148.87 815.045 1148.44 825.665 1147.58 837.927C1147.23 843.453 1147.02 846.993 1146.93 848.547C1142.79 850.879 1137.35 852.088 1130.62 852.174L1129.97 851.526ZM1138.13 881.575C1135.28 881.575 1132.91 880.669 1131.01 878.855C1129.2 876.956 1128.29 874.409 1128.29 871.214C1128.29 868.451 1129.24 866.119 1131.14 864.22C1133.12 862.32 1135.54 861.37 1138.39 861.37C1141.15 861.37 1143.44 862.32 1145.25 864.22C1147.15 866.119 1148.09 868.451 1148.09 871.214C1148.09 874.409 1147.19 876.956 1145.38 878.855C1143.56 880.669 1141.15 881.575 1138.13 881.575Z" fill="#E54141"/>
<path d="M1045.14 935.018C1044.76 930.594 1043.84 921.649 1042.38 908.182L1041.79 902.606L1054.06 901.099C1054.18 902.176 1054.3 903.768 1054.44 905.875C1054.79 911.493 1054.96 918.154 1054.94 925.857C1054.95 929.327 1054.96 931.55 1054.98 932.525C1052.64 934.137 1049.49 935.095 1045.54 935.399L1045.14 935.018ZM1051.11 953.515C1049.44 953.62 1048.01 953.141 1046.83 952.077C1045.69 950.956 1045.05 949.396 1044.93 947.397C1044.82 945.668 1045.28 944.174 1046.32 942.916C1047.41 941.653 1048.8 940.97 1050.47 940.864C1052.09 940.762 1053.47 941.271 1054.61 942.392C1055.8 943.51 1056.45 944.934 1056.56 946.662C1056.68 948.661 1056.25 950.288 1055.26 951.544C1054.27 952.746 1052.89 953.403 1051.11 953.515Z" fill="#F77D7D"/>
<path d="M980.853 1047.19C981.003 1044.61 981.219 1039.38 981.502 1031.51L981.633 1028.25L988.821 1028.4C988.8 1029.03 988.739 1029.96 988.64 1031.18C988.376 1034.45 987.916 1038.3 987.26 1042.73C986.979 1044.73 986.801 1046.01 986.726 1046.58C985.244 1047.31 983.354 1047.6 981.055 1047.44L980.853 1047.19ZM982.75 1058.34C981.779 1058.26 980.996 1057.87 980.402 1057.15C979.839 1056.41 979.605 1055.46 979.699 1054.3C979.781 1053.3 980.173 1052.48 980.877 1051.84C981.61 1051.2 982.462 1050.92 983.434 1051C984.376 1051.08 985.128 1051.49 985.69 1052.23C986.282 1052.97 986.537 1053.84 986.456 1054.85C986.362 1056.01 985.978 1056.91 985.303 1057.55C984.632 1058.16 983.781 1058.42 982.75 1058.34Z" fill="#F6CFCF"/>
</g>
</svg>
