<svg width="24" height="26" viewBox="0 0 24 26" fill="none" xmlns="http://www.w3.org/2000/svg">
<path d="M16.05 0.5H11.1823C8.97699 0.499988 7.23023 0.499963 5.86317 0.6845C4.45626 0.874413 3.31752 1.27455 2.41949 2.1762C1.52146 3.07784 1.12291 4.22115 0.933763 5.63371C0.749963 7.00625 0.749988 8.76003 0.75 10.9741V18.2711C0.75 20.1562 1.89994 21.7717 3.53396 22.449C3.44986 21.3123 3.44993 19.7171 3.45 18.39V12.247V12.128C3.44991 10.5259 3.44983 9.14555 3.59785 8.04014C3.75649 6.85548 4.11424 5.7199 5.03163 4.79883C5.94901 3.87774 7.08005 3.51856 8.25998 3.35929C9.36096 3.21068 10.7359 3.21075 12.3315 3.21084L12.45 3.21085H16.05L16.1685 3.21084C17.7641 3.21075 19.136 3.21068 20.237 3.35929C19.5784 1.68474 17.952 0.5 16.05 0.5Z" fill="#2A1E17"/>
<path d="M5.25 12.2465C5.25 8.83874 5.25 7.13488 6.30441 6.07623C7.35883 5.01758 9.05589 5.01758 12.45 5.01758H16.05C19.4441 5.01758 21.1411 5.01758 22.1956 6.07623C23.25 7.13488 23.25 8.83875 23.25 12.2465V18.2706C23.25 21.6784 23.25 23.3823 22.1956 24.4409C21.1411 25.4995 19.4441 25.4995 16.05 25.4995H12.45C9.05589 25.4995 7.35883 25.4995 6.30441 24.4409C5.25 23.3823 5.25 21.6784 5.25 18.2706V12.2465Z" fill="#2A1E17"/>
</svg>
