<svg width="80" height="61" viewBox="0 0 80 61" fill="none" xmlns="http://www.w3.org/2000/svg">
<path d="M60.4004 45.6855C63.0993 45.6856 65.6963 45.9604 68.1924 46.5088C70.6781 47.055 73.1358 47.9717 75.5654 49.2617L75.5811 49.2695L75.5977 49.2773C76.8364 49.8249 77.79 50.6709 78.4697 51.8242C79.15 52.9786 79.5 54.361 79.5 55.9902V60.5H41.2998V55.9902C41.2998 54.3604 41.6508 52.9968 42.3281 51.8779C43.0094 50.7525 43.9689 49.8834 45.2207 49.2686L45.2256 49.2656C47.6587 48.0384 50.1213 47.1364 52.6133 46.5566C55.1076 45.9763 57.7033 45.6855 60.4004 45.6855ZM31.9746 35.9609C34.1102 35.9609 35.9989 36.0583 37.6416 36.252C39.0231 36.4148 40.4989 36.6482 42.0703 36.9482L40.1992 38.7871L37.8232 41.1201C37.0071 41.0071 36.1383 40.9335 35.2168 40.9033C34.2107 40.8704 33.1381 40.8545 32 40.8545C28.1913 40.8545 24.4636 41.234 20.8174 41.9941C17.1559 42.7574 13.2099 44.1647 8.98242 46.208L8.97949 46.21C7.95217 46.7146 7.11759 47.5045 6.47363 48.5586C5.83404 49.6057 5.5 50.6776 5.5 51.7666V55.6064H34.2998V60.5H0.5V51.7666C0.5 49.6298 1.04217 47.6732 2.12695 45.8867C3.20046 44.1189 4.80538 42.7588 6.96777 41.8125C11.4335 39.858 15.6996 38.3943 19.7666 37.4199C23.8292 36.4466 27.8983 35.961 31.9746 35.9609ZM60.4004 21.3242C62.906 21.3243 65.0033 22.1695 66.7236 23.8594C68.4434 25.5488 69.2997 27.6044 69.2998 30.0576C69.2998 32.511 68.4436 34.5673 66.7236 36.2568C65.0033 37.9467 62.906 38.7909 60.4004 38.791C57.8946 38.791 55.7966 37.9468 54.0762 36.2568C52.3563 34.5673 51.5 32.511 51.5 30.0576C51.5001 27.6045 52.3565 25.5488 54.0762 23.8594C55.7966 22.1694 57.8946 21.3242 60.4004 21.3242ZM32 0.5C36.2862 0.5 39.7544 1.8354 42.4492 4.48242C45.1433 7.12883 46.5 10.5315 46.5 14.7344C46.5 18.9372 45.1433 22.3399 42.4492 24.9863C39.7544 27.6333 36.2861 28.9688 32 28.9688C27.7139 28.9688 24.2456 27.6333 21.5508 24.9863C18.8567 22.3399 17.5 18.9372 17.5 14.7344C17.5 10.5315 18.8567 7.12883 21.5508 4.48242C24.2456 1.8354 27.7139 0.5 32 0.5ZM32 5.39355C29.282 5.39355 27.0017 6.27147 25.1992 8.04199C23.3963 9.81308 22.5 12.0571 22.5 14.7344C22.5 17.4117 23.3963 19.6557 25.1992 21.4268C27.0017 23.1973 29.282 24.0752 32 24.0752C34.718 24.0752 36.9983 23.1973 38.8008 21.4268C40.6037 19.6557 41.5 17.4117 41.5 14.7344C41.5 12.0571 40.6037 9.81308 38.8008 8.04199C36.9983 6.27147 34.718 5.39355 32 5.39355Z" fill="#CC6386" stroke="#CC6386"/>
</svg>
