<svg width="80" height="80" viewBox="0 0 80 80" fill="none" xmlns="http://www.w3.org/2000/svg">
<path d="M53.3327 35C53.3327 37.7613 51.8403 40 49.9993 40C48.1583 40 46.666 37.7613 46.666 35C46.666 32.2386 48.1583 30 49.9993 30C51.8403 30 53.3327 32.2386 53.3327 35Z" fill="#FFE2E5"/>
<path d="M33.3327 35C33.3327 37.7613 31.8403 40 29.9993 40C28.1584 40 26.666 37.7613 26.666 35C26.666 32.2386 28.1584 30 29.9993 30C31.8403 30 33.3327 32.2386 33.3327 35Z" fill="#FFE2E5"/>
<path fill-rule="evenodd" clip-rule="evenodd" d="M39.808 4.16699H40.1907C47.8853 4.16696 53.9153 4.16693 58.6203 4.79949C63.436 5.44696 67.2364 6.79809 70.219 9.78079C73.2017 12.7635 74.5527 16.5636 75.2003 21.3794C75.8327 26.0843 75.8327 32.1144 75.8327 39.809V40.1917C75.8327 47.8863 75.8327 53.9163 75.2003 58.6213C74.5527 63.437 73.2017 67.2373 70.219 70.22C67.2364 73.2027 63.436 74.5537 58.6203 75.2013C53.9153 75.8337 47.8853 75.8337 40.1907 75.8337H39.808C32.1134 75.8337 26.0833 75.8337 21.3784 75.2013C16.5626 74.5537 12.7625 73.2027 9.77982 70.22C6.79712 67.2373 5.44598 63.437 4.79852 58.6213C4.16595 53.9163 4.16598 47.8863 4.16602 40.1917V39.809C4.16598 32.1144 4.16595 26.0843 4.79852 21.3794C5.44598 16.5636 6.79712 12.7635 9.77982 9.78079C12.7625 6.79809 16.5626 5.44696 21.3784 4.79949C26.0833 4.16693 32.1134 4.16696 39.808 4.16699ZM22.0446 9.75489C17.7832 10.3278 15.2142 11.4175 13.3153 13.3163C11.4165 15.2152 10.3268 17.7842 9.75392 22.0456C9.17132 26.3789 9.16602 32.0729 9.16602 40.0003C9.16602 47.9277 9.17132 53.6217 9.75392 57.955C10.3268 62.2163 11.4165 64.7853 13.3153 66.6843C15.2142 68.5833 17.7832 69.673 22.0446 70.2457C26.3779 70.8283 32.0719 70.8337 39.9993 70.8337C47.9267 70.8337 53.6207 70.8283 57.954 70.2457C62.2153 69.673 64.7843 68.5833 66.6833 66.6843C68.5823 64.7853 69.672 62.2163 70.2447 57.955C70.8273 53.6217 70.8327 47.9277 70.8327 40.0003C70.8327 32.0729 70.8273 26.3789 70.2447 22.0456C69.672 17.7842 68.5823 15.2152 66.6833 13.3163C64.7843 11.4175 62.2153 10.3278 57.954 9.75489C53.6207 9.17229 47.9267 9.16699 39.9993 9.16699C32.0719 9.16699 26.3779 9.17229 22.0446 9.75489ZM28.5106 54.6587C31.752 52.256 35.716 50.8337 39.9993 50.8337C44.2827 50.8337 48.2467 52.256 51.488 54.6587C52.5973 55.4807 52.83 57.0463 52.0077 58.1557C51.1857 59.265 49.62 59.4977 48.5107 58.6753C46.0827 56.876 43.1523 55.8337 39.9993 55.8337C36.8463 55.8337 33.916 56.876 31.4881 58.6753C30.3788 59.4977 28.8131 59.265 27.9909 58.1557C27.1688 57.0463 27.4014 55.4807 28.5106 54.6587Z" fill="#FFE2E5"/>
</svg>
