<svg width="46" height="46" viewBox="0 0 46 46" fill="none" xmlns="http://www.w3.org/2000/svg">
<g clip-path="url(#clip0_809_3342)">
<path fill-rule="evenodd" clip-rule="evenodd" d="M38.0939 41.4H7.9078C6.2831 41.4 5.08335 39.7968 5.69613 38.3225C8.53936 31.5053 15.2189 27.6 22.9997 27.6C30.7827 27.6 37.4623 31.5053 40.3055 38.3225C40.9183 39.7968 39.7186 41.4 38.0939 41.4ZM13.6083 13.8C13.6083 8.72616 17.8227 4.59996 22.9997 4.59996C28.179 4.59996 32.391 8.72616 32.391 13.8C32.391 18.8738 28.179 23 22.9997 23C17.8227 23 13.6083 18.8738 13.6083 13.8ZM45.8981 40.5627C44.1912 32.837 38.8522 27.1353 31.8252 24.5478C35.5488 21.6107 37.7206 16.8611 36.9223 11.6608C35.9972 5.62794 30.8743 0.800347 24.6901 0.0965468C16.1534 -0.876353 8.91266 5.63266 8.91266 13.8C8.91266 18.147 10.9694 22.0201 14.1765 24.5478C7.1471 27.1353 1.81048 32.837 0.101255 40.5627C-0.518572 43.371 1.7917 46 4.72414 46H41.2752C44.21 46 46.5202 43.371 45.8981 40.5627Z" fill="#2A1E17"/>
</g>
<defs>
<clipPath id="clip0_809_3342">
<rect width="46" height="46" fill="white"/>
</clipPath>
</defs>
</svg>
