<svg width="34" height="34" viewBox="0 0 34 34" fill="none" xmlns="http://www.w3.org/2000/svg">
<path opacity="0.5" fill-rule="evenodd" clip-rule="evenodd" d="M4.25 20.1875C4.8368 20.1875 5.3125 20.6632 5.3125 21.25C5.3125 23.2835 5.31475 24.7017 5.45863 25.7719C5.59838 26.8114 5.85402 27.3618 6.2461 27.7539C6.63817 28.146 7.18866 28.4016 8.22817 28.5414C9.29825 28.6852 10.7165 28.6875 12.75 28.6875H21.25C23.2835 28.6875 24.7017 28.6852 25.7719 28.5414C26.8114 28.4016 27.3618 28.146 27.7539 27.7539C28.146 27.3618 28.4016 26.8114 28.5414 25.7719C28.6852 24.7017 28.6875 23.2835 28.6875 21.25C28.6875 20.6632 29.1632 20.1875 29.75 20.1875C30.3368 20.1875 30.8125 20.6632 30.8125 21.25V21.3278C30.8125 23.2652 30.8125 24.8268 30.6475 26.055C30.476 27.3302 30.1093 28.4037 29.2566 29.2564C28.4037 30.1093 27.3302 30.476 26.055 30.6475C24.8268 30.8125 23.2652 30.8125 21.3278 30.8125H12.6723C10.7348 30.8125 9.17323 30.8125 7.94502 30.6475C6.66987 30.476 5.59622 30.1093 4.7435 29.2566C3.89078 28.4037 3.52402 27.3302 3.35257 26.055C3.18744 24.8268 3.18747 23.2652 3.1875 21.3278C3.1875 21.3019 3.1875 21.2759 3.1875 21.25C3.1875 20.6632 3.6632 20.1875 4.25 20.1875Z" fill="#1C274C"/>
<path fill-rule="evenodd" clip-rule="evenodd" d="M17 3.1875C17.2984 3.1875 17.5829 3.3129 17.7842 3.53305L23.4508 9.73097C23.8468 10.164 23.8168 10.8361 23.3837 11.2321C22.9506 11.628 22.2785 11.5979 21.8826 11.1649L18.0625 6.98672V22.6667C18.0625 23.2535 17.5868 23.7292 17 23.7292C16.4133 23.7292 15.9375 23.2535 15.9375 22.6667V6.98672L12.1175 11.1649C11.7216 11.5979 11.0495 11.628 10.6164 11.2321C10.1834 10.8361 10.1533 10.164 10.5492 9.73097L16.2159 3.53305C16.4172 3.3129 16.7017 3.1875 17 3.1875Z" fill="#1C274C"/>
</svg>
