<svg width="538" height="538" viewBox="0 0 538 538" fill="none" xmlns="http://www.w3.org/2000/svg">
<path d="M204.61 82.4614L203.6 83.4642L179.588 59.2811L180.597 58.2783C186.479 52.4367 195.983 52.4711 201.824 58.3536L204.684 61.2341C210.526 67.1165 210.492 76.6209 204.61 82.4614Z" fill="#455A64"/>
<path d="M203.601 83.5019L203.581 83.4826L179.55 59.2812L179.569 59.2618L180.58 58.259C183.417 55.442 187.178 53.8915 191.173 53.8915C191.191 53.8915 191.209 53.8915 191.228 53.8915C195.244 53.9055 199.015 55.4829 201.845 58.3332L204.705 61.2137C207.535 64.064 209.085 67.8451 209.071 71.8618C209.057 75.8785 207.48 79.6488 204.629 82.4786L203.601 83.5019ZM179.626 59.2822L203.601 83.4266L204.592 82.4431C207.431 79.6229 209.003 75.8656 209.017 71.8639C209.031 67.8612 207.486 64.093 204.667 61.2535L201.807 58.373C198.987 55.5335 195.229 53.9614 191.228 53.9474C191.209 53.9474 191.191 53.9474 191.173 53.9474C187.191 53.9474 183.444 55.4915 180.617 58.2988L179.626 59.2822Z" fill="#263238"/>
<path d="M106.949 130.468L107.995 129.503L131.107 154.547L130.061 155.512C123.969 161.134 114.473 160.753 108.851 154.662L106.098 151.679C100.477 145.587 100.858 136.091 106.949 130.468Z" fill="#455A64"/>
<path d="M119.897 159.519C119.692 159.519 119.487 159.515 119.28 159.506C115.266 159.346 111.556 157.632 108.832 154.68L106.08 151.697C103.356 148.745 101.945 144.909 102.105 140.896C102.265 136.882 103.979 133.172 106.931 130.448L107.997 129.464L108.015 129.484L131.146 154.548L131.127 154.566L130.081 155.53C127.28 158.116 123.684 159.519 119.897 159.519ZM106.967 130.489C104.027 133.202 102.318 136.901 102.158 140.899C101.997 144.899 103.404 148.72 106.118 151.661L108.871 154.644C111.584 157.585 115.283 159.293 119.281 159.454C119.487 159.461 119.691 159.465 119.895 159.465C123.67 159.465 127.253 158.068 130.043 155.493L131.07 154.547L107.994 129.542L106.967 130.489Z" fill="#263238"/>
<path d="M93.8008 99.4247L92.1093 101.522L109.435 115.496L111.127 113.398L93.8008 99.4247Z" fill="#455A64"/>
<path d="M94.9215 95.0162C97.2801 96.9186 97.6502 100.373 95.7479 102.731C93.8455 105.09 90.3915 105.46 88.0319 103.558C85.6733 101.655 85.3031 98.2012 87.2055 95.8426C89.1089 93.4829 92.5629 93.1139 94.9215 95.0162Z" fill="#263238"/>
<path d="M217.264 120.067L166.736 170.239C159.777 177.148 148.535 177.109 141.626 170.151L109.91 138.21C103.001 131.252 103.04 120.01 109.998 113.101L160.526 62.9277C167.485 56.0187 178.727 56.0586 185.636 63.017L217.352 94.956C224.262 101.914 224.222 113.156 217.264 120.067Z" fill="#E8505B"/>
<path d="M161.933 61.5289L159.557 52.4518L153.37 53.4772L151.583 46.9233L153.605 46.4574L155.025 51.2295L161.191 50.3913L163.777 59.6976L161.933 61.5289Z" fill="#455A64"/>
<path d="M188.753 98.2065L145.078 141.575C139.19 147.421 129.678 147.387 123.831 141.499L121.825 139.478C115.979 133.59 116.012 124.078 121.9 118.231L165.575 74.8627C171.463 69.0168 180.975 69.0502 186.822 74.938L188.828 76.9588C194.675 82.8477 194.641 92.3606 188.753 98.2065Z" fill="#263238"/>
<path d="M191.159 102.176C191.159 102.176 191.289 102.004 191.564 101.689C191.819 101.357 192.292 100.943 192.747 100.265C193.747 98.9942 195.053 96.9154 195.902 93.9467C196.307 92.4597 196.586 90.7607 196.614 88.8863C196.598 87.0151 196.33 84.9772 195.649 82.9026C194.971 80.8313 193.873 78.7267 192.292 76.8211C191.876 76.3638 191.454 75.899 191.026 75.4287C190.573 74.9747 190.113 74.5142 189.647 74.0472C188.714 73.111 187.767 72.1588 186.673 71.3346C184.497 69.6711 181.838 68.4165 178.903 67.8247C175.968 67.2953 172.766 67.3738 169.695 68.3551C168.157 68.8339 166.67 69.542 165.26 70.421C163.863 71.3335 162.587 72.4224 161.374 73.6706C158.913 76.1195 156.38 78.6395 153.784 81.2241C143.388 91.5569 131.961 102.914 119.966 114.835C117.049 117.801 115.074 121.66 114.619 125.707C114.368 127.72 114.44 129.755 114.812 131.719C115.193 133.683 115.927 135.55 116.883 137.262C117.346 138.132 117.932 138.916 118.512 139.698C119.151 140.434 119.777 141.164 120.483 141.851C121.877 143.233 123.171 144.674 124.727 145.748C127.776 147.99 131.465 149.167 135.07 149.275C138.68 149.388 142.23 148.45 145.161 146.681C145.922 146.282 146.578 145.734 147.269 145.248C147.91 144.697 148.539 144.153 149.139 143.562C150.335 142.377 151.514 141.211 152.671 140.065C157.304 135.482 161.62 131.213 165.561 127.315C173.443 119.542 179.824 113.247 184.253 108.879C186.457 106.723 188.173 105.044 189.356 103.888C189.932 103.333 190.376 102.904 190.692 102.6C190.993 102.314 191.159 102.176 191.159 102.176C191.159 102.176 191.02 102.341 190.731 102.642C190.424 102.956 189.993 103.396 189.433 103.97C188.269 105.144 186.576 106.848 184.405 109.037C180.006 113.434 173.666 119.772 165.839 127.598C161.912 131.511 157.612 135.797 152.998 140.397C151.843 141.547 150.669 142.715 149.476 143.904C148.879 144.496 148.224 145.069 147.571 145.63C146.865 146.131 146.192 146.693 145.413 147.106C142.408 148.929 138.765 149.901 135.055 149.792C131.351 149.689 127.554 148.485 124.414 146.182C122.802 145.07 121.48 143.601 120.098 142.234C119.4 141.558 118.738 140.794 118.085 140.04C117.486 139.236 116.884 138.429 116.405 137.534C115.418 135.773 114.663 133.85 114.268 131.827C113.883 129.805 113.809 127.711 114.065 125.638C114.532 121.472 116.566 117.491 119.571 114.439C131.577 102.529 143.013 91.1825 153.419 80.8593C156.022 78.2812 158.56 75.7666 161.027 73.323C162.236 72.0835 163.575 70.9418 165.001 70.0186C166.451 69.1212 167.979 68.3992 169.556 67.914C172.707 66.9176 175.985 66.8487 178.986 67.4018C181.986 68.0173 184.701 69.3128 186.915 71.0215C188.029 71.8693 188.994 72.8507 189.915 73.7825C190.378 74.2516 190.835 74.7143 191.287 75.1705C191.72 75.6515 192.147 76.1271 192.567 76.5951C194.167 78.5459 195.272 80.6947 195.948 82.8058C196.627 84.9201 196.883 86.9914 196.883 88.8895C196.839 90.7908 196.539 92.5092 196.114 94.008C195.222 97.0025 193.873 99.0792 192.839 100.335C192.366 101.005 191.878 101.409 191.608 101.728C191.316 102.031 191.159 102.176 191.159 102.176Z" fill="#263238"/>
<path d="M135.317 136.044C135.162 136.046 134.976 131.712 134.899 126.364C134.824 121.015 134.887 116.677 135.042 116.675C135.197 116.673 135.383 121.007 135.459 126.356C135.536 131.704 135.472 136.042 135.317 136.044Z" fill="white"/>
<path d="M144.689 125.595C144.696 125.75 140.364 126.071 135.015 126.312C129.664 126.554 125.323 126.624 125.315 126.469C125.309 126.314 129.639 125.993 134.99 125.752C140.338 125.511 144.681 125.44 144.689 125.595Z" fill="white"/>
<path d="M173.666 96.9595C173.511 96.9617 173.325 92.6275 173.249 87.2787C173.174 81.9289 173.237 77.5915 173.392 77.5894C173.547 77.5872 173.733 81.9213 173.81 87.2712C173.885 92.6189 173.82 96.9574 173.666 96.9595Z" fill="white"/>
<path d="M183.037 86.5105C183.045 86.6654 178.713 86.9861 173.364 87.2271C168.013 87.4692 163.671 87.5391 163.665 87.3842C163.657 87.2293 167.988 86.9086 173.339 86.6665C178.688 86.4266 183.031 86.3555 183.037 86.5105Z" fill="white"/>
<path d="M155.227 39.1514C157.362 41.3012 157.35 44.7756 155.199 46.9104C153.049 49.0452 149.575 49.0334 147.44 46.8835C145.305 44.7337 145.317 41.2593 147.467 39.1245C149.618 36.9886 153.092 37.0015 155.227 39.1514Z" fill="#263238"/>
<path d="M168.403 168.583C168.376 168.611 168.039 168.332 167.455 167.802C166.87 167.273 166.038 166.494 165.018 165.522C162.977 163.579 160.187 160.866 157.135 157.841C154.082 154.813 151.346 152.045 149.395 150.011C147.448 147.987 146.273 146.659 146.367 146.595C146.411 146.601 146.692 146.87 147.273 147.42C147.927 148.049 148.729 148.822 149.676 149.732C151.778 151.797 154.509 154.478 157.53 157.443C160.581 160.468 163.327 163.225 165.295 165.24C166.205 166.188 166.978 166.992 167.607 167.646C168.145 168.224 168.43 168.555 168.403 168.583Z" fill="#263238"/>
<path d="M215.011 121.642C214.984 121.67 214.647 121.39 214.063 120.861C213.478 120.331 212.646 119.552 211.626 118.581C209.585 116.637 206.795 113.925 203.743 110.899C200.69 107.871 197.954 105.104 196.003 103.069C194.056 101.045 192.881 99.7173 192.975 99.6538C193.019 99.6592 193.3 99.9282 193.881 100.478C194.535 101.107 195.337 101.88 196.284 102.79C198.386 104.855 201.117 107.537 204.138 110.501C207.189 113.527 209.935 116.283 211.903 118.299C212.813 119.247 213.586 120.05 214.215 120.705C214.753 121.282 215.039 121.615 215.011 121.642Z" fill="#263238"/>
<path d="M192.742 106.357L153.38 146.359L157.77 150.679L197.132 110.677L192.742 106.357Z" fill="#263238"/>
<path d="M148.055 153.677C148.03 154.326 147.482 154.832 146.832 154.805C146.182 154.779 145.676 154.232 145.703 153.582C145.729 152.932 146.277 152.426 146.927 152.453C147.577 152.479 148.082 153.027 148.055 153.677Z" fill="#263238"/>
<path d="M157.031 163.155C157.006 163.805 156.458 164.311 155.808 164.284C155.158 164.258 154.652 163.71 154.679 163.06C154.705 162.41 155.253 161.905 155.903 161.932C156.553 161.957 157.057 162.505 157.031 163.155Z" fill="#263238"/>
<path d="M200.804 99.968C200.778 100.618 200.231 101.124 199.581 101.097C198.931 101.071 198.425 100.523 198.452 99.8733C198.478 99.2234 199.026 98.7177 199.675 98.7446C200.324 98.7704 200.83 99.3181 200.804 99.968Z" fill="#263238"/>
<path d="M209.78 109.446C209.754 110.096 209.207 110.602 208.557 110.575C207.907 110.549 207.401 110.002 207.428 109.352C207.454 108.702 208.002 108.196 208.651 108.223C209.3 108.249 209.806 108.797 209.78 109.446Z" fill="#263238"/>
<path d="M113.467 154.912C113.396 154.963 112.632 153.937 110.981 152.706C110.171 152.073 109.154 151.376 108.107 150.461C107.056 149.552 106.068 148.318 105.368 146.862C103.948 143.924 104.002 140.831 104.524 138.817C104.764 137.79 105.137 137.018 105.4 136.498C105.7 135.995 105.881 135.729 105.914 135.748C106.019 135.8 105.297 136.895 104.91 138.903C104.503 140.873 104.52 143.821 105.873 146.62C107.172 149.475 109.67 151.048 111.229 152.399C112.848 153.732 113.53 154.882 113.467 154.912Z" fill="white"/>
<path d="M160.242 68.3573C160.35 68.4681 149.039 79.6338 134.98 93.2914C120.917 106.954 109.434 117.937 109.325 117.826C109.217 117.716 120.526 106.553 134.589 92.889C148.648 79.2313 160.135 68.2464 160.242 68.3573Z" fill="white"/>
<path d="M90.3033 103.156C90.2882 103.218 89.7405 103.155 89.0153 102.675C88.2998 102.211 87.4358 101.251 87.1485 99.9196C86.8687 98.5864 87.2668 97.3566 87.7317 96.6421C88.1997 95.9083 88.6742 95.6285 88.713 95.6791C88.7765 95.7426 88.4192 96.116 88.0792 96.8336C87.737 97.5374 87.453 98.6413 87.6972 99.8034C87.9469 100.963 88.6559 101.855 89.2553 102.36C89.8568 102.876 90.3345 103.072 90.3033 103.156Z" fill="white"/>
<path d="M150.056 47.0126C150.043 47.0729 149.449 47.0008 148.683 46.4574C147.928 45.9345 147.035 44.8466 146.841 43.3854C146.658 41.9221 147.246 40.6438 147.843 39.9465C148.448 39.2267 149.003 39.0061 149.031 39.061C149.085 39.1352 148.633 39.4655 148.162 40.1822C147.691 40.8816 147.237 42.0393 147.397 43.3133C147.565 44.5852 148.298 45.5901 148.931 46.1475C149.568 46.7221 150.089 46.9276 150.056 47.0126Z" fill="white"/>
<path d="M190.794 55.6432C190.793 55.8164 188.698 55.7056 186.374 56.6471C184.035 57.5542 182.585 59.0703 182.466 58.9455C182.342 58.8777 183.685 57.0947 186.166 56.1263C188.637 55.131 190.837 55.5098 190.794 55.6432Z" fill="white"/>
<path d="M146.128 170.506C146.018 170.614 142.422 167.073 138.099 162.599C133.775 158.123 130.361 154.408 130.471 154.301C130.582 154.193 134.177 157.733 138.502 162.209C142.825 166.684 146.24 170.399 146.128 170.506Z" fill="white"/>
<path d="M270.325 428.918H224.283V494.177H270.325V428.918Z" fill="#E8505B"/>
<path d="M276.111 499.773H218.497V499.191C218.497 495.801 221.245 493.054 224.634 493.054H269.975C273.364 493.054 276.111 495.801 276.111 499.191V499.773Z" fill="#263238"/>
<path d="M283.172 499.773H213.246V510.404H283.172V499.773Z" fill="#E8505B"/>
<path d="M270.1 487.004C270.1 487.159 259.893 487.284 247.305 487.284C234.712 487.284 224.507 487.158 224.507 487.004C224.507 486.85 234.712 486.725 247.305 486.725C259.893 486.725 270.1 486.849 270.1 487.004Z" fill="#263238"/>
<path d="M270.1 479.244C270.1 479.399 259.893 479.524 247.305 479.524C234.712 479.524 224.507 479.398 224.507 479.244C224.507 479.089 234.712 478.964 247.305 478.964C259.893 478.964 270.1 479.09 270.1 479.244Z" fill="#263238"/>
<path d="M270.1 471.622C270.1 471.777 259.893 471.902 247.305 471.902C234.712 471.902 224.507 471.776 224.507 471.622C224.507 471.468 234.712 471.342 247.305 471.342C259.893 471.342 270.1 471.467 270.1 471.622Z" fill="#263238"/>
<path d="M270.1 463.862C270.1 464.016 259.893 464.141 247.305 464.141C234.712 464.141 224.507 464.015 224.507 463.862C224.507 463.707 234.712 463.582 247.305 463.582C259.893 463.582 270.1 463.707 270.1 463.862Z" fill="#263238"/>
<path d="M270.1 456.239C270.1 456.394 259.893 456.519 247.305 456.519C234.712 456.519 224.507 456.393 224.507 456.239C224.507 456.084 234.712 455.959 247.305 455.959C259.893 455.959 270.1 456.084 270.1 456.239Z" fill="#263238"/>
<path d="M270.1 448.479C270.1 448.634 259.893 448.759 247.305 448.759C234.712 448.759 224.507 448.633 224.507 448.479C224.507 448.325 234.712 448.199 247.305 448.199C259.893 448.199 270.1 448.324 270.1 448.479Z" fill="#263238"/>
<path d="M270.1 440.857C270.1 441.012 259.893 441.136 247.305 441.136C234.712 441.136 224.507 441.011 224.507 440.857C224.507 440.703 234.712 440.577 247.305 440.577C259.893 440.576 270.1 440.702 270.1 440.857Z" fill="#263238"/>
<path d="M270.1 433.097C270.1 433.252 259.893 433.376 247.305 433.376C234.712 433.376 224.507 433.251 224.507 433.097C224.507 432.943 234.712 432.817 247.305 432.817C259.893 432.817 270.1 432.942 270.1 433.097Z" fill="#263238"/>
<g opacity="0.3">
<path d="M224.283 438.013L270.1 436.74V430.087H223.868L224.283 438.013Z" fill="black"/>
</g>
<path d="M342.439 428.918H296.397V494.177H342.439V428.918Z" fill="#E8505B"/>
<path d="M348.225 499.773H290.61V499.191C290.61 495.801 293.357 493.054 296.747 493.054H342.087C345.477 493.054 348.224 495.801 348.224 499.191V499.773H348.225Z" fill="#263238"/>
<path d="M355.287 499.773H285.361V510.404H355.287V499.773Z" fill="#E8505B"/>
<path d="M342.214 487.004C342.214 487.159 332.007 487.284 319.419 487.284C306.827 487.284 296.622 487.158 296.622 487.004C296.622 486.85 306.827 486.725 319.419 486.725C332.007 486.725 342.214 486.849 342.214 487.004Z" fill="#263238"/>
<path d="M342.214 479.244C342.214 479.399 332.007 479.524 319.419 479.524C306.827 479.524 296.622 479.398 296.622 479.244C296.622 479.089 306.827 478.964 319.419 478.964C332.007 478.964 342.214 479.09 342.214 479.244Z" fill="#263238"/>
<path d="M342.214 471.622C342.214 471.777 332.007 471.902 319.419 471.902C306.827 471.902 296.622 471.776 296.622 471.622C296.622 471.468 306.827 471.342 319.419 471.342C332.007 471.342 342.214 471.467 342.214 471.622Z" fill="#263238"/>
<path d="M342.214 463.862C342.214 464.016 332.007 464.141 319.419 464.141C306.827 464.141 296.622 464.015 296.622 463.862C296.622 463.707 306.827 463.582 319.419 463.582C332.007 463.582 342.214 463.707 342.214 463.862Z" fill="#263238"/>
<path d="M342.214 456.239C342.214 456.394 332.007 456.519 319.419 456.519C306.827 456.519 296.622 456.393 296.622 456.239C296.622 456.084 306.827 455.959 319.419 455.959C332.007 455.959 342.214 456.084 342.214 456.239Z" fill="#263238"/>
<path d="M342.214 448.479C342.214 448.634 332.007 448.759 319.419 448.759C306.827 448.759 296.622 448.633 296.622 448.479C296.622 448.325 306.827 448.199 319.419 448.199C332.007 448.199 342.214 448.324 342.214 448.479Z" fill="#263238"/>
<path d="M342.214 440.857C342.214 441.012 332.007 441.136 319.419 441.136C306.827 441.136 296.622 441.011 296.622 440.857C296.622 440.703 306.827 440.577 319.419 440.577C332.007 440.576 342.214 440.702 342.214 440.857Z" fill="#263238"/>
<path d="M342.214 433.097C342.214 433.252 332.007 433.376 319.419 433.376C306.827 433.376 296.622 433.251 296.622 433.097C296.622 432.943 306.827 432.817 319.419 432.817C332.007 432.817 342.214 432.942 342.214 433.097Z" fill="#263238"/>
<g opacity="0.3">
<path d="M296.397 438.013L342.214 436.74V430.087H295.983L296.397 438.013Z" fill="black"/>
</g>
<path d="M366.664 249.55L364.561 257.883L346.119 253.227C345.064 252.96 344.424 251.888 344.69 250.833L345.829 246.322C346.095 245.267 347.166 244.628 348.222 244.893L366.664 249.55Z" fill="#E8505B"/>
<g opacity="0.3">
<path d="M366.664 249.55L364.561 257.883L346.119 253.227C345.064 252.96 344.424 251.888 344.69 250.833L345.829 246.322C346.095 245.267 347.166 244.628 348.222 244.893L366.664 249.55Z" fill="black"/>
</g>
<path d="M363.379 262.559L360.214 275.097L343.034 270.759C341.282 270.317 340.22 268.537 340.663 266.786L342.226 260.593C342.668 258.841 344.448 257.779 346.2 258.222L363.379 262.559Z" fill="#E8505B"/>
<path d="M358.64 247.516L353.268 268.792L361.303 270.82L366.674 249.544L358.64 247.516Z" fill="#E8505B"/>
<path d="M371.954 334.01C371.954 334.01 406.328 332.613 403.486 299.671C401.309 274.437 363.776 274.207 363.776 274.207L373.373 253.238C373.373 253.238 417.234 257.054 425.892 288.993C435.672 325.077 413.054 354.514 371.954 353.821V334.01Z" fill="#E8505B"/>
<path d="M376.16 250.275L363.092 247.387L356.663 276.473L369.732 279.361L376.16 250.275Z" fill="#263238"/>
<path d="M370.311 276.29C370.281 276.541 367.346 276.036 363.804 275.227C360.256 274.417 357.414 273.614 357.449 273.464C357.485 273.314 360.383 273.871 363.929 274.681C365.701 275.085 367.301 275.474 368.455 275.768C368.921 275.892 369.371 276.01 369.818 276.128C370.147 276.22 370.295 276.273 370.311 276.29Z" fill="#455A64"/>
<path d="M371.469 271.054C371.438 271.305 368.504 270.8 364.962 269.991C361.412 269.181 358.572 268.378 358.607 268.229C358.643 268.078 361.54 268.635 365.087 269.446C366.859 269.85 368.459 270.239 369.612 270.532C370.078 270.656 370.529 270.774 370.975 270.893C371.305 270.984 371.451 271.037 371.469 271.054Z" fill="#455A64"/>
<path d="M372.852 265.818C372.821 266.069 369.888 265.564 366.346 264.756C362.797 263.946 359.955 263.143 359.991 262.993C360.026 262.842 362.924 263.399 366.471 264.21C368.243 264.614 369.843 265.003 370.996 265.296C371.462 265.42 371.913 265.539 372.359 265.657C372.689 265.747 372.835 265.8 372.852 265.818Z" fill="#455A64"/>
<path d="M373.783 260.581C373.753 260.832 370.819 260.327 367.276 259.518C363.727 258.708 360.886 257.905 360.922 257.755C360.957 257.604 363.855 258.161 367.401 258.972C369.173 259.376 370.773 259.765 371.927 260.058C372.393 260.182 372.844 260.301 373.289 260.419C373.619 260.511 373.767 260.564 373.783 260.581Z" fill="#455A64"/>
<path d="M375.13 255.682C375.1 255.933 372.166 255.429 368.624 254.619C365.074 253.809 362.233 253.006 362.269 252.856C362.304 252.705 365.202 253.263 368.748 254.073C370.521 254.477 372.121 254.866 373.274 255.159C373.74 255.283 374.191 255.402 374.636 255.52C374.967 255.613 375.113 255.665 375.13 255.682Z" fill="#455A64"/>
<path d="M379.464 353.601C379.391 353.613 379.112 352.507 378.765 350.7C378.418 348.891 378.012 346.377 377.695 343.584C377.38 340.79 377.215 338.248 377.151 336.408C377.086 334.567 377.11 333.428 377.185 333.424C377.265 333.421 377.381 334.553 377.547 336.383C377.713 338.213 377.94 340.739 378.253 343.522C378.568 346.303 378.91 348.816 379.157 350.636C379.403 352.456 379.543 353.587 379.464 353.601Z" fill="#263238"/>
<path d="M390.143 351.936C389.993 351.977 388.591 347.38 387.011 341.669C385.431 335.955 384.271 331.292 384.42 331.251C384.569 331.21 385.971 335.807 387.552 341.519C389.131 347.23 390.292 351.894 390.143 351.936Z" fill="#263238"/>
<path d="M404.507 346.794C404.438 346.833 403.751 345.734 402.674 343.941C401.514 342.001 400.074 339.593 398.483 336.93C396.883 334.27 395.435 331.866 394.27 329.931C393.196 328.136 392.551 327.013 392.617 326.971C392.681 326.93 393.445 327.977 394.606 329.72C395.767 331.462 397.321 333.903 398.965 336.643C400.608 339.382 402.029 341.901 403.02 343.747C404.009 345.591 404.574 346.757 404.507 346.794Z" fill="#263238"/>
<path d="M416.592 337.105C416.493 337.225 412.215 333.837 407.037 329.54C401.858 325.241 397.74 321.662 397.839 321.543C397.938 321.424 402.215 324.811 407.394 329.11C412.572 333.406 416.69 336.987 416.592 337.105Z" fill="#263238"/>
<path d="M424.371 323.826C424.312 323.969 419.25 321.996 413.069 319.422C406.885 316.848 401.922 314.644 401.981 314.502C402.04 314.359 407.1 316.33 413.284 318.906C419.467 321.48 424.43 323.683 424.371 323.826Z" fill="#263238"/>
<path d="M428.181 309.487C428.169 309.564 426.787 309.419 424.561 309.149C422.176 308.854 419.178 308.483 415.864 308.073C412.547 307.674 409.548 307.312 407.163 307.025C404.935 306.751 403.56 306.561 403.567 306.481C403.573 306.406 404.962 306.458 407.201 306.63C409.441 306.802 412.529 307.101 415.931 307.517C419.332 307.932 422.402 308.385 424.616 308.756C426.832 309.127 428.193 309.411 428.181 309.487Z" fill="#263238"/>
<path d="M426.404 294.62C426.424 294.691 425.189 295.13 423.154 295.724C421.122 296.318 418.286 297.052 415.122 297.72C411.957 298.386 409.066 298.857 406.966 299.133C404.865 299.411 403.558 299.508 403.548 299.434C403.538 299.354 404.826 299.118 406.904 298.742C408.983 298.366 411.853 297.835 415.007 297.171C418.159 296.506 420.998 295.834 423.053 295.339C425.108 294.846 426.381 294.541 426.404 294.62Z" fill="#263238"/>
<path d="M422.08 280.356C422.15 280.494 417.539 282.959 411.782 285.861C406.023 288.764 401.3 291.004 401.23 290.865C401.16 290.728 405.77 288.263 411.529 285.361C417.287 282.459 422.011 280.217 422.08 280.356Z" fill="#263238"/>
<path d="M413.217 268.788C413.318 268.905 409.485 272.372 404.656 276.531C399.825 280.691 395.829 283.967 395.728 283.85C395.627 283.733 399.46 280.267 404.29 276.106C409.119 271.947 413.116 268.671 413.217 268.788Z" fill="#263238"/>
<path d="M398.262 260.194C398.394 260.274 395.973 264.531 392.855 269.702C389.736 274.874 387.1 279.001 386.967 278.921C386.835 278.841 389.256 274.584 392.375 269.412C395.493 264.242 398.13 260.114 398.262 260.194Z" fill="#263238"/>
<path d="M384.863 254.815C385.01 254.863 383.575 259.615 381.658 265.425C379.741 271.238 378.068 275.91 377.921 275.862C377.774 275.813 379.209 271.063 381.127 265.25C383.042 259.439 384.715 254.767 384.863 254.815Z" fill="#263238"/>
<g opacity="0.3">
<path d="M401.008 316.538C397.917 323.371 392.793 327.143 388.541 329.325C383.708 331.805 380.103 332.61 380.103 332.61C386.679 336.118 395.263 334.018 401.016 329.279C406.767 324.54 409.792 316.995 410 309.545C410.098 306.017 409.6 302.426 408.139 299.213C406.677 296 404.26 292.63 401.057 291.144C401.057 291.144 402.339 293.295 403.058 296.793C404.072 301.734 404.291 309.28 401.008 316.538Z" fill="black"/>
</g>
<path d="M148.305 374.583C148.335 374.558 148.713 374.982 149.372 375.77C150.039 376.553 150.946 377.732 152.013 379.229C154.152 382.217 156.827 386.564 159.143 391.683C161.448 396.81 162.935 401.693 163.759 405.274C164.173 407.065 164.456 408.526 164.602 409.543C164.757 410.559 164.824 411.122 164.786 411.129C164.749 411.135 164.609 410.584 164.388 409.584C164.177 408.582 163.836 407.139 163.374 405.37C162.457 401.831 160.921 397.004 158.631 391.915C156.332 386.832 153.731 382.486 151.687 379.455C150.666 377.938 149.81 376.727 149.199 375.905C148.596 375.076 148.275 374.606 148.305 374.583Z" fill="#263238"/>
<path d="M143.735 370.764C143.839 370.649 144.346 370.933 144.87 371.399C145.394 371.865 145.737 372.336 145.633 372.452C145.531 372.567 145.022 372.283 144.498 371.817C143.975 371.351 143.633 370.879 143.735 370.764Z" fill="#263238"/>
<path d="M144.782 367.604C144.915 367.524 145.447 368.169 145.971 369.042C146.495 369.917 146.812 370.69 146.679 370.769C146.547 370.849 146.014 370.204 145.49 369.33C144.967 368.456 144.65 367.683 144.782 367.604Z" fill="#263238"/>
<path d="M164.693 411.808C164.674 411.803 164.731 411.506 164.858 410.944C165.002 410.334 165.194 409.517 165.435 408.493C165.936 406.364 166.664 403.286 167.489 399.466C169.145 391.83 171.157 381.213 172.633 369.382C173.423 363.484 173.706 357.763 175.088 352.717C175.767 350.203 176.738 347.891 177.975 345.919C179.234 343.961 180.72 342.349 182.264 341.119C185.347 338.622 188.452 337.547 190.578 337.064C191.653 336.831 192.501 336.727 193.076 336.688C193.653 336.654 193.955 336.646 193.957 336.665C193.958 336.685 193.657 336.731 193.088 336.801C192.52 336.875 191.683 337.014 190.628 337.276C188.541 337.818 185.508 338.937 182.515 341.426C181.018 342.651 179.581 344.245 178.37 346.165C177.178 348.103 176.242 350.372 175.587 352.853C174.253 357.822 173.982 363.534 173.191 369.452C171.711 381.304 169.635 391.93 167.878 399.553C167.001 403.367 166.214 406.433 165.648 408.547C165.364 409.56 165.138 410.368 164.968 410.973C164.806 411.525 164.711 411.812 164.693 411.808Z" fill="#455A64"/>
<path d="M165.969 326.477C166.089 326.41 166.619 328.304 168.711 330.484C170.754 332.664 174.509 334.863 179.061 335.517C183.624 336.154 187.823 335.499 190.802 335.02C192.209 334.774 193.395 334.567 194.346 334.4C195.184 334.256 195.652 334.192 195.66 334.23C195.668 334.268 195.217 334.404 194.391 334.614C193.566 334.823 192.367 335.108 190.873 335.409C187.901 335.988 183.657 336.721 178.98 336.07C174.298 335.4 170.449 333.069 168.421 330.754C167.392 329.604 166.746 328.52 166.404 327.733C166.058 326.948 165.942 326.485 165.969 326.477Z" fill="#263238"/>
<path d="M161.881 323.079C161.991 322.969 162.504 323.306 163.028 323.83C163.553 324.354 163.889 324.868 163.779 324.978C163.669 325.088 163.156 324.751 162.632 324.227C162.108 323.702 161.772 323.188 161.881 323.079Z" fill="#263238"/>
<path d="M163.105 321.207C163.237 321.125 163.724 321.671 164.193 322.427C164.662 323.182 164.936 323.861 164.804 323.943C164.673 324.025 164.186 323.478 163.717 322.723C163.247 321.966 162.974 321.288 163.105 321.207Z" fill="#263238"/>
<path d="M166.472 320.961C166.625 320.986 166.652 321.619 166.531 322.375C166.411 323.132 166.189 323.725 166.037 323.702C165.884 323.677 165.857 323.044 165.977 322.288C166.098 321.53 166.319 320.936 166.472 320.961Z" fill="#263238"/>
<path d="M176.608 362.983C176.647 362.988 176.611 363.669 176.515 364.899C176.422 366.128 176.243 367.905 175.985 370.095C175.472 374.475 174.577 380.509 173.234 387.107C171.885 393.706 170.345 399.609 169.101 403.841C168.48 405.958 167.949 407.661 167.553 408.83C167.16 409.999 166.926 410.639 166.889 410.627C166.852 410.616 167.016 409.953 167.344 408.766C167.692 407.49 168.157 405.792 168.72 403.735C169.865 399.482 171.34 393.579 172.686 386.995C174.026 380.413 174.981 374.404 175.595 370.044C175.883 367.931 176.121 366.187 176.299 364.875C176.461 363.654 176.569 362.979 176.608 362.983Z" fill="#455A64"/>
<path d="M195.684 338.07C195.691 338.175 194.142 338.182 191.765 338.811C189.403 339.423 186.207 340.805 183.457 343.344C180.706 345.885 179.074 348.961 178.276 351.267C177.459 353.587 177.329 355.131 177.225 355.115C177.19 355.111 177.19 354.725 177.27 354.031C177.347 353.338 177.532 352.34 177.9 351.142C178.617 348.758 180.24 345.553 183.077 342.933C185.915 340.314 189.237 338.952 191.67 338.427C192.893 338.156 193.903 338.05 194.6 338.028C195.297 338.004 195.682 338.035 195.684 338.07Z" fill="#455A64"/>
<path d="M169.796 411.584C169.777 411.582 169.793 411.303 169.841 410.774C169.891 410.246 169.972 409.467 170.111 408.466C170.421 406.495 170.817 403.495 172.661 400.314C173.573 398.739 174.814 397.185 175.827 395.355C176.317 394.437 176.755 393.443 176.946 392.362C177.149 391.284 177.141 390.136 177.038 388.963C176.864 386.627 176.183 384.114 176.706 381.451C176.954 380.124 177.631 378.889 178.429 377.801C179.221 376.7 180.127 375.683 180.848 374.548C181.58 373.421 182.046 372.173 182.055 370.873C182.089 369.576 181.816 368.291 181.541 367.03C180.922 364.505 180.693 361.93 180.922 359.534C181.346 354.708 183.337 350.634 185.65 347.846C187.965 345.026 190.476 343.371 192.262 342.441C193.159 341.97 193.888 341.673 194.386 341.487C194.888 341.311 195.154 341.227 195.161 341.245C195.167 341.263 194.914 341.383 194.429 341.591C193.948 341.811 193.238 342.138 192.366 342.633C190.631 343.612 188.193 345.295 185.959 348.095C183.728 350.862 181.822 354.862 181.436 359.578C181.229 361.932 181.456 364.402 182.076 366.913C182.354 368.177 182.646 369.5 182.611 370.889C182.608 372.284 182.086 373.68 181.319 374.849C180.562 376.037 179.651 377.056 178.879 378.128C178.098 379.192 177.475 380.327 177.241 381.562C176.736 384.044 177.378 386.535 177.55 388.919C177.648 390.117 177.652 391.314 177.427 392.456C177.215 393.601 176.745 394.638 176.232 395.579C175.171 397.45 173.914 398.982 172.999 400.516C171.157 403.588 170.698 406.545 170.324 408.499C170.169 409.45 170.045 410.211 169.951 410.788C169.869 411.312 169.815 411.586 169.796 411.584Z" fill="#455A64"/>
<path d="M196.951 349.219C196.956 349.3 195.963 349.092 194.307 349.594C192.674 350.069 190.427 351.448 188.745 354.035C187.026 356.605 186.258 360.297 185.849 364.362C185.448 368.454 184.827 372.96 183.879 377.62C181.98 386.952 179.382 395.177 177.468 401.097C176.503 404.057 175.686 406.441 175.115 408.084C174.837 408.859 174.613 409.485 174.439 409.971C174.279 410.4 174.185 410.623 174.167 410.618C174.148 410.611 174.205 410.378 174.331 409.937C174.48 409.442 174.67 408.805 174.907 408.017C175.443 406.289 176.183 403.9 177.09 400.978C178.908 395.032 181.438 386.805 183.33 377.509C184.275 372.862 184.906 368.398 185.337 364.304C185.777 360.226 186.593 356.449 188.417 353.817C190.195 351.177 192.55 349.809 194.249 349.385C195.101 349.145 195.795 349.141 196.255 349.137C196.713 349.172 196.952 349.2 196.951 349.219Z" fill="#E0E0E0"/>
<path d="M157.403 407.728H178.25C178.25 407.728 165.611 508.106 95.8156 507.764L96.712 488.196C96.712 488.196 144.19 485.255 157.403 407.728Z" fill="#E8505B"/>
<path d="M88.9637 482.558L88.813 491.151L69.7958 490.816C68.708 490.797 67.8407 489.9 67.8601 488.811L67.9419 484.159C67.9612 483.07 68.8586 482.204 69.9475 482.223L88.9637 482.558Z" fill="#E8505B"/>
<g opacity="0.3">
<path d="M88.9637 482.558L88.813 491.151L69.7958 490.816C68.708 490.797 67.8407 489.9 67.8601 488.811L67.9419 484.159C67.9612 483.07 68.8586 482.204 69.9475 482.223L88.9637 482.558Z" fill="black"/>
</g>
<path d="M88.728 495.973L88.501 508.901L70.7847 508.59C68.9781 508.558 67.5384 507.067 67.5706 505.261L67.6826 498.876C67.7138 497.069 69.2051 495.629 71.0117 495.662L88.728 495.973Z" fill="#E8505B"/>
<path d="M80.66 482.429L80.2738 504.367L88.5584 504.513L88.9446 482.575L80.66 482.429Z" fill="#E8505B"/>
<path d="M98.3848 481.099L85.0018 481.262L85.3652 511.049L98.7483 510.885L98.3848 481.099Z" fill="#263238"/>
<path d="M98.6046 507.765C98.6315 508.016 95.6607 508.192 92.0271 508.211C88.3869 508.23 85.4366 508.096 85.4376 507.941C85.4376 507.786 88.3869 507.669 92.0238 507.651C93.8423 507.64 95.4875 507.655 96.6786 507.678C97.1606 507.692 97.6266 507.706 98.0882 507.719C98.4293 507.733 98.5842 507.752 98.6046 507.765Z" fill="#455A64"/>
<path d="M98.539 502.403C98.5659 502.653 95.5951 502.83 91.9614 502.849C88.3213 502.869 85.372 502.734 85.372 502.579C85.372 502.424 88.3213 502.308 91.9582 502.289C93.7766 502.279 95.4218 502.293 96.613 502.317C97.095 502.331 97.5609 502.345 98.0225 502.358C98.3636 502.372 98.5186 502.389 98.539 502.403Z" fill="#455A64"/>
<path d="M98.6939 496.988C98.7208 497.239 95.75 497.415 92.1164 497.435C88.4762 497.454 85.5269 497.32 85.5269 497.165C85.5269 497.01 88.4762 496.894 92.1131 496.874C93.9316 496.865 95.5768 496.879 96.7679 496.902C97.25 496.916 97.7159 496.929 98.1775 496.943C98.5186 496.958 98.6735 496.975 98.6939 496.988Z" fill="#455A64"/>
<path d="M98.4088 491.678C98.4357 491.929 95.4649 492.105 91.8312 492.125C88.1911 492.144 85.2418 492.01 85.2418 491.855C85.2418 491.7 88.1911 491.582 91.828 491.564C93.6464 491.554 95.2916 491.568 96.4828 491.592C96.9648 491.606 97.4307 491.62 97.8923 491.633C98.2334 491.647 98.3884 491.664 98.4088 491.678Z" fill="#455A64"/>
<path d="M98.6046 486.602C98.6315 486.852 95.6607 487.029 92.0271 487.048C88.3869 487.068 85.4376 486.933 85.4376 486.778C85.4376 486.623 88.3869 486.507 92.0238 486.488C93.8423 486.478 95.4875 486.492 96.6786 486.516C97.1606 486.53 97.6266 486.544 98.0882 486.557C98.4293 486.569 98.5842 486.588 98.6046 486.602Z" fill="#455A64"/>
<path d="M105.923 506.778C105.952 506.779 105.974 506.951 105.986 507.317L106.008 507.942L105.819 507.332C105.433 506.081 104.515 502.166 103.769 497.481C103.306 494.589 102.989 491.956 102.815 490.045C102.64 488.134 102.594 486.947 102.67 486.94C102.749 486.931 102.932 488.104 103.209 489.998C103.484 491.893 103.861 494.509 104.324 497.392C105.066 502.062 105.82 505.997 105.985 507.296L105.818 507.311C105.858 506.946 105.892 506.777 105.923 506.778Z" fill="#263238"/>
<path d="M115.823 504.874C115.675 504.921 114.122 500.381 112.353 494.737C110.584 489.092 109.27 484.478 109.417 484.432C109.565 484.385 111.119 488.924 112.887 494.57C114.655 500.214 115.97 504.828 115.823 504.874Z" fill="#263238"/>
<path d="M127.512 499.935C127.374 500.003 125.074 495.635 122.378 490.179C119.68 484.721 117.606 480.243 117.746 480.174C117.884 480.105 120.183 484.473 122.88 489.931C125.577 495.386 127.651 499.866 127.512 499.935Z" fill="#263238"/>
<path d="M137.876 492.189C137.752 492.281 134.774 488.467 131.226 483.671C127.676 478.874 124.901 474.911 125.025 474.82C125.15 474.728 128.127 478.541 131.676 483.337C135.224 488.134 138 492.097 137.876 492.189Z" fill="#263238"/>
<path d="M146.924 483.6C146.814 483.71 143.349 480.407 139.186 476.226C135.022 472.044 131.736 468.565 131.844 468.456C131.954 468.347 135.418 471.649 139.583 475.831C143.746 480.011 147.033 483.491 146.924 483.6Z" fill="#263238"/>
<path d="M154.379 473.295C154.337 473.362 153.314 472.796 151.68 471.849C149.893 470.803 147.72 469.532 145.318 468.127C142.913 466.724 140.739 465.455 138.949 464.412C137.322 463.454 136.327 462.841 136.365 462.771C136.401 462.704 137.463 463.195 139.141 464.064C140.818 464.933 143.109 466.187 145.6 467.642C148.09 469.096 150.306 470.476 151.888 471.51C153.471 472.546 154.42 473.23 154.379 473.295Z" fill="#263238"/>
<path d="M159.427 462.854C159.388 462.924 158.401 462.454 156.816 461.681C155.231 460.907 153.044 459.841 150.604 458.712C148.164 457.584 145.935 456.608 144.319 455.902C142.703 455.197 141.706 454.749 141.734 454.674C141.761 454.604 142.809 454.92 144.467 455.534C146.125 456.148 148.389 457.071 150.84 458.203C153.289 459.336 155.458 460.464 157 461.329C158.543 462.195 159.463 462.789 159.427 462.854Z" fill="#263238"/>
<path d="M165.457 452.759C165.44 452.832 164.298 452.653 162.472 452.259C160.646 451.867 158.139 451.25 155.402 450.455C152.665 449.659 150.217 448.835 148.465 448.189C146.713 447.542 145.653 447.08 145.679 447.009C145.705 446.934 146.813 447.263 148.592 447.813C150.373 448.363 152.831 449.124 155.558 449.917C158.286 450.709 160.768 451.384 162.565 451.874C164.363 452.366 165.474 452.681 165.457 452.759Z" fill="#263238"/>
<path d="M168.677 442.577C168.658 442.731 164.202 442.29 158.726 441.593C153.248 440.895 148.825 440.206 148.844 440.052C148.864 439.898 153.318 440.339 158.796 441.036C164.273 441.735 168.697 442.424 168.677 442.577Z" fill="#263238"/>
<path d="M172.095 432.633C172.089 432.71 170.984 432.669 169.2 432.541C167.417 432.413 164.955 432.198 162.24 431.925C159.525 431.653 157.069 431.374 155.296 431.146C153.523 430.918 152.43 430.737 152.44 430.661C152.45 430.584 153.557 430.625 155.341 430.753C157.125 430.881 159.584 431.096 162.296 431.369C165.008 431.641 167.46 431.918 169.234 432.148C171.007 432.376 172.101 432.555 172.095 432.633Z" fill="#263238"/>
<path d="M174.735 422.986C174.74 423.141 170.095 423.411 164.362 423.59C158.628 423.77 153.977 423.789 153.971 423.634C153.966 423.479 158.61 423.209 164.345 423.03C170.078 422.851 174.729 422.832 174.735 422.986Z" fill="#263238"/>
<path d="M175.815 415.106C175.823 415.179 174.741 415.368 172.979 415.549C171.216 415.73 168.77 415.886 166.064 415.9C163.358 415.913 160.91 415.781 159.146 415.617C157.381 415.453 156.299 415.275 156.305 415.202C156.313 415.121 157.406 415.16 159.171 415.221C160.934 415.283 163.37 415.351 166.061 415.339C168.751 415.325 171.186 415.233 172.95 415.153C174.713 415.076 175.807 415.025 175.815 415.106Z" fill="#263238"/>
<path d="M158.314 410.71C158.324 410.71 158.33 410.802 158.334 410.982C158.336 411.194 158.338 411.455 158.339 411.777C158.322 412.475 158.357 413.51 158.269 414.836C158.164 417.491 157.814 421.334 156.948 426.012C156.089 430.69 154.612 436.189 152.268 442.034C149.934 447.878 146.666 454.033 142.437 459.946C138.163 465.83 133.353 470.875 128.544 474.937C123.738 479.007 118.987 482.146 114.82 484.439C110.655 486.74 107.12 488.285 104.633 489.223C103.404 489.725 102.412 490.019 101.754 490.256C101.449 490.356 101.2 490.437 100.998 490.502C100.827 490.555 100.737 490.578 100.734 490.568C100.731 490.559 100.814 490.518 100.979 490.447C101.176 490.368 101.418 490.269 101.716 490.148C102.361 489.877 103.339 489.552 104.554 489.02C107.009 488.022 110.505 486.426 114.626 484.093C118.75 481.766 123.451 478.61 128.21 474.543C132.971 470.484 137.737 465.462 141.982 459.618C146.184 453.745 149.443 447.639 151.79 441.84C154.146 436.041 155.654 430.583 156.559 425.937C157.472 421.29 157.88 417.468 158.051 414.823C158.173 413.502 158.173 412.471 158.227 411.775C158.247 411.453 158.265 411.193 158.279 410.981C158.292 410.802 158.304 410.709 158.314 410.71Z" fill="white"/>
<path d="M254.927 293.724C254.927 293.724 243.387 278.115 216.693 280.427C216.693 280.427 243.864 259.556 227.876 238.11C227.876 238.11 262.191 248.248 262.581 205.356C262.581 205.356 268.819 245.129 301.184 233.821C301.184 233.821 303.481 265.421 325.883 259.572C315.044 270.246 304.493 279.638 306.644 293.263" fill="#E8505B"/>
<g opacity="0.8">
<path d="M254.927 293.724C254.927 293.724 243.387 278.115 216.693 280.427C216.693 280.427 243.864 259.556 227.876 238.11C227.876 238.11 262.191 248.248 262.581 205.356C262.581 205.356 268.819 245.129 301.184 233.821C301.184 233.821 303.481 265.421 325.883 259.572C315.044 270.246 304.493 279.638 306.644 293.263" fill="white"/>
</g>
<path d="M254.927 293.724C254.927 293.724 254.654 275.52 233.212 277.377C233.212 277.377 253.156 265.879 240.314 248.652C240.314 248.652 267.877 256.795 268.19 222.341C268.19 222.341 273.202 254.29 299.198 245.206C299.198 245.206 296.098 268.385 314.092 263.687C305.385 272.26 301.856 282.01 303.583 292.954" fill="#E8505B"/>
<g opacity="0.6">
<path d="M254.927 293.724C254.927 293.724 254.654 275.52 233.212 277.377C233.212 277.377 253.156 265.879 240.314 248.652C240.314 248.652 267.877 256.795 268.19 222.341C268.19 222.341 273.202 254.29 299.198 245.206C299.198 245.206 296.098 268.385 314.092 263.687C305.385 272.26 301.856 282.01 303.583 292.954" fill="white"/>
</g>
<path d="M290.141 172.974C290.158 172.982 290.068 173.216 289.881 173.652C289.665 174.139 289.385 174.768 289.038 175.551C288.66 176.368 288.207 177.373 287.727 178.56C287.24 179.744 286.644 181.074 286.094 182.588C285.514 184.09 284.885 185.737 284.293 187.535C283.65 189.316 283.083 191.258 282.458 193.292C281.286 197.383 280.168 201.929 279.282 206.76C278.428 211.598 277.89 216.25 277.561 220.494C277.437 222.618 277.292 224.637 277.273 226.53C277.2 228.423 277.216 230.186 277.237 231.796C277.225 233.407 277.32 234.862 277.363 236.14C277.398 237.419 277.472 238.519 277.542 239.418C277.595 240.271 277.638 240.958 277.67 241.49C277.693 241.964 277.696 242.215 277.677 242.217C277.657 242.219 277.618 241.973 277.557 241.502C277.498 240.972 277.421 240.287 277.325 239.436C277.222 238.538 277.115 237.439 277.051 236.157C276.979 234.877 276.855 233.42 276.842 231.804C276.797 230.189 276.758 228.42 276.811 226.52C276.81 224.618 276.938 222.592 277.047 220.457C277.349 216.195 277.874 211.52 278.732 206.66C279.622 201.808 280.761 197.244 281.964 193.144C282.605 191.106 283.191 189.162 283.856 187.381C284.47 185.582 285.123 183.938 285.729 182.44C286.304 180.931 286.928 179.608 287.443 178.433C287.951 177.255 288.434 176.262 288.844 175.456C289.23 174.692 289.542 174.076 289.782 173.601C290 173.181 290.124 172.965 290.141 172.974Z" fill="#E8505B"/>
<path d="M213.127 165.587C212.997 165.72 210.632 162.849 206.669 160.753C202.73 158.61 199.032 158.227 199.072 158.045C199.078 157.981 200.004 157.988 201.468 158.276C202.929 158.561 204.92 159.182 206.935 160.26C208.947 161.343 210.565 162.658 211.609 163.718C212.658 164.779 213.177 165.546 213.127 165.587Z" fill="#E8505B"/>
<path d="M221.391 212.428C221.405 212.415 221.559 212.561 221.837 212.85C222.153 213.189 222.549 213.614 223.034 214.134C224.074 215.25 225.517 216.923 227.238 219.038C228.967 221.149 230.929 223.742 233.007 226.693C235.062 229.659 237.22 232.992 239.316 236.592C241.395 240.203 243.21 243.736 244.759 246.996C246.282 250.268 247.554 253.26 248.523 255.812C249.5 258.358 250.231 260.443 250.681 261.9C250.891 262.58 251.061 263.135 251.198 263.578C251.309 263.963 251.36 264.169 251.342 264.175C251.323 264.182 251.237 263.988 251.091 263.614C250.929 263.18 250.725 262.637 250.476 261.971C249.962 260.537 249.176 258.479 248.155 255.957C247.141 253.431 245.836 250.465 244.293 247.218C242.724 243.981 240.903 240.47 238.832 236.873C236.745 233.287 234.608 229.958 232.583 226.988C230.536 224.032 228.613 221.423 226.928 219.286C225.251 217.144 223.858 215.436 222.87 214.278C222.417 213.73 222.047 213.283 221.752 212.925C221.501 212.612 221.376 212.441 221.391 212.428Z" fill="#E8505B"/>
<path d="M295.373 217.923C295.389 217.933 295.313 218.102 295.151 218.414C294.954 218.78 294.714 219.225 294.424 219.763C294.097 220.342 293.704 221.055 293.287 221.902C292.865 222.747 292.348 223.69 291.866 224.776C290.835 226.917 289.744 229.529 288.671 232.478C287.633 235.44 286.632 238.746 285.824 242.276C285.042 245.814 284.529 249.231 284.197 252.352C283.904 255.477 283.77 258.305 283.784 260.68C283.754 261.868 283.817 262.942 283.837 263.886C283.851 264.831 283.9 265.642 283.947 266.306C283.978 266.917 284.005 267.422 284.026 267.837C284.038 268.188 284.035 268.373 284.016 268.375C283.996 268.377 283.962 268.195 283.913 267.848C283.864 267.434 283.803 266.932 283.729 266.323C283.649 265.66 283.567 264.848 283.524 263.901C283.474 262.954 283.383 261.877 283.388 260.683C283.324 258.296 283.416 255.449 283.684 252.302C283.989 249.158 284.49 245.714 285.278 242.152C286.092 238.597 287.114 235.272 288.186 232.301C289.293 229.343 290.429 226.732 291.51 224.602C292.017 223.521 292.561 222.587 293.012 221.753C293.458 220.916 293.879 220.216 294.235 219.653C294.563 219.134 294.834 218.706 295.055 218.354C295.248 218.062 295.357 217.913 295.373 217.923Z" fill="#E8505B"/>
<path d="M316.507 222.092C316.558 222.166 315.608 222.867 314.176 224.11C312.744 225.352 310.862 227.181 309.058 229.439C307.26 231.702 305.899 233.946 305.011 235.62C304.119 237.294 303.648 238.377 303.564 238.344C303.504 238.321 303.844 237.183 304.657 235.443C305.465 233.705 306.795 231.39 308.62 229.091C310.452 226.797 312.41 224.983 313.923 223.807C315.438 222.626 316.471 222.038 316.507 222.092Z" fill="#E8505B"/>
<path d="M226.656 249.541C226.692 249.485 227.735 250.054 229.287 251.183C230.839 252.309 232.871 254.035 234.838 256.212C236.802 258.393 238.31 260.592 239.271 262.251C240.235 263.911 240.694 265.008 240.635 265.037C240.556 265.078 239.975 264.05 238.934 262.46C237.896 260.87 236.358 258.739 234.422 256.587C232.481 254.441 230.52 252.692 229.044 251.497C227.571 250.298 226.608 249.614 226.656 249.541Z" fill="#E8505B"/>
<path d="M221.204 239.531C221.121 239.681 218.925 238.454 215.958 237.7C212.995 236.922 210.481 236.934 210.481 236.762C210.46 236.625 213.042 236.358 216.097 237.158C219.159 237.937 221.288 239.421 221.204 239.531Z" fill="#E8505B"/>
<path fill-rule="evenodd" clip-rule="evenodd" d="M199.071 205.846C199.227 205.216 199.466 204.618 199.776 204.065L198.803 202.576L200.847 200.464L202.365 201.387C202.909 201.06 203.498 200.801 204.124 200.625L204.488 198.886L207.428 198.838L207.849 200.564C208.479 200.72 209.078 200.96 209.631 201.27L211.118 200.297L213.23 202.342L212.307 203.86C212.635 204.403 212.893 204.993 213.07 205.618L214.808 205.983L214.857 208.923L213.131 209.343C212.975 209.974 212.735 210.572 212.426 211.126L213.399 212.613L211.354 214.726L209.836 213.802C209.293 214.129 208.703 214.389 208.078 214.565L207.713 216.304L204.774 216.352L204.353 214.627C203.722 214.47 203.124 214.231 202.57 213.921L201.083 214.893L198.971 212.849L199.894 211.331C199.567 210.787 199.307 210.198 199.131 209.573L197.392 209.208L197.344 206.268L199.071 205.846ZM202.945 207.513C202.973 209.255 204.409 210.644 206.151 210.615C207.893 210.586 209.282 209.152 209.253 207.41C209.225 205.668 207.79 204.279 206.048 204.308C204.307 204.337 202.917 205.771 202.945 207.513Z" fill="#E8505B"/>
<path fill-rule="evenodd" clip-rule="evenodd" d="M322.335 285.355C322.45 284.89 322.627 284.448 322.856 284.04L322.138 282.943L323.647 281.384L324.767 282.065C325.168 281.823 325.603 281.632 326.065 281.502L326.334 280.218L328.503 280.183L328.813 281.456C329.278 281.571 329.72 281.747 330.128 281.977L331.225 281.259L332.784 282.767L332.103 283.888C332.345 284.289 332.536 284.724 332.666 285.185L333.948 285.454L333.984 287.623L332.71 287.933C332.595 288.398 332.418 288.84 332.189 289.248L332.907 290.346L331.397 291.905L330.277 291.224C329.876 291.466 329.441 291.656 328.979 291.786L328.71 293.069L326.541 293.105L326.231 291.831C325.767 291.715 325.324 291.539 324.917 291.31L323.819 292.027L322.26 290.519L322.941 289.398C322.699 288.996 322.508 288.562 322.378 288.1L321.096 287.831L321.06 285.662L322.335 285.355ZM325.194 286.585C325.216 287.87 326.274 288.895 327.559 288.875C328.844 288.853 329.869 287.794 329.849 286.51C329.827 285.225 328.769 284.2 327.484 284.22C326.198 284.24 325.174 285.299 325.194 286.585Z" fill="#455A64"/>
<path d="M300.755 192.308L295.94 202.443L300.524 204.621L305.338 194.485L300.755 192.308Z" fill="#E0E0E0"/>
<path d="M295.934 202.461C295.972 202.448 296.447 202.642 297.26 202.987C298.075 203.334 299.219 203.826 300.604 204.455L300.334 204.551C301.536 201.908 303.208 198.32 305.079 194.383C304.961 194.049 305.242 194.837 305.212 194.755L305.208 194.754L305.204 194.752L305.195 194.747L305.175 194.739L305.137 194.721L305.062 194.685L304.912 194.614L304.611 194.471L304.017 194.188C303.624 194 303.235 193.815 302.852 193.631C302.088 193.264 301.347 192.907 300.635 192.566L300.99 192.44C299.597 195.331 298.359 197.803 297.455 199.585C297.033 200.406 296.676 201.101 296.377 201.682C296.117 202.176 295.964 202.451 295.934 202.461C295.905 202.472 296.003 202.217 296.208 201.733C296.463 201.15 296.767 200.451 297.127 199.627C297.93 197.815 299.099 195.221 300.51 192.212L300.622 191.972L300.864 192.086C301.578 192.422 302.323 192.772 303.089 193.132C303.473 193.314 303.862 193.498 304.257 193.684L304.852 193.966L305.153 194.108L305.303 194.179L305.378 194.215L305.416 194.233L305.434 194.242L305.444 194.246L305.448 194.248L305.451 194.249L305.452 194.25C305.424 194.17 305.703 194.957 305.585 194.625C303.715 198.562 301.989 202.126 300.7 204.726L300.609 204.911L300.43 204.823C298.984 204.108 297.837 203.51 297.067 203.105C296.298 202.696 295.897 202.474 295.934 202.461Z" fill="#263238"/>
<path d="M304.889 189.108C302.553 187.999 299.76 188.992 298.65 191.328L307.11 195.347C308.219 193.012 307.225 190.219 304.889 189.108Z" fill="#E0E0E0"/>
<path d="M304.889 189.108C304.9 189.084 305.084 189.142 305.406 189.3C305.721 189.47 306.169 189.763 306.615 190.268C307.054 190.771 307.496 191.489 307.684 192.407C307.893 193.315 307.813 194.417 307.342 195.458L307.236 195.692L306.998 195.58C305.678 194.961 304.254 194.292 302.76 193.591C301.271 192.875 299.853 192.193 298.539 191.561L298.303 191.447L298.418 191.217C298.927 190.195 299.732 189.436 300.567 189.025C301.397 188.592 302.234 188.48 302.9 188.502C303.573 188.529 304.084 188.692 304.414 188.827C304.74 188.978 304.901 189.084 304.889 189.108C304.862 189.192 304.166 188.793 302.899 188.817C302.276 188.838 301.512 188.981 300.77 189.407C300.022 189.812 299.323 190.516 298.883 191.44L298.76 191.096C300.08 191.715 301.505 192.384 302.999 193.085C304.488 193.801 305.905 194.482 307.218 195.114L306.874 195.237C307.313 194.313 307.416 193.326 307.258 192.49C307.119 191.646 306.748 190.963 306.371 190.467C305.592 189.47 304.842 189.182 304.889 189.108Z" fill="#263238"/>
<path d="M304.994 191.784C305.301 190.717 304.921 189.485 304.067 188.774L304.994 191.784Z" fill="#E0E0E0"/>
<path d="M304.067 188.774C304.137 188.639 304.931 189.068 305.233 190.063C305.543 191.055 305.128 191.856 304.994 191.784C304.842 191.735 304.957 191.026 304.698 190.227C304.462 189.421 303.969 188.901 304.067 188.774Z" fill="#263238"/>
<path d="M299.823 193.751C299.911 193.618 300.96 194.175 302.285 194.767C303.606 195.366 304.719 195.781 304.678 195.936C304.642 196.082 303.427 195.899 302.056 195.278C300.682 194.662 299.738 193.874 299.823 193.751Z" fill="#263238"/>
<path d="M299.258 194.94C299.346 194.807 300.396 195.364 301.72 195.956C303.041 196.555 304.154 196.971 304.113 197.125C304.078 197.271 302.862 197.088 301.491 196.467C300.117 195.853 299.172 195.064 299.258 194.94Z" fill="#263238"/>
<path d="M298.692 196.13C298.78 195.997 299.83 196.554 301.154 197.146C302.475 197.744 303.588 198.16 303.547 198.315C303.512 198.461 302.296 198.278 300.925 197.657C299.551 197.043 298.607 196.254 298.692 196.13Z" fill="#263238"/>
<path d="M298.127 197.32C298.216 197.187 299.265 197.744 300.589 198.336C301.911 198.935 303.023 199.351 302.982 199.505C302.947 199.651 301.731 199.468 300.36 198.847C298.986 198.233 298.041 197.444 298.127 197.32Z" fill="#263238"/>
<path d="M297.561 198.511C297.65 198.378 298.699 198.935 300.023 199.527C301.345 200.126 302.457 200.542 302.416 200.697C302.381 200.842 301.165 200.659 299.794 200.038C298.42 199.423 297.476 198.634 297.561 198.511Z" fill="#263238"/>
<path d="M296.996 199.701C297.085 199.568 298.134 200.125 299.458 200.717C300.78 201.316 301.892 201.732 301.851 201.887C301.816 202.032 300.6 201.849 299.229 201.228C297.855 200.613 296.91 199.824 296.996 199.701Z" fill="#263238"/>
<path d="M296.43 200.891C296.519 200.758 297.568 201.315 298.892 201.907C300.214 202.507 301.326 202.922 301.285 203.077C301.25 203.222 300.034 203.039 298.663 202.418C297.29 201.803 296.345 201.014 296.43 200.891Z" fill="#263238"/>
<path d="M194.57 279.718L184.352 284.354L186.448 288.975L196.666 284.34L194.57 279.718Z" fill="#E0E0E0"/>
<path d="M196.664 284.335C196.627 284.321 196.389 283.866 195.99 283.077C195.591 282.288 195.034 281.173 194.383 279.798L194.651 279.899C192.027 281.142 188.433 282.804 184.464 284.604C184.339 284.936 184.633 284.153 184.603 284.234L184.604 284.235L184.605 284.237L184.607 284.242L184.611 284.251L184.62 284.271L184.637 284.308L184.672 284.385L184.741 284.536L184.877 284.839L185.148 285.439C185.328 285.837 185.505 286.23 185.68 286.616C186.026 287.39 186.363 288.14 186.686 288.86L186.334 288.727C189.263 287.418 191.805 286.328 193.644 285.551C194.497 285.196 195.218 284.896 195.821 284.644C196.34 284.435 196.635 284.324 196.664 284.335C196.693 284.346 196.454 284.477 195.985 284.716C195.413 284.998 194.73 285.334 193.924 285.732C192.141 286.597 189.574 287.825 186.555 289.214L186.314 289.325L186.202 289.081C185.873 288.364 185.529 287.616 185.176 286.847C185 286.46 184.821 286.068 184.641 285.672L184.368 285.072L184.231 284.77L184.162 284.618L184.127 284.542L184.11 284.504L184.101 284.485L184.097 284.475L184.095 284.471L184.094 284.469L184.093 284.468C184.063 284.547 184.356 283.765 184.233 284.096C188.202 282.296 191.82 280.688 194.483 279.532L194.672 279.45L194.752 279.633C195.395 281.113 195.886 282.309 196.212 283.115C196.537 283.921 196.7 284.349 196.664 284.335Z" fill="#263238"/>
<path d="M181.206 288.757C182.274 291.112 185.049 292.155 187.405 291.086L183.537 282.558C181.181 283.626 180.137 286.402 181.206 288.757Z" fill="#E0E0E0"/>
<path d="M181.206 288.757C181.182 288.767 181.078 288.606 180.934 288.277C180.804 287.944 180.65 287.431 180.636 286.757C180.624 286.091 180.751 285.256 181.199 284.433C181.626 283.605 182.398 282.814 183.429 282.323L183.661 282.212L183.771 282.451C184.38 283.777 185.036 285.206 185.725 286.706C186.4 288.213 187.043 289.649 187.639 290.98L187.747 291.219L187.511 291.322C186.462 291.774 185.358 291.834 184.454 291.609C183.54 291.405 182.829 290.949 182.334 290.502C181.836 290.048 181.551 289.594 181.387 289.276C181.235 288.952 181.182 288.767 181.206 288.757C181.281 288.71 181.555 289.465 182.537 290.264C183.028 290.649 183.703 291.033 184.544 291.187C185.375 291.36 186.365 291.274 187.297 290.853L187.169 291.194C186.56 289.868 185.904 288.439 185.214 286.938C184.539 285.432 183.896 283.996 183.3 282.665L183.642 282.793C182.71 283.216 181.995 283.904 181.576 284.644C181.137 285.378 180.981 286.14 180.948 286.763C180.904 288.028 181.29 288.731 181.206 288.757Z" fill="#263238"/>
<path d="M182.852 286.645C181.929 287.264 181.424 288.45 181.618 289.543L182.852 286.645Z" fill="#E0E0E0"/>
<path d="M181.618 289.543C181.477 289.601 181.148 288.76 181.559 287.805C181.962 286.848 182.797 286.502 182.852 286.644C182.937 286.781 182.392 287.248 182.074 288.025C181.734 288.793 181.775 289.51 181.618 289.543Z" fill="#263238"/>
<path d="M188.072 288.48C187.919 288.524 187.477 287.422 186.847 286.116C186.224 284.805 185.643 283.77 185.775 283.679C185.895 283.591 186.706 284.516 187.353 285.874C188.004 287.23 188.216 288.441 188.072 288.48Z" fill="#263238"/>
<path d="M189.272 287.935C189.118 287.98 188.676 286.878 188.046 285.572C187.423 284.261 186.842 283.226 186.973 283.134C187.094 283.046 187.905 283.971 188.552 285.329C189.204 286.685 189.416 287.897 189.272 287.935Z" fill="#263238"/>
<path d="M190.471 287.391C190.318 287.435 189.875 286.333 189.246 285.027C188.623 283.716 188.042 282.681 188.173 282.59C188.294 282.502 189.105 283.427 189.752 284.785C190.404 286.141 190.617 287.352 190.471 287.391Z" fill="#263238"/>
<path d="M191.671 286.847C191.517 286.891 191.075 285.789 190.446 284.483C189.823 283.172 189.241 282.137 189.373 282.045C189.493 281.957 190.305 282.883 190.951 284.241C191.603 285.596 191.816 286.809 191.671 286.847Z" fill="#263238"/>
<path d="M192.871 286.303C192.717 286.347 192.276 285.246 191.645 283.939C191.022 282.629 190.441 281.594 190.573 281.502C190.693 281.414 191.504 282.339 192.151 283.697C192.804 285.052 193.016 286.265 192.871 286.303Z" fill="#263238"/>
<path d="M194.071 285.759C193.917 285.803 193.476 284.701 192.846 283.395C192.223 282.084 191.642 281.049 191.773 280.958C191.894 280.869 192.705 281.795 193.352 283.153C194.004 284.509 194.216 285.72 194.071 285.759Z" fill="#263238"/>
<path d="M195.271 285.214C195.118 285.259 194.676 284.157 194.046 282.85C193.423 281.54 192.842 280.505 192.973 280.413C193.094 280.325 193.905 281.25 194.552 282.608C195.204 283.964 195.416 285.176 195.271 285.214Z" fill="#263238"/>
<path d="M216.84 153.201C216.84 153.201 229.87 166.076 233.113 174.108C236.2 181.755 238.246 188.878 238.246 188.878C238.246 188.878 241.604 183.002 245.381 188.878C249.159 194.754 267.01 266.103 269.949 292.966H281.323C281.323 292.966 276.021 248.06 273.503 243.023C270.985 237.986 268.886 236.308 268.886 236.308C268.886 236.308 265.948 217.42 263.849 214.482C261.751 211.545 259.232 210.285 259.232 210.285C259.232 210.285 255.454 189.718 249.998 185.521C244.541 181.323 240.344 183.423 240.344 183.423C240.344 183.423 236.871 161.433 216.84 153.201Z" fill="#E8505B"/>
<path d="M323.519 248.512C323.554 248.688 319.971 249.228 315.963 251.069C311.938 252.876 309.176 255.219 309.066 255.077C309.021 255.025 309.653 254.373 310.816 253.481C311.975 252.589 313.691 251.488 315.731 250.559C317.772 249.634 319.73 249.066 321.164 248.78C322.602 248.49 323.509 248.444 323.519 248.512Z" fill="#455A64"/>
<path d="M323.075 246.257C323.127 246.428 319.491 247.386 315.488 249.626C311.464 251.835 308.725 254.409 308.608 254.275C308.56 254.225 309.183 253.517 310.333 252.521C311.482 251.525 313.181 250.266 315.216 249.136C317.253 248.01 319.22 247.236 320.674 246.791C322.129 246.344 323.058 246.19 323.075 246.257Z" fill="#455A64"/>
<path d="M320.878 251.751C320.881 251.922 318.502 251.959 315.723 252.761C312.935 253.539 310.892 254.756 310.805 254.609C310.718 254.501 312.688 253.028 315.57 252.222C318.445 251.396 320.897 251.613 320.878 251.751Z" fill="#455A64"/>
<path d="M295.767 292.85C293.871 277.777 298.814 260.127 310.864 251.661L313.734 254C313.734 254 298.761 262.907 299.856 292.966" fill="#263238"/>
<path d="M233.929 271.154C233.973 271.326 231.126 271.875 228.155 273.727C225.162 275.544 223.388 277.837 223.254 277.72C223.132 277.664 224.761 275.137 227.861 273.25C230.943 271.334 233.934 271.02 233.929 271.154Z" fill="#455A64"/>
<path d="M233.635 269.815C233.68 269.968 231.017 270.869 227.776 272.082C224.532 273.289 221.93 274.352 221.864 274.207C221.8 274.071 224.314 272.773 227.58 271.557C230.844 270.335 233.594 269.672 233.635 269.815Z" fill="#455A64"/>
<path d="M266.786 296.567L261.58 295.209C262.373 292.165 261.851 288.754 260.182 286.087C259.508 285.008 258.64 284.045 257.644 283.24C257.109 286.646 254.959 289.647 251.931 290.904C249.7 291.828 247.026 291.663 244.78 290.46C242.713 289.353 241.288 287.499 240.87 285.372C240.23 282.121 241.945 278.571 245.041 276.74C246.207 276.05 247.542 275.599 248.98 275.397C248.853 275.291 248.724 275.189 248.59 275.087C244.055 271.622 237.079 271.433 232.363 274.649L229.332 270.204C235.985 265.667 245.458 265.922 251.858 270.812C253.919 272.387 255.521 274.331 256.537 276.429C259.887 277.771 262.838 280.187 264.743 283.233C267.183 287.133 267.947 292.117 266.786 296.567ZM250.753 280.651C249.607 280.651 248.586 280.894 247.78 281.371C246.668 282.028 245.951 283.33 246.149 284.334C246.299 285.096 247.018 285.555 247.321 285.717C248.136 286.154 249.138 286.24 249.871 285.934C251.5 285.258 252.594 283.094 252.362 281.007C252.354 280.936 252.345 280.865 252.335 280.794C251.788 280.698 251.259 280.651 250.753 280.651Z" fill="#263238"/>
<path d="M223.099 196.647C223.118 196.613 223.63 196.886 224.542 197.41C225.459 197.925 226.743 198.744 228.286 199.817C229.835 200.885 231.608 202.26 233.497 203.879C235.37 205.518 237.348 207.414 239.283 209.539C241.204 211.677 242.893 213.837 244.337 215.864C245.759 217.906 246.95 219.807 247.858 221.456C248.772 223.099 249.458 224.459 249.878 225.422C250.309 226.381 250.529 226.918 250.494 226.935C250.458 226.951 250.171 226.445 249.683 225.519C249.204 224.588 248.468 223.262 247.514 221.654C246.569 220.041 245.352 218.175 243.916 216.163C242.459 214.168 240.772 212.037 238.867 209.915C236.947 207.807 234.995 205.916 233.156 204.268C231.299 202.64 229.564 201.242 228.054 200.139C226.55 199.03 225.304 198.165 224.426 197.596C223.553 197.017 223.078 196.68 223.099 196.647Z" fill="#E8505B"/>
<path d="M205.811 370.889H204.896C199.569 370.889 195.251 366.571 195.251 361.243V326.182C195.251 320.855 199.569 316.537 204.896 316.537H205.811V370.889Z" fill="#263238"/>
<path d="M362.4 370.889H361.394V316.538H362.4C367.676 316.538 371.953 320.815 371.953 326.09V361.336C371.954 366.612 367.677 370.889 362.4 370.889Z" fill="#263238"/>
<path d="M348.584 424.274H218.22C209.83 424.274 203.028 417.473 203.028 409.082V321.116C203.028 312.725 209.83 305.924 218.22 305.924H348.583C356.974 305.924 363.775 312.725 363.775 321.116V409.082C363.776 417.473 356.974 424.274 348.584 424.274Z" fill="#E8505B"/>
<path d="M303.856 318.501C283.511 318.501 267.017 334.994 267.017 355.34H340.694C340.694 334.994 324.201 318.501 303.856 318.501Z" fill="white"/>
<path d="M333.529 353.547C335.076 353.531 336.478 353.533 337.492 353.552C338.506 353.572 339.134 353.609 339.134 353.654C339.134 353.701 338.507 353.744 337.493 353.774C336.479 353.804 335.078 353.82 333.53 353.82C331.983 353.807 330.583 353.794 329.568 353.786C329.061 353.772 328.651 353.76 328.367 353.752C328.083 353.74 327.927 353.726 327.926 353.711C327.926 353.696 328.083 353.681 328.366 353.666C328.65 353.655 329.06 353.639 329.567 353.621C330.582 353.603 331.983 353.576 333.529 353.547Z" fill="#E0E0E0"/>
<path d="M330.955 342.419C333.749 341.086 336.078 340.144 336.156 340.315C336.235 340.486 334.01 341.651 331.184 342.916C328.361 344.18 326.032 345.123 325.984 345.019C325.937 344.915 328.163 343.75 330.955 342.419Z" fill="#E0E0E0"/>
<path d="M324.046 333.311C326.089 330.985 327.856 329.2 327.994 329.323C328.132 329.447 326.547 331.395 324.454 333.676C322.362 335.955 320.594 337.74 320.507 337.663C320.419 337.583 322.004 335.635 324.046 333.311Z" fill="#E0E0E0"/>
<path d="M314.191 327.493C315.241 324.581 316.232 322.272 316.403 322.336C316.574 322.4 315.814 324.794 314.704 327.684C313.595 330.572 312.604 332.88 312.492 332.839C312.38 332.797 313.141 330.402 314.191 327.493Z" fill="#E0E0E0"/>
<path d="M302.902 325.576C302.871 322.481 302.994 319.971 303.176 319.97C303.358 319.971 303.48 322.481 303.449 325.576C303.419 328.67 303.296 331.178 303.175 331.178C303.053 331.178 302.931 328.669 302.902 325.576Z" fill="#E0E0E0"/>
<path d="M291.645 327.683C290.536 324.793 289.775 322.399 289.947 322.335C290.118 322.272 291.109 324.58 292.159 327.491C293.208 330.402 293.969 332.796 293.857 332.838C293.745 332.879 292.754 330.571 291.645 327.683Z" fill="#E0E0E0"/>
<path d="M281.892 333.678C279.799 331.397 278.214 329.449 278.352 329.325C278.489 329.201 280.257 330.985 282.3 333.312C284.342 335.636 285.928 337.585 285.839 337.664C285.751 337.742 283.983 335.957 281.892 333.678Z" fill="#E0E0E0"/>
<path d="M275.16 342.918C272.335 341.653 270.109 340.489 270.188 340.317C270.266 340.146 272.596 341.088 275.39 342.42C278.183 343.751 280.409 344.916 280.361 345.02C280.313 345.124 277.984 344.182 275.16 342.918Z" fill="#E0E0E0"/>
<path d="M272.817 353.82C271.268 353.82 269.867 353.804 268.854 353.774C267.84 353.744 267.213 353.701 267.213 353.654C267.213 353.608 267.84 353.572 268.855 353.552C269.869 353.533 271.27 353.531 272.818 353.547C274.364 353.576 275.765 353.602 276.778 353.621C277.285 353.64 277.695 353.655 277.979 353.666C278.263 353.681 278.419 353.696 278.419 353.711C278.419 353.726 278.262 353.739 277.979 353.752C277.695 353.76 277.285 353.772 276.778 353.786C275.764 353.794 274.363 353.807 272.817 353.82Z" fill="#E0E0E0"/>
<path d="M242.429 324.955C242.429 327.656 240.24 329.845 237.54 329.845C234.839 329.845 232.651 327.655 232.651 324.955C232.651 322.254 234.84 320.066 237.54 320.066C240.241 320.066 242.429 322.256 242.429 324.955Z" fill="white"/>
<path d="M242.429 339.696C242.429 342.397 240.24 344.586 237.54 344.586C234.839 344.586 232.651 342.396 232.651 339.696C232.651 336.996 234.84 334.807 237.54 334.807C240.241 334.807 242.429 336.997 242.429 339.696Z" fill="#455A64"/>
<path d="M335.1 414.067C335.1 414.067 335.085 413.75 335.078 413.153C335.073 412.54 335.065 411.659 335.056 410.512C335.044 408.185 335.026 404.786 335.003 400.418C334.976 391.676 334.938 379.064 334.891 363.518L335.1 363.727C308.768 363.745 273.504 363.771 234.845 363.798H234.837L235.117 363.518C235.111 381.343 235.106 398.445 235.101 414.068L234.837 413.805C264.068 413.857 289.098 413.901 306.838 413.932C315.711 413.963 322.759 413.988 327.61 414.004C330.021 414.018 331.883 414.029 333.162 414.036C333.784 414.043 334.26 414.048 334.601 414.052C334.927 414.057 335.1 414.067 335.1 414.067C335.1 414.067 334.947 414.078 334.633 414.084C334.299 414.088 333.833 414.092 333.224 414.1C331.958 414.107 330.115 414.118 327.726 414.132C322.889 414.149 315.863 414.173 307.014 414.204C289.23 414.235 264.139 414.279 234.837 414.331H234.573V414.066C234.568 398.443 234.563 381.341 234.557 363.516V363.236H234.838H234.846C273.505 363.264 308.769 363.289 335.101 363.307H335.311L335.31 363.516C335.262 379.116 335.225 391.771 335.198 400.544C335.175 404.892 335.158 408.275 335.145 410.592C335.135 411.723 335.128 412.59 335.122 413.195C335.115 413.779 335.1 414.067 335.1 414.067Z" fill="#263238"/>
<path d="M340.483 431.386H226.322C222.619 431.386 219.617 428.384 219.617 424.681V424.045H347.189V424.681C347.189 428.384 344.187 431.386 340.483 431.386Z" fill="#263238"/>
<g opacity="0.3">
<path d="M324.377 370.611C324.181 371.984 325.138 373.408 326.464 373.814C327.789 374.221 329.336 373.625 330.11 372.475C330.885 371.324 330.878 369.721 330.16 368.534C330.182 369.44 329.911 370.37 329.317 371.055C328.723 371.74 327.788 372.146 326.892 372.009C325.996 371.871 325.194 371.143 325.067 370.244" fill="black"/>
</g>
<path d="M330.129 369.413C330.129 371.055 328.798 372.386 327.156 372.386C325.514 372.386 324.183 371.055 324.183 369.413C324.183 367.771 325.514 366.44 327.156 366.44C328.798 366.44 330.129 367.771 330.129 369.413Z" fill="#E0E0E0"/>
<path d="M330.129 369.413C330.081 369.414 330.068 369.149 329.93 368.714C329.793 368.287 329.482 367.671 328.834 367.208C328.208 366.742 327.197 366.494 326.23 366.863C325.272 367.203 324.452 368.224 324.462 369.412C324.452 370.6 325.272 371.621 326.23 371.962C327.197 372.333 328.207 372.084 328.834 371.618C329.482 371.154 329.793 370.539 329.93 370.112C330.068 369.678 330.081 369.412 330.129 369.413C330.158 369.411 330.222 369.68 330.142 370.166C330.061 370.641 329.782 371.36 329.075 371.933C328.393 372.508 327.219 372.859 326.055 372.448C324.901 372.074 323.888 370.851 323.902 369.412C323.888 367.975 324.901 366.75 326.055 366.378C327.218 365.967 328.392 366.318 329.074 366.892C329.781 367.467 330.061 368.186 330.142 368.66C330.222 369.148 330.158 369.416 330.129 369.413Z" fill="#263238"/>
<path d="M328.526 368.142C328.581 368.294 327.874 368.66 327.225 369.345C326.562 370.017 326.22 370.736 326.066 370.686C325.92 370.658 326.056 369.74 326.821 368.955C327.581 368.164 328.493 367.996 328.526 368.142Z" fill="#263238"/>
<path d="M328.526 370.34C328.392 370.428 327.896 369.885 327.165 369.398C326.442 368.901 325.753 368.644 325.785 368.487C325.803 368.34 326.648 368.369 327.48 368.935C328.315 369.495 328.657 370.268 328.526 370.34Z" fill="#263238"/>
<g opacity="0.3">
<path d="M325.773 407.402C325.576 408.775 326.534 410.198 327.859 410.605C329.185 411.012 330.731 410.415 331.506 409.265C332.281 408.115 332.273 406.512 331.555 405.325C331.577 406.231 331.307 407.162 330.713 407.846C330.119 408.53 329.184 408.937 328.288 408.799C327.391 408.662 326.59 407.933 326.463 407.035" fill="black"/>
</g>
<path d="M328.551 409.177C330.193 409.177 331.524 407.846 331.524 406.204C331.524 404.562 330.193 403.231 328.551 403.231C326.909 403.231 325.578 404.562 325.578 406.204C325.578 407.846 326.909 409.177 328.551 409.177Z" fill="#E0E0E0"/>
<path d="M331.524 406.204C331.477 406.205 331.464 405.939 331.325 405.505C331.189 405.077 330.878 404.462 330.23 403.998C329.602 403.532 328.592 403.285 327.626 403.654C326.667 403.994 325.847 405.015 325.858 406.203C325.847 407.391 326.667 408.413 327.626 408.753C328.592 409.123 329.602 408.875 330.23 408.409C330.878 407.945 331.189 407.329 331.325 406.902C331.465 406.469 331.477 406.203 331.524 406.204C331.553 406.202 331.618 406.47 331.537 406.956C331.456 407.432 331.177 408.15 330.47 408.724C329.788 409.299 328.614 409.649 327.449 409.238C326.297 408.865 325.282 407.641 325.296 406.203C325.282 404.765 326.296 403.541 327.449 403.169C328.613 402.757 329.788 403.108 330.47 403.683C331.177 404.257 331.456 404.976 331.537 405.451C331.619 405.938 331.553 406.206 331.524 406.204Z" fill="#263238"/>
<path d="M329.922 404.932C329.977 405.084 329.27 405.451 328.62 406.135C327.957 406.807 327.616 407.526 327.462 407.477C327.316 407.448 327.453 406.531 328.218 405.745C328.976 404.955 329.889 404.787 329.922 404.932Z" fill="#263238"/>
<path d="M329.922 407.131C329.788 407.22 329.292 406.676 328.561 406.19C327.838 405.693 327.148 405.436 327.18 405.279C327.199 405.131 328.042 405.159 328.875 405.726C329.711 406.286 330.052 407.058 329.922 407.131Z" fill="#263238"/>
<g opacity="0.3">
<path d="M239.283 370.567C239.086 371.94 240.044 373.363 241.369 373.77C242.695 374.177 244.241 373.582 245.016 372.431C245.791 371.28 245.783 369.677 245.065 368.489C245.087 369.395 244.817 370.326 244.223 371.01C243.629 371.695 242.694 372.101 241.798 371.964C240.901 371.826 240.1 371.097 239.973 370.199" fill="black"/>
</g>
<path d="M242.062 372.342C243.704 372.342 245.035 371.011 245.035 369.369C245.035 367.727 243.704 366.396 242.062 366.396C240.42 366.396 239.089 367.727 239.089 369.369C239.089 371.011 240.42 372.342 242.062 372.342Z" fill="#E0E0E0"/>
<path d="M245.035 369.369C244.988 369.37 244.975 369.105 244.836 368.67C244.7 368.243 244.389 367.627 243.741 367.164C243.115 366.698 242.103 366.45 241.137 366.819C240.178 367.159 239.358 368.18 239.369 369.368C239.358 370.556 240.178 371.578 241.137 371.918C242.103 372.287 243.114 372.04 243.741 371.574C244.389 371.11 244.7 370.495 244.836 370.068C244.975 369.634 244.988 369.368 245.035 369.369C245.064 369.367 245.129 369.635 245.048 370.121C244.968 370.597 244.688 371.316 243.981 371.889C243.299 372.464 242.125 372.815 240.961 372.404C239.808 372.03 238.793 370.807 238.807 369.368C238.793 367.931 239.807 366.706 240.961 366.334C242.124 365.923 243.299 366.274 243.981 366.848C244.688 367.423 244.968 368.142 245.048 368.616C245.129 369.104 245.064 369.371 245.035 369.369Z" fill="#263238"/>
<path d="M243.433 368.096C243.488 368.248 242.781 368.614 242.131 369.299C241.468 369.972 241.126 370.691 240.972 370.641C240.826 370.613 240.963 369.695 241.728 368.91C242.487 368.119 243.4 367.952 243.433 368.096Z" fill="#263238"/>
<path d="M243.433 370.296C243.299 370.384 242.803 369.841 242.072 369.354C241.349 368.857 240.659 368.6 240.692 368.443C240.71 368.296 241.553 368.323 242.386 368.891C243.221 369.451 243.563 370.224 243.433 370.296Z" fill="#263238"/>
<g opacity="0.3">
<path d="M238.653 407.037C238.456 408.41 239.413 409.833 240.739 410.24C242.065 410.647 243.611 410.052 244.385 408.901C245.16 407.75 245.153 406.147 244.435 404.96C244.456 405.866 244.186 406.797 243.592 407.481C242.998 408.166 242.063 408.572 241.167 408.435C240.271 408.297 239.469 407.568 239.342 406.67" fill="black"/>
</g>
<path d="M241.431 408.813C243.073 408.813 244.404 407.482 244.404 405.84C244.404 404.198 243.073 402.867 241.431 402.867C239.789 402.867 238.458 404.198 238.458 405.84C238.458 407.482 239.789 408.813 241.431 408.813Z" fill="#E0E0E0"/>
<path d="M244.404 405.84C244.356 405.841 244.343 405.576 244.205 405.141C244.068 404.714 243.757 404.098 243.109 403.635C242.483 403.169 241.472 402.921 240.505 403.29C239.547 403.63 238.727 404.651 238.738 405.839C238.727 407.027 239.547 408.049 240.505 408.389C241.472 408.759 242.482 408.511 243.109 408.045C243.757 407.581 244.068 406.966 244.205 406.539C244.345 406.104 244.356 405.838 244.404 405.84C244.433 405.838 244.497 406.106 244.417 406.593C244.336 407.068 244.057 407.787 243.35 408.36C242.668 408.935 241.494 409.286 240.33 408.875C239.178 408.501 238.163 407.278 238.178 405.839C238.164 404.402 239.178 403.177 240.33 402.805C241.493 402.394 242.668 402.745 243.35 403.319C244.057 403.894 244.337 404.613 244.418 405.087C244.498 405.574 244.433 405.841 244.404 405.84Z" fill="#263238"/>
<path d="M242.802 404.567C242.856 404.719 242.15 405.086 241.5 405.77C240.837 406.444 240.495 407.162 240.342 407.112C240.195 407.084 240.332 406.166 241.097 405.381C241.856 404.59 242.768 404.422 242.802 404.567Z" fill="#263238"/>
<path d="M242.802 406.767C242.667 406.855 242.171 406.312 241.44 405.825C240.717 405.328 240.028 405.071 240.06 404.914C240.078 404.766 240.922 404.794 241.755 405.361C242.591 405.922 242.932 406.695 242.802 406.767Z" fill="#263238"/>
<g opacity="0.3">
<path d="M234.837 414.341C246.481 416.871 260.077 416.966 272.658 416.355C278.707 416.061 285.348 415.682 290.183 419.326C291.245 420.127 292.486 421.166 293.733 420.703C295.548 420.03 295.613 416.717 297.548 416.651C298.517 416.618 299.253 417.542 299.567 418.458C299.881 419.374 299.955 420.384 300.451 421.215C300.948 422.047 302.121 422.612 302.891 422.023C304.117 421.083 302.704 419.074 303.167 417.601C303.648 416.072 305.819 415.949 307.302 416.556C308.785 417.162 310.234 418.208 311.819 417.973C312.957 417.806 313.879 417.007 314.86 416.409C317.691 414.684 321.185 414.579 324.499 414.522C327.997 414.461 331.603 414.129 335.1 414.069L234.837 414.341Z" fill="black"/>
</g>
<path d="M315.018 376.377C315.022 376.397 314.832 376.462 314.471 376.571C314.108 376.676 313.57 376.813 312.91 377.092C311.574 377.593 309.742 378.572 307.663 380.068C305.564 381.532 303.246 383.552 300.312 385.343C298.839 386.216 297.178 387.002 295.332 387.412C293.485 387.871 291.524 387.784 289.584 387.842C285.662 387.799 282.222 389.444 279.251 391.029C276.255 392.63 273.567 394.087 271.446 395.519C269.314 396.936 267.76 398.317 266.769 399.347C265.778 400.379 265.306 401.021 265.263 400.989C265.248 400.977 265.355 400.809 265.572 400.498C265.785 400.183 266.134 399.744 266.609 399.198C267.561 398.113 269.097 396.665 271.222 395.192C273.337 393.703 276.021 392.202 279.007 390.574C280.505 389.765 282.108 388.94 283.874 388.306C285.626 387.652 287.592 387.3 289.568 387.281C291.536 387.224 293.451 387.311 295.214 386.876C296.985 386.491 298.598 385.743 300.049 384.898C302.941 383.169 305.291 381.179 307.436 379.743C309.561 378.275 311.457 377.332 312.835 376.887C313.516 376.637 314.069 376.532 314.444 376.461C314.818 376.387 315.014 376.358 315.018 376.377Z" fill="#263238"/>
<path d="M289.513 384.897C289.501 384.965 288.298 384.835 286.389 384.417C284.482 384.002 281.875 383.263 279.105 382.153C276.335 381.038 273.941 379.77 272.276 378.751C270.61 377.733 269.651 376.996 269.689 376.938C269.736 376.866 270.769 377.483 272.473 378.407C274.177 379.331 276.573 380.53 279.313 381.632C282.055 382.731 284.614 383.521 286.484 384.032C288.355 384.544 289.529 384.813 289.513 384.897Z" fill="#263238"/>
<path d="M305.696 349.771C306.516 349.335 330.695 341.557 330.695 341.557L307.585 354.513L305.696 349.771Z" fill="#E8505B"/>
<path d="M303.174 347.166C298.659 347.166 294.999 350.826 294.999 355.34H311.348C311.348 350.826 307.688 347.166 303.174 347.166Z" fill="#263238"/>
<path d="M220.953 424.045C220.798 424.045 220.674 397.766 220.674 365.356C220.674 332.935 220.8 306.661 220.953 306.661C221.108 306.661 221.233 332.935 221.233 365.356C221.233 397.766 221.108 424.045 220.953 424.045Z" fill="#263238"/>
<path d="M348.835 424.045C348.68 424.045 348.555 397.766 348.555 365.356C348.555 332.935 348.68 306.661 348.835 306.661C348.99 306.661 349.115 332.935 349.115 365.356C349.115 397.766 348.989 424.045 348.835 424.045Z" fill="#263238"/>
<path d="M215.585 322.575C216.278 322.575 216.84 322.013 216.84 321.321C216.84 320.628 216.278 320.066 215.585 320.066C214.892 320.066 214.331 320.628 214.331 321.321C214.331 322.013 214.892 322.575 215.585 322.575Z" fill="#263238"/>
<path d="M215.585 346.127C216.278 346.127 216.84 345.565 216.84 344.872C216.84 344.179 216.278 343.617 215.585 343.617C214.892 343.617 214.331 344.179 214.331 344.872C214.331 345.565 214.892 346.127 215.585 346.127Z" fill="#263238"/>
<path d="M215.585 369.677C216.278 369.677 216.84 369.115 216.84 368.422C216.84 367.73 216.278 367.168 215.585 367.168C214.892 367.168 214.331 367.73 214.331 368.422C214.331 369.115 214.892 369.677 215.585 369.677Z" fill="#263238"/>
<path d="M215.585 393.227C216.278 393.227 216.84 392.666 216.84 391.973C216.84 391.28 216.278 390.718 215.585 390.718C214.892 390.718 214.331 391.28 214.331 391.973C214.331 392.666 214.892 393.227 215.585 393.227Z" fill="#263238"/>
<path d="M215.585 416.778C216.278 416.778 216.84 416.216 216.84 415.523C216.84 414.83 216.278 414.269 215.585 414.269C214.892 414.269 214.331 414.83 214.331 415.523C214.331 416.216 214.892 416.778 215.585 416.778Z" fill="#263238"/>
<path d="M355.409 322.575C356.102 322.575 356.664 322.013 356.664 321.321C356.664 320.628 356.102 320.066 355.409 320.066C354.716 320.066 354.155 320.628 354.155 321.321C354.155 322.013 354.716 322.575 355.409 322.575Z" fill="#263238"/>
<path d="M355.409 346.127C356.102 346.127 356.664 345.565 356.664 344.872C356.664 344.179 356.102 343.617 355.409 343.617C354.716 343.617 354.155 344.179 354.155 344.872C354.155 345.565 354.716 346.127 355.409 346.127Z" fill="#263238"/>
<path d="M355.409 369.677C356.102 369.677 356.664 369.115 356.664 368.422C356.664 367.73 356.102 367.168 355.409 367.168C354.716 367.168 354.155 367.73 354.155 368.422C354.155 369.115 354.716 369.677 355.409 369.677Z" fill="#263238"/>
<path d="M355.409 393.227C356.102 393.227 356.664 392.666 356.664 391.973C356.664 391.28 356.102 390.718 355.409 390.718C354.716 390.718 354.155 391.28 354.155 391.973C354.155 392.666 354.716 393.227 355.409 393.227Z" fill="#263238"/>
<path d="M355.409 416.778C356.102 416.778 356.664 416.216 356.664 415.523C356.664 414.83 356.102 414.269 355.409 414.269C354.716 414.269 354.155 414.83 354.155 415.523C354.155 416.216 354.716 416.778 355.409 416.778Z" fill="#263238"/>
<path d="M307.093 292.965H252.109V305.924H307.093V292.965Z" fill="#455A64"/>
<path d="M256.075 305.924C255.92 305.924 255.795 303.124 255.795 299.671C255.795 296.217 255.921 293.418 256.075 293.418C256.23 293.418 256.355 296.217 256.355 299.671C256.355 303.124 256.229 305.924 256.075 305.924Z" fill="#263238"/>
<path d="M261.72 305.924C261.565 305.924 261.44 303.124 261.44 299.671C261.44 296.217 261.566 293.418 261.72 293.418C261.875 293.418 262 296.217 262 299.671C262 303.124 261.875 305.924 261.72 305.924Z" fill="#263238"/>
<path d="M267.366 305.924C267.211 305.924 267.086 303.124 267.086 299.671C267.086 296.217 267.212 293.418 267.366 293.418C267.521 293.418 267.645 296.217 267.645 299.671C267.645 303.124 267.519 305.924 267.366 305.924Z" fill="#263238"/>
<path d="M273.01 305.924C272.855 305.924 272.73 303.124 272.73 299.671C272.73 296.217 272.856 293.418 273.01 293.418C273.165 293.418 273.29 296.217 273.29 299.671C273.291 303.124 273.165 305.924 273.01 305.924Z" fill="#263238"/>
<path d="M278.656 305.924C278.501 305.924 278.376 303.124 278.376 299.671C278.376 296.217 278.502 293.418 278.656 293.418C278.81 293.418 278.936 296.217 278.936 299.671C278.936 303.124 278.811 305.924 278.656 305.924Z" fill="#263238"/>
<path d="M284.301 305.924C284.146 305.924 284.021 303.124 284.021 299.671C284.021 296.217 284.147 293.418 284.301 293.418C284.455 293.418 284.581 296.217 284.581 299.671C284.582 303.124 284.456 305.924 284.301 305.924Z" fill="#263238"/>
<path d="M289.947 305.924C289.792 305.924 289.667 303.124 289.667 299.671C289.667 296.217 289.792 293.418 289.947 293.418C290.101 293.418 290.226 296.217 290.226 299.671C290.226 303.124 290.101 305.924 289.947 305.924Z" fill="#263238"/>
<path d="M295.592 305.924C295.437 305.924 295.313 303.124 295.313 299.671C295.313 296.217 295.438 293.418 295.592 293.418C295.746 293.418 295.872 296.217 295.872 299.671C295.872 303.124 295.746 305.924 295.592 305.924Z" fill="#263238"/>
<path d="M301.237 305.924C301.082 305.924 300.957 303.124 300.957 299.671C300.957 296.217 301.083 293.418 301.237 293.418C301.391 293.418 301.517 296.217 301.517 299.671C301.517 303.124 301.392 305.924 301.237 305.924Z" fill="#263238"/>
<g opacity="0.3">
<path d="M371.954 334.01C373.284 340.75 374.52 347.092 375.849 353.832C374.533 353.991 371.954 353.82 371.954 353.82C371.923 347.366 371.984 340.464 371.954 334.01Z" fill="black"/>
</g>
<path d="M206.749 318.553C206.904 318.555 206.739 338.648 206.382 363.427C206.025 388.213 205.61 408.298 205.455 408.296C205.3 408.294 205.464 388.205 205.822 363.418C206.179 338.64 206.594 318.551 206.749 318.553Z" fill="white"/>
<path d="M230.142 411.064C229.987 411.064 229.863 401.059 229.863 388.718C229.863 376.373 229.989 366.369 230.142 366.369C230.297 366.369 230.422 376.373 230.422 388.718C230.422 401.057 230.297 411.064 230.142 411.064Z" fill="white"/>
<path d="M335.816 309.547C335.816 309.702 311.15 309.827 280.729 309.827C250.299 309.827 225.637 309.701 225.637 309.547C225.637 309.392 250.298 309.267 280.729 309.267C311.15 309.267 335.816 309.392 335.816 309.547Z" fill="white"/>
<path d="M497.778 511.27C497.778 511.425 395.342 511.55 269.011 511.55C142.636 511.55 40.222 511.424 40.222 511.27C40.222 511.116 142.636 510.99 269.011 510.99C395.343 510.989 497.778 511.115 497.778 511.27Z" fill="#263238"/>
</svg>
