<svg width="95" height="93" viewBox="0 0 95 93" fill="none" xmlns="http://www.w3.org/2000/svg">
<path d="M47.5 44.9275C40.9688 44.9275 35.625 42.8309 31.4688 38.6377C27.3125 34.4444 25.2344 29.0531 25.2344 22.4638C25.2344 15.8744 27.3125 10.4831 31.4688 6.28986C35.625 2.09662 40.9688 0 47.5 0C54.0312 0 59.375 2.09662 63.5312 6.28986C67.6875 10.4831 69.7656 15.8744 69.7656 22.4638C69.7656 29.0531 67.6875 34.4444 63.5312 38.6377C59.375 42.8309 54.0312 44.9275 47.5 44.9275ZM0 93V78.9227C0 75.1288 0.940104 71.8841 2.82031 69.1884C4.70052 66.4928 7.125 64.4461 10.0938 63.0483C16.724 60.0531 23.082 57.8068 29.168 56.3092C35.2539 54.8116 41.3646 54.0628 47.5 54.0628C53.6354 54.0628 59.7214 54.8366 65.7578 56.3841C71.7943 57.9316 78.1236 60.1625 84.7459 63.0768C87.8433 64.4875 90.3267 66.5327 92.196 69.2124C94.0653 71.892 95 75.1288 95 78.9227V93H0ZM8.90625 84.0145H86.0938V78.9227C86.0938 77.3253 85.6237 75.8027 84.6836 74.3551C83.7435 72.9074 82.5807 71.8341 81.1953 71.1353C74.862 68.0403 69.0729 65.9187 63.8281 64.7705C58.5833 63.6224 53.1406 63.0483 47.5 63.0483C41.8594 63.0483 36.3672 63.6224 31.0234 64.7705C25.6797 65.9187 19.8906 68.0403 13.6562 71.1353C12.2708 71.8341 11.1328 72.9074 10.2422 74.3551C9.35156 75.8027 8.90625 77.3253 8.90625 78.9227V84.0145ZM47.5 35.942C51.3594 35.942 54.5508 34.6691 57.0742 32.1232C59.5977 29.5773 60.8594 26.3575 60.8594 22.4638C60.8594 18.57 59.5977 15.3502 57.0742 12.8043C54.5508 10.2585 51.3594 8.98551 47.5 8.98551C43.6406 8.98551 40.4492 10.2585 37.9258 12.8043C35.4023 15.3502 34.1406 18.57 34.1406 22.4638C34.1406 26.3575 35.4023 29.5773 37.9258 32.1232C40.4492 34.6691 43.6406 35.942 47.5 35.942Z" fill="#352D24"/>
</svg>
