<svg width="107" height="83" viewBox="0 0 107 83" fill="none" xmlns="http://www.w3.org/2000/svg">
<path d="M80.7852 61.9814C84.4062 61.9815 87.8916 62.3565 91.2422 63.1055C94.5821 63.852 97.8827 65.1044 101.145 66.8662L101.161 66.875L101.178 66.8828C102.865 67.6418 104.167 68.8176 105.096 70.4199C106.025 72.0238 106.5 73.9386 106.5 76.1836V82.5H55.0703V76.1836C55.0703 73.9382 55.5446 72.0476 56.4707 70.4912C57.3425 69.0261 58.5477 67.8756 60.0967 67.0371L60.4111 66.874L60.416 66.8721C63.6816 65.1963 66.9874 63.963 70.334 63.1709C73.6827 62.3783 77.1662 61.9814 80.7852 61.9814ZM42.7666 48.75C45.6275 48.75 48.1594 48.8831 50.3643 49.1475C52.3136 49.3812 54.4031 49.7174 56.6328 50.1582L53.8818 52.9082L50.6465 56.1406C49.5379 55.9811 48.3547 55.8778 47.0967 55.8359C45.753 55.7912 44.3205 55.7686 42.7998 55.7686C37.7163 55.7686 32.7409 56.2843 27.875 57.3164C22.9936 58.3516 17.7291 60.2623 12.084 63.0381L12.0811 63.0391C10.7382 63.7101 9.64524 64.7609 8.7998 66.1689C7.9585 67.5701 7.52539 68.9951 7.52539 70.4365V75.4805H46.0449V82.5H0.5V70.4365C0.5 67.4949 1.23471 64.7989 2.70312 62.3389C4.16025 59.8979 6.33513 58.025 9.25391 56.7256C15.2344 54.0627 20.9501 52.0686 26.4004 50.7402C31.8463 49.4129 37.3015 48.75 42.7666 48.75ZM80.7852 28.835C84.1765 28.835 87.0241 29.9993 89.3584 32.332C91.6926 34.6647 92.8574 37.5099 92.8574 40.8984C92.8574 44.287 91.6926 47.1322 89.3584 49.4648C87.0241 51.7975 84.1765 52.9619 80.7852 52.9619C77.3938 52.9619 74.5463 51.7976 72.2119 49.4648C69.8776 47.1321 68.7129 44.2871 68.7129 40.8984C68.7129 37.5098 69.8776 34.6647 72.2119 32.332C74.5463 29.9993 77.3938 28.835 80.7852 28.835ZM42.7998 0.5C48.5684 0.5 53.2513 2.32912 56.8916 5.9668C60.5319 9.60447 62.3622 14.2838 62.3623 20.0479C62.3623 25.8121 60.5319 30.4921 56.8916 34.1299C53.2513 37.7675 48.5683 39.5967 42.7998 39.5967C37.0313 39.5966 32.3483 37.7676 28.708 34.1299C25.0677 30.4921 23.2373 25.8121 23.2373 20.0479C23.2374 14.2838 25.0678 9.60447 28.708 5.9668C32.3483 2.32904 37.0312 0.500041 42.7998 0.5ZM42.7998 7.51953C39.2018 7.51957 36.1949 8.70029 33.8193 11.0742C31.444 13.4481 30.2628 16.4524 30.2627 20.0479C30.2627 23.6435 31.4439 26.6485 33.8193 29.0225C36.1949 31.3964 39.2018 32.5771 42.7998 32.5771C46.3979 32.5771 49.4046 31.3964 51.7803 29.0225C54.1559 26.6485 55.3379 23.6436 55.3379 20.0479C55.3378 16.4523 54.1557 13.4481 51.7803 11.0742C49.4046 8.70025 46.3979 7.51953 42.7998 7.51953Z" fill="#352D24" stroke="black"/>
</svg>
