<svg width="39" height="45" viewBox="0 0 39 45" fill="none" xmlns="http://www.w3.org/2000/svg">
<path d="M36.5357 34.6694C37.642 34.321 38.2527 33.1522 37.9001 32.0593C37.5475 30.9664 36.3647 30.3626 35.2586 30.711L36.5357 34.6694ZM19.443 33.3613C18.2826 33.3923 17.3672 34.347 17.3986 35.4939C17.43 36.6405 18.3961 37.5451 19.5568 37.5141L19.443 33.3613ZM34.008 33.5795C34.5175 34.6104 35.7761 35.038 36.8196 34.5348C37.8629 34.0312 38.2956 32.7877 37.7863 31.7565L34.008 33.5795ZM34.1044 29.0398L32.1762 29.8674C32.1886 29.8956 32.2018 29.9236 32.2152 29.9513L34.1044 29.0398ZM31.3906 19.1577L33.4776 18.9076C33.474 18.8775 33.4695 18.8475 33.4645 18.8176L31.3906 19.1577ZM19.519 5.68346C18.358 5.68346 17.4168 6.61347 17.4168 7.76068C17.4168 8.9079 18.358 9.83791 19.519 9.83791V5.68346ZM19.519 9.83791C20.68 9.83791 21.6212 8.9079 21.6212 7.76068C21.6212 6.61347 20.68 5.68346 19.519 5.68346V9.83791ZM7.60926 19.1605L5.53556 18.8196C5.53049 18.8498 5.52609 18.8799 5.52239 18.9101L7.60926 19.1605ZM4.89554 29.0398L6.78461 29.9513C6.79823 29.9236 6.81126 29.8956 6.82365 29.8674L4.89554 29.0398ZM1.21371 31.7565C0.704302 32.7877 1.13713 34.0312 2.18044 34.5348C3.22375 35.038 4.48244 34.6104 4.99185 33.5795L1.21371 31.7565ZM17.4168 7.76068C17.4168 8.9079 18.358 9.83791 19.519 9.83791C20.68 9.83791 21.6212 8.9079 21.6212 7.76068H17.4168ZM21.6212 3.07723C21.6212 1.93002 20.68 1 19.519 1C18.358 1 17.4168 1.93002 17.4168 3.07723H21.6212ZM17.4168 7.76068C17.4168 8.9079 18.358 9.83791 19.519 9.83791C20.68 9.83791 21.6212 8.9079 21.6212 7.76068H17.4168ZM21.6212 3.07723C21.6212 1.93002 20.68 1 19.519 1C18.358 1 17.4168 1.93002 17.4168 3.07723H21.6212ZM3.74129 30.711C2.63513 30.3626 1.45252 30.9664 1.09988 32.0593C0.747242 33.1522 1.35809 34.321 2.46424 34.6694L3.74129 30.711ZM19.443 37.5141C20.6037 37.5451 21.5699 36.6405 21.6013 35.4939C21.6327 34.347 20.7173 33.3923 19.5568 33.3613L19.443 37.5141ZM16.1364 34.9918C16.1364 33.8446 15.1952 32.9145 14.0342 32.9145C12.8732 32.9145 11.932 33.8446 11.932 34.9918H16.1364ZM27.0816 34.9918C27.0816 33.8446 26.1404 32.9145 24.9794 32.9145C23.8184 32.9145 22.8772 33.8446 22.8772 34.9918H27.0816ZM35.2586 30.711C30.1312 32.3263 24.8096 33.2178 19.443 33.3613L19.5568 37.5141C25.3191 37.3604 31.0324 36.4029 36.5357 34.6694L35.2586 30.711ZM37.7863 31.7565L35.9936 28.1283L32.2152 29.9513L34.008 33.5795L37.7863 31.7565ZM36.0325 28.2122C34.7331 25.2565 33.872 22.121 33.4776 18.9076L29.3038 19.4078C29.7469 23.0178 30.7145 26.5424 32.1762 29.8674L36.0325 28.2122ZM33.4645 18.8176C32.8689 15.2723 31.6002 11.9816 29.2957 9.55533C26.935 7.07024 23.6676 5.68346 19.519 5.68346V9.83791C22.6373 9.83791 24.7496 10.8399 26.2301 12.3985C27.7664 14.0159 28.8004 16.4237 29.317 19.4979L33.4645 18.8176ZM19.519 5.68346C15.3701 5.68346 12.0956 7.06955 9.72668 9.55233C7.41241 11.9779 6.13337 15.2692 5.53556 18.8196L9.68296 19.5015C10.2002 16.4296 11.2413 14.021 12.7859 12.4022C14.2758 10.8406 16.3988 9.83791 19.519 9.83791V5.68346ZM5.52239 18.9101C5.12771 22.1226 4.2665 25.2573 2.9674 28.2122L6.82365 29.8674C8.28505 26.5435 9.25276 23.0197 9.69616 19.4109L5.52239 18.9101ZM3.00647 28.1283L1.21371 31.7565L4.99185 33.5795L6.78461 29.9513L3.00647 28.1283ZM21.6212 7.76068V3.07723H17.4168V7.76068H21.6212ZM21.6212 7.76068V3.07723H17.4168V7.76068H21.6212ZM2.46424 34.6694C7.96747 36.4029 13.6809 37.3604 19.443 37.5141L19.5568 33.3613C14.1905 33.2178 8.86876 32.3263 3.74129 30.711L2.46424 34.6694ZM11.932 34.9918V36.3766H16.1364V34.9918H11.932ZM11.932 36.3766C11.932 40.5371 15.2734 44 19.5067 44V39.8455C17.6951 39.8455 16.1364 38.3422 16.1364 36.3766H11.932ZM19.5067 44C23.74 44 27.0816 40.5371 27.0816 36.3766H22.8772C22.8772 38.3422 21.3182 39.8455 19.5067 39.8455V44ZM27.0816 36.3766V34.9918H22.8772V36.3766H27.0816Z" fill="#352D24"/>
<path d="M36.5357 34.6694C37.642 34.321 38.2527 33.1522 37.9001 32.0593C37.5475 30.9664 36.3647 30.3626 35.2586 30.711M36.5357 34.6694L35.2586 30.711M36.5357 34.6694C31.0324 36.4029 25.3191 37.3604 19.5568 37.5141M35.2586 30.711C30.1312 32.3263 24.8096 33.2178 19.443 33.3613M19.443 33.3613C18.2826 33.3923 17.3672 34.347 17.3986 35.4939C17.43 36.6405 18.3961 37.5451 19.5568 37.5141M19.443 33.3613L19.5568 37.5141M34.008 33.5795C34.5175 34.6104 35.7761 35.038 36.8196 34.5348C37.8628 34.0312 38.2956 32.7877 37.7863 31.7565M34.008 33.5795L37.7863 31.7565M34.008 33.5795L32.2152 29.9513M37.7863 31.7565L35.9936 28.1283L32.2152 29.9513M32.1762 29.8674L34.1044 29.0398L32.2152 29.9513M32.1762 29.8674C32.1886 29.8956 32.2018 29.9236 32.2152 29.9513M32.1762 29.8674C30.7145 26.5424 29.7469 23.0178 29.3038 19.4078L33.4776 18.9076M32.1762 29.8674L36.0325 28.2122C34.7331 25.2565 33.872 22.121 33.4776 18.9076M33.4776 18.9076L31.3906 19.1577L33.4645 18.8176M33.4776 18.9076C33.474 18.8775 33.4695 18.8475 33.4645 18.8176M33.4645 18.8176C32.8689 15.2723 31.6002 11.9816 29.2957 9.55533C26.935 7.07024 23.6676 5.68346 19.519 5.68346M33.4645 18.8176L29.317 19.4979C28.8004 16.4237 27.7664 14.0159 26.2301 12.3985C24.7496 10.8399 22.6373 9.83791 19.519 9.83791M19.519 5.68346C18.358 5.68346 17.4168 6.61347 17.4168 7.76068M19.519 5.68346V9.83791M19.519 5.68346C20.68 5.68346 21.6212 6.61347 21.6212 7.76068M19.519 5.68346C15.3701 5.68346 12.0956 7.06955 9.72668 9.55234C7.41241 11.9779 6.13337 15.2692 5.53556 18.8196M17.4168 7.76068C17.4168 8.9079 18.358 9.83791 19.519 9.83791M17.4168 7.76068H21.6212M17.4168 7.76068V3.07723M19.519 9.83791C20.68 9.83791 21.6212 8.9079 21.6212 7.76068M19.519 9.83791C16.3988 9.83791 14.2758 10.8406 12.7859 12.4022C11.2413 14.021 10.2002 16.4296 9.68296 19.5015L5.53556 18.8196M21.6212 7.76068V3.07723M5.53556 18.8196L7.60926 19.1605L5.52239 18.9101M5.53556 18.8196C5.53049 18.8498 5.52609 18.8799 5.52239 18.9101M5.52239 18.9101C5.12771 22.1226 4.2665 25.2573 2.9674 28.2122L6.82365 29.8674M5.52239 18.9101L9.69616 19.4109C9.25276 23.0197 8.28505 26.5435 6.82365 29.8674M6.78461 29.9513L4.89554 29.0398L6.82365 29.8674M6.78461 29.9513C6.79823 29.9236 6.81126 29.8956 6.82365 29.8674M6.78461 29.9513L4.99185 33.5795M6.78461 29.9513L3.00647 28.1283L1.21371 31.7565M1.21371 31.7565C0.704302 32.7877 1.13713 34.0312 2.18044 34.5348C3.22375 35.038 4.48244 34.6104 4.99185 33.5795M1.21371 31.7565L4.99185 33.5795M21.6212 3.07723C21.6212 1.93002 20.68 1 19.519 1C18.358 1 17.4168 1.93002 17.4168 3.07723M21.6212 3.07723H17.4168M3.74129 30.711C2.63513 30.3626 1.45252 30.9664 1.09988 32.0593C0.747242 33.1522 1.35809 34.321 2.46424 34.6694M3.74129 30.711L2.46424 34.6694M3.74129 30.711C8.86876 32.3263 14.1905 33.2178 19.5568 33.3613M2.46424 34.6694C7.96748 36.4029 13.6809 37.3604 19.443 37.5141M19.443 37.5141C20.6037 37.5451 21.5699 36.6405 21.6013 35.4939C21.6327 34.347 20.7173 33.3923 19.5568 33.3613M19.443 37.5141L19.5568 33.3613M16.1364 34.9918C16.1364 33.8446 15.1952 32.9145 14.0342 32.9145C12.8732 32.9145 11.932 33.8446 11.932 34.9918M16.1364 34.9918H11.932M16.1364 34.9918V36.3766M11.932 34.9918V36.3766M27.0816 34.9918C27.0816 33.8446 26.1404 32.9145 24.9794 32.9145C23.8184 32.9145 22.8772 33.8446 22.8772 34.9918M27.0816 34.9918H22.8772M27.0816 34.9918V36.3766M22.8772 34.9918V36.3766M11.932 36.3766H16.1364M11.932 36.3766C11.932 40.5371 15.2734 44 19.5067 44M16.1364 36.3766C16.1364 38.3422 17.6951 39.8455 19.5067 39.8455M19.5067 44V39.8455M19.5067 44C23.74 44 27.0816 40.5371 27.0816 36.3766M19.5067 39.8455C21.3182 39.8455 22.8772 38.3422 22.8772 36.3766M27.0816 36.3766H22.8772" stroke="#352D24"/>
</svg>
