<svg width="21" height="16" viewBox="0 0 21 16" fill="none" xmlns="http://www.w3.org/2000/svg">
<path d="M15.8555 12.3516C16.5386 12.3516 17.1935 12.4218 17.8213 12.5596C18.4387 12.6951 19.0526 12.9232 19.6631 13.2471L19.6787 13.2549L19.6953 13.2627C19.9506 13.3754 20.1414 13.5451 20.2803 13.7803C20.4198 14.0168 20.4999 14.3124 20.5 14.6855V15.5H11.21V14.6855C11.21 14.312 11.2904 14.0239 11.4268 13.7988C11.5672 13.567 11.7646 13.3857 12.0332 13.2539L12.0371 13.252C12.6513 12.9424 13.2706 12.7154 13.8945 12.5703C14.5205 12.4248 15.1742 12.3516 15.8555 12.3516ZM8.39355 9.80078C8.94346 9.80078 9.42433 9.82629 9.83789 9.875C9.97722 9.89141 10.1201 9.9136 10.2676 9.93555L9.79492 10.3994C9.62213 10.3808 9.44286 10.3664 9.25684 10.3604C8.98835 10.3516 8.7025 10.3467 8.40039 10.3467C7.376 10.3467 6.37202 10.4497 5.38965 10.6543C4.51716 10.836 3.59259 11.1495 2.61816 11.5908L2.19727 11.7881L2.19434 11.7891C1.85537 11.9555 1.58628 12.2144 1.38477 12.5439C1.18764 12.8664 1.0752 13.2136 1.0752 13.5781V14.9541H8.63477V15.5H0.5V13.5781C0.5 13.0839 0.624186 12.6371 0.873047 12.2275C1.11067 11.8365 1.46957 11.5264 1.97656 11.3047C3.13192 10.7994 4.23114 10.4236 5.27441 10.1738C6.31346 9.92509 7.35307 9.80078 8.39355 9.80078ZM15.8555 5.96191C16.4201 5.96202 16.8768 6.14849 17.2568 6.52148C17.6364 6.89408 17.8222 7.33789 17.8223 7.88379C17.8223 8.42989 17.6365 8.87438 17.2568 9.24707C16.8768 9.62002 16.42 9.80556 15.8555 9.80566C15.2907 9.80566 14.8332 9.62013 14.4531 9.24707C14.0734 8.87438 13.8877 8.42989 13.8877 7.88379C13.8878 7.33789 14.0736 6.89408 14.4531 6.52148C14.8332 6.14839 15.2907 5.96191 15.8555 5.96191ZM8.40039 0.5C9.44141 0.50008 10.255 0.820516 10.8848 1.43848C11.5137 2.05583 11.8378 2.85016 11.8379 3.86426C11.8379 4.87846 11.5137 5.67263 10.8848 6.29004C10.255 6.90815 9.44155 7.22941 8.40039 7.22949C7.35905 7.22949 6.54487 6.90823 5.91504 6.29004C5.28619 5.67264 4.96289 4.87841 4.96289 3.86426C4.96299 2.85016 5.28606 2.05583 5.91504 1.43848C6.54485 0.820375 7.35912 0.5 8.40039 0.5ZM8.40039 1.0459C7.6001 1.0459 6.90516 1.30717 6.35645 1.8457C5.80719 2.38481 5.53722 3.07097 5.53711 3.86426C5.53711 4.65774 5.80708 5.34457 6.35645 5.88379C6.90515 6.42231 7.6001 6.68359 8.40039 6.68359C9.20047 6.68351 9.89475 6.42216 10.4434 5.88379C10.9927 5.34457 11.2627 4.65774 11.2627 3.86426C11.2626 3.07097 10.9926 2.38481 10.4434 1.8457C9.89475 1.30733 9.20047 1.04598 8.40039 1.0459Z" fill="#FFFAEF" stroke="#FFFAEF"/>
</svg>
