<svg width="1544" height="1028" viewBox="0 0 1544 1028" fill="none" xmlns="http://www.w3.org/2000/svg">
<g filter="url(#filter0_d_735_584)">
<path d="M173.5 895C277.053 895 361 963.724 361 1048.5C361 1133.28 277.053 1202 173.5 1202C69.9466 1202 -14 1133.28 -14 1048.5C-14 963.724 69.9466 895 173.5 895Z" fill="url(#paint0_linear_735_584)"/>
</g>
<g filter="url(#filter1_d_735_584)">
<path d="M329 36C329 150.875 221.772 244 89.5 244C-42.7722 244 -150 150.875 -150 36C-150 -78.8752 -42.7722 -172 89.5 -172C221.772 -172 329 -78.8752 329 36Z" fill="url(#paint1_linear_735_584)"/>
</g>
<g filter="url(#filter2_d_735_584)">
<path d="M44.5003 491.193C69.2381 525.542 63.6137 571.88 31.9377 594.693C0.261833 617.506 -45.4705 608.155 -70.2083 573.807C-94.9461 539.458 -89.3216 493.12 -57.6457 470.307C-25.9698 447.494 19.7626 456.845 44.5003 491.193Z" fill="url(#paint2_linear_735_584)"/>
</g>
<g filter="url(#filter3_d_735_584)">
<path d="M1655.56 908.272C1685.15 998.445 1599.67 1107.46 1464.64 1151.77C1329.62 1196.08 1196.17 1158.9 1166.58 1068.73C1136.99 978.555 1222.46 869.536 1357.49 825.228C1492.52 780.919 1625.97 818.1 1655.56 908.272Z" fill="url(#paint3_linear_735_584)"/>
</g>
<g filter="url(#filter4_d_735_584)">
<path d="M1663.66 125.269C1677.16 207.708 1620.23 285.654 1536.5 299.368C1452.77 313.081 1373.95 257.368 1360.45 174.929C1346.95 92.4897 1403.88 14.5431 1487.61 0.829904C1571.34 -12.8833 1650.16 42.8299 1663.66 125.269Z" fill="url(#paint4_linear_735_584)"/>
</g>
<g filter="url(#filter5_d_735_584)">
<path d="M290.354 911.352C292.503 933.183 277.529 952.527 256.908 954.557C236.288 956.586 217.83 940.533 215.681 918.702C213.532 896.87 228.506 877.527 249.127 875.497C269.747 873.467 288.205 889.52 290.354 911.352Z" fill="url(#paint5_linear_735_584)" fill-opacity="0.9" shape-rendering="crispEdges"/>
</g>
<g filter="url(#filter6_d_735_584)">
<path d="M1353.49 77.0555C1374.92 72.3708 1395.89 84.9826 1400.31 105.225C1404.73 125.467 1390.95 145.674 1369.52 150.359C1348.09 155.044 1327.13 142.432 1322.7 122.19C1318.28 101.947 1332.06 81.7403 1353.49 77.0555Z" fill="url(#paint6_linear_735_584)" fill-opacity="0.9" shape-rendering="crispEdges"/>
</g>
<g filter="url(#filter7_d_735_584)">
<path d="M1267.25 962.193C1305.16 1020.29 1289.65 1097.57 1232.61 1134.8C1175.56 1172.04 1098.57 1155.12 1060.65 1097.03C1022.74 1038.93 1038.25 961.65 1095.3 924.417C1152.35 887.184 1229.33 904.097 1267.25 962.193Z" fill="url(#paint7_linear_735_584)"/>
</g>
<defs>
<filter id="filter0_d_735_584" x="-17" y="890" width="383" height="315" filterUnits="userSpaceOnUse" color-interpolation-filters="sRGB">
<feFlood flood-opacity="0" result="BackgroundImageFix"/>
<feColorMatrix in="SourceAlpha" type="matrix" values="0 0 0 0 0 0 0 0 0 0 0 0 0 0 0 0 0 0 127 0" result="hardAlpha"/>
<feOffset dx="1" dy="-1"/>
<feGaussianBlur stdDeviation="2"/>
<feComposite in2="hardAlpha" operator="out"/>
<feColorMatrix type="matrix" values="0 0 0 0 0 0 0 0 0 0 0 0 0 0 0 0 0 0 0.1 0"/>
<feBlend mode="normal" in2="BackgroundImageFix" result="effect1_dropShadow_735_584"/>
<feBlend mode="normal" in="SourceGraphic" in2="effect1_dropShadow_735_584" result="shape"/>
</filter>
<filter id="filter1_d_735_584" x="-153" y="-172" width="489" height="426" filterUnits="userSpaceOnUse" color-interpolation-filters="sRGB">
<feFlood flood-opacity="0" result="BackgroundImageFix"/>
<feColorMatrix in="SourceAlpha" type="matrix" values="0 0 0 0 0 0 0 0 0 0 0 0 0 0 0 0 0 0 127 0" result="hardAlpha"/>
<feOffset dx="2" dy="5"/>
<feGaussianBlur stdDeviation="2.5"/>
<feComposite in2="hardAlpha" operator="out"/>
<feColorMatrix type="matrix" values="0 0 0 0 0 0 0 0 0 0 0 0 0 0 0 0 0 0 0.1 0"/>
<feBlend mode="normal" in2="BackgroundImageFix" result="effect1_dropShadow_735_584"/>
<feBlend mode="normal" in="SourceGraphic" in2="effect1_dropShadow_735_584" result="shape"/>
</filter>
<filter id="filter2_d_735_584" x="-89.6296" y="457.831" width="153.551" height="157.338" filterUnits="userSpaceOnUse" color-interpolation-filters="sRGB">
<feFlood flood-opacity="0" result="BackgroundImageFix"/>
<feColorMatrix in="SourceAlpha" type="matrix" values="0 0 0 0 0 0 0 0 0 0 0 0 0 0 0 0 0 0 127 0" result="hardAlpha"/>
<feOffset dy="4"/>
<feGaussianBlur stdDeviation="2"/>
<feComposite in2="hardAlpha" operator="out"/>
<feColorMatrix type="matrix" values="0 0 0 0 0 0 0 0 0 0 0 0 0 0 0 0 0 0 0.05 0"/>
<feBlend mode="normal" in2="BackgroundImageFix" result="effect1_dropShadow_735_584"/>
<feBlend mode="normal" in="SourceGraphic" in2="effect1_dropShadow_735_584" result="shape"/>
</filter>
<filter id="filter3_d_735_584" x="1151.72" y="798.541" width="512.69" height="375.918" filterUnits="userSpaceOnUse" color-interpolation-filters="sRGB">
<feFlood flood-opacity="0" result="BackgroundImageFix"/>
<feColorMatrix in="SourceAlpha" type="matrix" values="0 0 0 0 0 0 0 0 0 0 0 0 0 0 0 0 0 0 127 0" result="hardAlpha"/>
<feOffset dx="-3" dy="-2"/>
<feGaussianBlur stdDeviation="3"/>
<feComposite in2="hardAlpha" operator="out"/>
<feColorMatrix type="matrix" values="0 0 0 0 0 0 0 0 0 0 0 0 0 0 0 0 0 0 0.05 0"/>
<feBlend mode="normal" in2="BackgroundImageFix" result="effect1_dropShadow_735_584"/>
<feBlend mode="normal" in="SourceGraphic" in2="effect1_dropShadow_735_584" result="shape"/>
</filter>
<filter id="filter4_d_735_584" x="1350.47" y="-3.24475" width="319.175" height="314.687" filterUnits="userSpaceOnUse" color-interpolation-filters="sRGB">
<feFlood flood-opacity="0" result="BackgroundImageFix"/>
<feColorMatrix in="SourceAlpha" type="matrix" values="0 0 0 0 0 0 0 0 0 0 0 0 0 0 0 0 0 0 127 0" result="hardAlpha"/>
<feOffset dx="-2" dy="4"/>
<feGaussianBlur stdDeviation="3"/>
<feComposite in2="hardAlpha" operator="out"/>
<feColorMatrix type="matrix" values="0 0 0 0 0 0 0 0 0 0 0 0 0 0 0 0 0 0 0.1 0"/>
<feBlend mode="normal" in2="BackgroundImageFix" result="effect1_dropShadow_735_584"/>
<feBlend mode="normal" in="SourceGraphic" in2="effect1_dropShadow_735_584" result="shape"/>
</filter>
<filter id="filter5_d_735_584" x="211.476" y="875.324" width="83.0837" height="87.406" filterUnits="userSpaceOnUse" color-interpolation-filters="sRGB">
<feFlood flood-opacity="0" result="BackgroundImageFix"/>
<feColorMatrix in="SourceAlpha" type="matrix" values="0 0 0 0 0 0 0 0 0 0 0 0 0 0 0 0 0 0 127 0" result="hardAlpha"/>
<feOffset dy="4"/>
<feGaussianBlur stdDeviation="2"/>
<feComposite in2="hardAlpha" operator="out"/>
<feColorMatrix type="matrix" values="0 0 0 0 0 0 0 0 0 0 0 0 0 0 0 0 0 0 0.08 0"/>
<feBlend mode="normal" in2="BackgroundImageFix" result="effect1_dropShadow_735_584"/>
<feBlend mode="normal" in="SourceGraphic" in2="effect1_dropShadow_735_584" result="shape"/>
</filter>
<filter id="filter6_d_735_584" x="1317.87" y="76.0784" width="87.2619" height="83.2576" filterUnits="userSpaceOnUse" color-interpolation-filters="sRGB">
<feFlood flood-opacity="0" result="BackgroundImageFix"/>
<feColorMatrix in="SourceAlpha" type="matrix" values="0 0 0 0 0 0 0 0 0 0 0 0 0 0 0 0 0 0 127 0" result="hardAlpha"/>
<feOffset dy="4"/>
<feGaussianBlur stdDeviation="2"/>
<feComposite in2="hardAlpha" operator="out"/>
<feColorMatrix type="matrix" values="0 0 0 0 0 0 0 0 0 0 0 0 0 0 0 0 0 0 0.08 0"/>
<feBlend mode="normal" in2="BackgroundImageFix" result="effect1_dropShadow_735_584"/>
<feBlend mode="normal" in="SourceGraphic" in2="effect1_dropShadow_735_584" result="shape"/>
</filter>
<filter id="filter7_d_735_584" x="1035.91" y="896.652" width="256.088" height="257.915" filterUnits="userSpaceOnUse" color-interpolation-filters="sRGB">
<feFlood flood-opacity="0" result="BackgroundImageFix"/>
<feColorMatrix in="SourceAlpha" type="matrix" values="0 0 0 0 0 0 0 0 0 0 0 0 0 0 0 0 0 0 127 0" result="hardAlpha"/>
<feOffset dy="-4"/>
<feGaussianBlur stdDeviation="2"/>
<feComposite in2="hardAlpha" operator="out"/>
<feColorMatrix type="matrix" values="0 0 0 0 0 0 0 0 0 0 0 0 0 0 0 0 0 0 0.05 0"/>
<feBlend mode="normal" in2="BackgroundImageFix" result="effect1_dropShadow_735_584"/>
<feBlend mode="normal" in="SourceGraphic" in2="effect1_dropShadow_735_584" result="shape"/>
</filter>
<linearGradient id="paint0_linear_735_584" x1="-37.4974" y1="1066.93" x2="337.503" y2="1066.93" gradientUnits="userSpaceOnUse">
<stop offset="0.357392" stop-color="#FFE3E3"/>
<stop offset="1" stop-color="#E3474A"/>
</linearGradient>
<linearGradient id="paint1_linear_735_584" x1="60.7436" y1="-198.066" x2="60.7436" y2="217.934" gradientUnits="userSpaceOnUse">
<stop offset="0.357392" stop-color="#FFD5D5"/>
<stop offset="1" stop-color="#BF000A"/>
</linearGradient>
<linearGradient id="paint2_linear_735_584" x1="-70.1454" y1="467.472" x2="19.438" y2="591.859" gradientUnits="userSpaceOnUse">
<stop offset="0.197115" stop-color="#FFE3E3"/>
<stop offset="1" stop-color="#F88284"/>
</linearGradient>
<linearGradient id="paint3_linear_735_584" x1="1321.42" y1="814.399" x2="1428.57" y2="1140.94" gradientUnits="userSpaceOnUse">
<stop offset="0.153846" stop-color="#FFE9E9"/>
<stop offset="1" stop-color="#D02023"/>
</linearGradient>
<linearGradient id="paint4_linear_735_584" x1="1466.34" y1="-14.8951" x2="1515.23" y2="283.642" gradientUnits="userSpaceOnUse">
<stop offset="0.357392" stop-color="#FFE5E6"/>
<stop offset="1" stop-color="#E35355"/>
</linearGradient>
<linearGradient id="paint5_linear_735_584" x1="244.156" y1="870.984" x2="251.938" y2="950.044" gradientUnits="userSpaceOnUse">
<stop offset="0.197115" stop-color="#FFB1B2"/>
<stop offset="1" stop-color="#C40609"/>
</linearGradient>
<linearGradient id="paint6_linear_735_584" x1="1318.8" y1="127.653" x2="1396.41" y2="110.688" gradientUnits="userSpaceOnUse">
<stop offset="0.197115" stop-color="#FFAFB1"/>
<stop offset="1" stop-color="#CD0003"/>
</linearGradient>
<linearGradient id="paint7_linear_735_584" x1="1051.89" y1="938.131" x2="1189.19" y2="1148.52" gradientUnits="userSpaceOnUse">
<stop offset="0.206731" stop-color="#FFB7B8"/>
<stop offset="0.836538" stop-color="#CF1619"/>
</linearGradient>
</defs>
</svg>
